<?xml version="1.0" encoding="utf-8"?>
<!-- Generator: Adobe Illustrator 16.0.0, SVG Export Plug-In . SVG Version: 6.00 Build 0)  -->
<!DOCTYPE svg PUBLIC "-//W3C//DTD SVG 1.1//EN" "http://www.w3.org/Graphics/SVG/1.1/DTD/svg11.dtd">
<svg version="1.1" id="Capa_1" xmlns="http://www.w3.org/2000/svg" xmlns:xlink="http://www.w3.org/1999/xlink" x="0px" y="0px"
	 width="89.494px" height="7.549px" viewBox="0 0 89.494 7.549" enable-background="new 0 0 89.494 7.549" xml:space="preserve">
<g>
	<path fill="#FFFFFF" d="M-0.009,0.184H0.66v3.164h4.018V0.184h0.669v7.183H4.678V3.957H0.66v3.409h-0.669V0.184z"/>
	<path fill="#FFFFFF" d="M10.566,0c2.192,0,3.713,1.584,3.713,3.774c0,2.192-1.521,3.774-3.713,3.774S6.852,5.967,6.852,3.774
		C6.852,1.584,8.375,0,10.566,0z M10.566,6.94c1.877,0,3.044-1.38,3.044-3.166c0-1.785-1.167-3.165-3.044-3.165
		s-3.044,1.38-3.044,3.165C7.521,5.561,8.688,6.94,10.566,6.94z"/>
	<path fill="#FFFFFF" d="M15.712,0.184h1.005l2.617,6.025l2.618-6.025h0.954v7.183h-0.67V1.035h-0.02l-2.739,6.331h-0.294
		l-2.78-6.331h-0.02v6.331h-0.67L15.712,0.184L15.712,0.184z"/>
	<path fill="#FFFFFF" d="M24.805,0.184h4.394v0.607h-3.724v2.557h3.491v0.609h-3.491v2.801h3.887v0.608h-4.556L24.805,0.184
		L24.805,0.184z"/>
	<path fill="#FFFFFF" d="M36.709,0c2.191,0,3.714,1.584,3.714,3.774c0,2.192-1.522,3.774-3.714,3.774
		c-2.192,0-3.713-1.582-3.713-3.774C32.996,1.584,34.517,0,36.709,0z M36.709,6.94c1.877,0,3.044-1.38,3.044-3.166
		c0-1.785-1.167-3.165-3.044-3.165c-1.876,0-3.044,1.38-3.044,3.165C33.665,5.561,34.833,6.94,36.709,6.94z"/>
	<path fill="#FFFFFF" d="M41.926,0.184h4.303v0.607h-3.633v2.557h3.379v0.609h-3.379v3.409h-0.67V0.184z"/>
	<path fill="#FFFFFF" d="M56.124,6.24c-0.681,0.934-1.613,1.309-2.67,1.309c-2.189,0-3.713-1.582-3.713-3.773
		s1.521-3.773,3.713-3.773c0.977,0,1.848,0.323,2.477,1.127l-0.547,0.455c-0.446-0.67-1.207-0.974-1.93-0.974
		c-1.876,0-3.043,1.38-3.043,3.165c0,1.786,1.167,3.166,3.043,3.166c0.723,0,1.614-0.346,2.121-1.116L56.124,6.24z"/>
	<path fill="#FFFFFF" d="M60.599,0c2.191,0,3.715,1.584,3.715,3.774c0,2.192-1.521,3.774-3.715,3.774
		c-2.191,0-3.713-1.582-3.713-3.774C56.886,1.584,58.408,0,60.599,0z M60.599,6.94c1.877,0,3.043-1.38,3.043-3.166
		c0-1.785-1.166-3.165-3.043-3.165s-3.045,1.38-3.045,3.165C57.554,5.561,58.722,6.94,60.599,6.94z"/>
	<path fill="#FFFFFF" d="M65.726,0.184h2.223c3.732,0,3.887,3.063,3.887,3.591s-0.152,3.592-3.887,3.592h-2.223V0.184z
		 M66.396,6.758h1.38c1.907,0,3.388-0.922,3.388-2.982s-1.479-2.982-3.388-2.982h-1.38V6.758z"/>
	<path fill="#FFFFFF" d="M73.337,0.184h4.395v0.607h-3.725v2.557h3.491v0.609h-3.491v2.801h3.887v0.608h-4.557V0.184L73.337,0.184z"
		/>
	<path fill="#FFFFFF" d="M79.355,0.184h1.888c0.566,0,2.557,0,2.557,1.887c0,1.37-1.045,1.744-1.836,1.848l2.09,3.448h-0.762
		l-2.02-3.409h-1.247v3.409h-0.67V0.184z M80.025,3.348h1.42c1.411,0,1.685-0.781,1.685-1.277c0-0.498-0.272-1.279-1.685-1.279
		h-1.42V3.348z"/>
	<path fill="#FFFFFF" d="M85.565,6.038c0.355,0.599,0.936,0.902,1.645,0.902c0.902,0,1.613-0.548,1.613-1.41
		c0-2.01-3.704-0.833-3.704-3.562C85.119,0.69,86.216,0,87.423,0c0.782,0,1.473,0.264,1.959,0.902l-0.578,0.416
		c-0.336-0.467-0.781-0.71-1.4-0.71c-0.861,0-1.611,0.444-1.611,1.358c0,2.162,3.702,0.862,3.702,3.563
		c0,1.299-1.065,2.02-2.231,2.02c-0.943,0-1.775-0.306-2.334-1.086L85.565,6.038z"/>
</g>
</svg>
