<?xml version="1.0" encoding="utf-8"?>
<!-- Generator: Adobe Illustrator 16.0.0, SVG Export Plug-In . SVG Version: 6.00 Build 0)  -->
<!DOCTYPE svg PUBLIC "-//W3C//DTD SVG 1.1//EN" "http://www.w3.org/Graphics/SVG/1.1/DTD/svg11.dtd">
<svg version="1.1" id="Capa_1" xmlns="http://www.w3.org/2000/svg" xmlns:xlink="http://www.w3.org/1999/xlink" x="0px" y="0px"
	 width="75.735px" height="65.406px" viewBox="0 0 75.735 65.406" enable-background="new 0 0 75.735 65.406" xml:space="preserve">
<g>
	<path fill="#FFFFFF" d="M64.997,65.406H45.781c-1.25,0-2.26-1.012-2.26-2.259V38.844H32.217v24.304c0,1.247-1.013,2.259-2.26,2.259
		H10.741c-1.25,0-2.263-1.012-2.263-2.259V36.582c0-1.248,1.013-2.263,2.263-2.263c1.247,0,2.26,1.015,2.26,2.263v24.304h14.694
		V36.582c0-1.248,1.013-2.263,2.262-2.263h15.824c1.249,0,2.26,1.015,2.26,2.263v24.304h14.696V36.582
		c0-1.248,1.011-2.263,2.26-2.263c1.25,0,2.261,1.015,2.261,2.263v26.565C67.257,64.395,66.247,65.406,64.997,65.406z"/>
	<path fill="#FFFFFF" d="M64.997,16.803c-1.249,0-2.26-1.015-2.26-2.262v-3.956h-3.955c-1.248,0-2.263-1.015-2.263-2.262
		c0-1.247,1.015-2.259,2.263-2.259h6.215c1.25,0,2.261,1.012,2.261,2.259v6.218C67.257,15.788,66.247,16.803,64.997,16.803z"/>
	<path fill="#FFFFFF" d="M2.262,35.174c-0.638,0-1.274-0.271-1.721-0.793c-0.81-0.95-0.699-2.376,0.252-3.189L36.541,0.674
		c0.849-0.725,2.099-0.725,2.943,0.004l35.465,30.521c0.947,0.813,1.054,2.24,0.239,3.186c-0.812,0.945-2.242,1.057-3.187,0.24
		L38.003,5.37L3.729,34.629C3.304,34.996,2.781,35.174,2.262,35.174z"/>
</g>
</svg>
