<?xml version="1.0" encoding="utf-8"?>
<!-- Generator: Adobe Illustrator 16.0.0, SVG Export Plug-In . SVG Version: 6.00 Build 0)  -->
<!DOCTYPE svg PUBLIC "-//W3C//DTD SVG 1.1//EN" "http://www.w3.org/Graphics/SVG/1.1/DTD/svg11.dtd">
<svg version="1.1" id="Capa_1" xmlns="http://www.w3.org/2000/svg" xmlns:xlink="http://www.w3.org/1999/xlink" x="0px" y="0px"
	 width="231.208px" height="28.452px" viewBox="0 0 231.208 28.452" enable-background="new 0 0 231.208 28.452"
	 xml:space="preserve">
<g>
	<path fill="#FFFFFF" d="M15.331,25.479c-0.841,1.02-1.794,1.768-2.859,2.25c-1.063,0.48-2.214,0.723-3.452,0.723
		c-1.313,0-2.525-0.223-3.639-0.67c-1.113-0.441-2.067-1.07-2.858-1.873c-0.791-0.805-1.411-1.757-1.856-2.858
		C0.221,21.949,0,20.742,0,19.431c0-1.313,0.222-2.52,0.667-3.621c0.446-1.102,1.065-2.053,1.856-2.857
		c0.793-0.805,1.745-1.43,2.858-1.877c1.115-0.443,2.328-0.668,3.639-0.668c1.264,0,2.431,0.262,3.509,0.781
		c1.076,0.52,2.034,1.25,2.875,2.189l-1.781,1.337c-0.643-0.718-1.351-1.28-2.116-1.688c-0.768-0.406-1.597-0.611-2.489-0.611
		c-1.038,0-1.981,0.188-2.819,0.559c-0.843,0.371-1.559,0.869-2.155,1.503c-0.593,0.631-1.045,1.372-1.354,2.226
		s-0.464,1.766-0.464,2.729s0.155,1.873,0.464,2.728s0.761,1.598,1.354,2.229c0.595,0.633,1.312,1.133,2.155,1.504
		c0.84,0.371,1.781,0.558,2.819,0.558c0.94,0,1.802-0.216,2.581-0.646c0.78-0.435,1.455-1.011,2.023-1.728L15.331,25.479z"/>
	<path fill="#FFFFFF" d="M25.28,19.431c0-1.313,0.224-2.52,0.668-3.621c0.446-1.102,1.063-2.053,1.855-2.857
		c0.792-0.804,1.746-1.43,2.859-1.877c1.115-0.443,2.327-0.668,3.639-0.668s2.518,0.227,3.62,0.668
		c1.103,0.445,2.054,1.072,2.86,1.877c0.804,0.806,1.429,1.756,1.874,2.857c0.447,1.102,0.669,2.311,0.669,3.621
		c0,1.313-0.224,2.518-0.669,3.619c-0.445,1.104-1.07,2.055-1.874,2.856c-0.806,0.806-1.758,1.431-2.86,1.875
		c-1.101,0.445-2.307,0.671-3.62,0.671s-2.524-0.224-3.639-0.671c-1.114-0.444-2.067-1.069-2.859-1.875
		c-0.792-0.805-1.411-1.756-1.855-2.856C25.502,21.947,25.28,20.742,25.28,19.431z M27.507,19.431c0,0.965,0.154,1.875,0.464,2.729
		c0.309,0.854,0.762,1.599,1.357,2.229c0.594,0.633,1.312,1.131,2.153,1.504c0.84,0.369,1.782,0.557,2.821,0.557
		c1.041,0,1.98-0.188,2.823-0.557c0.841-0.373,1.558-0.871,2.153-1.504c0.593-0.631,1.045-1.373,1.356-2.229
		c0.309-0.854,0.465-1.764,0.465-2.729c0-0.965-0.156-1.877-0.465-2.729c-0.309-0.854-0.763-1.599-1.356-2.228
		c-0.593-0.634-1.312-1.134-2.153-1.503c-0.841-0.373-1.782-0.559-2.823-0.559c-1.039,0-1.981,0.188-2.821,0.559
		c-0.842,0.371-1.559,0.869-2.153,1.503c-0.595,0.631-1.047,1.372-1.357,2.228C27.662,17.554,27.507,18.466,27.507,19.431z"/>
	<path fill="#FFFFFF" d="M70.721,25h-0.074c-0.346,0.592-0.78,1.104-1.301,1.54c-0.518,0.434-1.082,0.791-1.687,1.076
		c-0.608,0.283-1.244,0.494-1.913,0.631c-0.668,0.137-1.324,0.203-1.967,0.203c-1.313,0-2.524-0.225-3.639-0.668
		c-1.113-0.445-2.067-1.07-2.856-1.875c-0.794-0.805-1.413-1.758-1.858-2.858c-0.446-1.102-0.668-2.309-0.668-3.619
		c0-1.313,0.224-2.52,0.668-3.619c0.446-1.104,1.063-2.057,1.858-2.859c0.79-0.802,1.744-1.429,2.856-1.875
		c1.115-0.443,2.327-0.666,3.639-0.666c0.645,0,1.3,0.066,1.967,0.203c0.668,0.135,1.305,0.348,1.913,0.631
		c0.607,0.285,1.169,0.643,1.687,1.073c0.521,0.437,0.956,0.948,1.301,1.542h0.074V-0.059h2.227v28.065h-2.227V25z M70.943,19.431
		c0-0.965-0.186-1.877-0.558-2.729c-0.371-0.854-0.877-1.599-1.52-2.228c-0.645-0.634-1.399-1.134-2.264-1.503
		c-0.867-0.373-1.808-0.559-2.824-0.559c-1.038,0-1.979,0.188-2.82,0.559c-0.842,0.371-1.56,0.869-2.153,1.503
		c-0.595,0.631-1.048,1.372-1.357,2.228c-0.311,0.854-0.464,1.764-0.464,2.729c0,0.965,0.153,1.875,0.464,2.729
		c0.309,0.854,0.761,1.599,1.357,2.229c0.594,0.633,1.312,1.131,2.153,1.504c0.841,0.369,1.782,0.557,2.82,0.557
		c1.016,0,1.956-0.188,2.824-0.557c0.865-0.373,1.62-0.871,2.264-1.504c0.643-0.631,1.15-1.373,1.52-2.229
		C70.755,21.306,70.943,20.393,70.943,19.431z"/>
	<path fill="#FFFFFF" d="M100.977,24.774c-0.867,1.314-1.935,2.256-3.213,2.824c-1.274,0.566-2.678,0.852-4.213,0.852
		c-1.313,0-2.5-0.223-3.566-0.668c-1.064-0.441-1.978-1.07-2.745-1.873c-0.768-0.807-1.355-1.758-1.764-2.86
		c-0.409-1.102-0.613-2.32-0.613-3.654c0-1.289,0.208-2.477,0.632-3.566c0.42-1.086,1.015-2.035,1.783-2.838
		c0.767-0.806,1.671-1.438,2.708-1.895c1.042-0.458,2.193-0.688,3.455-0.688c1.311,0,2.469,0.228,3.471,0.688
		c1.003,0.457,1.842,1.064,2.525,1.818c0.68,0.754,1.193,1.615,1.54,2.58c0.347,0.967,0.52,1.941,0.52,2.933v1.563H87.092
		c0,0.471,0.092,1.071,0.278,1.801c0.186,0.729,0.527,1.442,1.021,2.135c0.495,0.691,1.157,1.288,1.985,1.78
		c0.829,0.498,1.9,0.744,3.212,0.744c1.14,0,2.24-0.271,3.305-0.814c1.064-0.545,1.881-1.287,2.452-2.229L100.977,24.774z
		 M99.27,17.981c0-0.766-0.154-1.483-0.465-2.153c-0.309-0.668-0.731-1.254-1.262-1.761c-0.533-0.508-1.164-0.911-1.893-1.209
		c-0.732-0.297-1.503-0.444-2.322-0.444c-1.213,0-2.22,0.248-3.025,0.742c-0.804,0.495-1.441,1.063-1.91,1.709
		c-0.472,0.646-0.808,1.271-1.003,1.875c-0.199,0.606-0.297,1.021-0.297,1.241H99.27L99.27,17.981z"/>
	<path fill="#FFFFFF" d="M113.896,15.681c0-0.322-0.015-0.711-0.038-1.172c-0.023-0.456-0.044-0.92-0.056-1.389
		c-0.013-0.471-0.029-0.914-0.056-1.319c-0.025-0.408-0.037-0.726-0.037-0.946h2.227c0.025,0.641,0.046,1.262,0.057,1.857
		c0.014,0.593,0.045,0.977,0.096,1.15h0.111c0.444-0.941,1.188-1.752,2.227-2.432c1.039-0.682,2.256-1.021,3.642-1.021
		c1.337,0,2.427,0.213,3.271,0.631c0.84,0.42,1.502,0.973,1.981,1.65c0.479,0.68,0.815,1.467,1.005,2.356
		c0.186,0.893,0.276,1.809,0.276,2.747V28h-2.229V17.904c0-0.693-0.063-1.369-0.187-2.021c-0.123-0.656-0.339-1.244-0.646-1.764
		c-0.312-0.521-0.742-0.934-1.303-1.242c-0.557-0.312-1.279-0.465-2.172-0.465c-0.814,0-1.59,0.144-2.318,0.429
		c-0.731,0.284-1.361,0.717-1.896,1.298c-0.533,0.582-0.953,1.313-1.267,2.189c-0.311,0.881-0.465,1.912-0.465,3.104v8.574h-2.227
		L113.896,15.681L113.896,15.681z"/>
	<path fill="#FFFFFF" d="M140.995,19.431c0-1.313,0.229-2.52,0.67-3.621c0.445-1.102,1.064-2.053,1.855-2.857
		c0.792-0.805,1.746-1.43,2.859-1.877c1.113-0.443,2.328-0.668,3.639-0.668s2.518,0.227,3.617,0.668
		c1.104,0.445,2.056,1.072,2.861,1.877c0.805,0.806,1.43,1.756,1.875,2.857c0.442,1.102,0.67,2.311,0.67,3.621
		c0,1.313-0.228,2.518-0.67,3.619c-0.445,1.104-1.07,2.055-1.875,2.856c-0.807,0.804-1.758,1.431-2.861,1.875
		c-1.098,0.445-2.305,0.671-3.617,0.671s-2.523-0.224-3.639-0.671c-1.113-0.444-2.066-1.069-2.859-1.875
		c-0.791-0.805-1.41-1.756-1.855-2.856C141.221,21.947,140.995,20.742,140.995,19.431z M143.224,19.431
		c0,0.965,0.155,1.875,0.467,2.729c0.31,0.854,0.761,1.599,1.354,2.229c0.594,0.633,1.313,1.131,2.149,1.504
		c0.845,0.369,1.784,0.557,2.821,0.557c1.04,0,1.979-0.188,2.818-0.557c0.847-0.373,1.563-0.871,2.154-1.504
		c0.594-0.631,1.043-1.373,1.355-2.229c0.309-0.854,0.462-1.764,0.462-2.729c0-0.965-0.153-1.877-0.462-2.729
		c-0.313-0.854-0.764-1.599-1.355-2.228c-0.595-0.634-1.311-1.134-2.154-1.503c-0.84-0.373-1.778-0.559-2.818-0.559
		c-1.037,0-1.979,0.188-2.821,0.559c-0.84,0.371-1.56,0.869-2.149,1.503c-0.596,0.631-1.047,1.372-1.354,2.228
		C143.379,17.554,143.224,18.466,143.224,19.431z"/>
	<path fill="#FFFFFF" d="M179.831,12.857h-4.9v11.174c0,0.77,0.213,1.36,0.633,1.78c0.422,0.422,1.002,0.635,1.744,0.635
		c0.424,0,0.848-0.059,1.279-0.17c0.435-0.111,0.851-0.254,1.244-0.43l0.187,2.008c-0.421,0.148-0.903,0.281-1.447,0.408
		c-0.543,0.123-1.022,0.188-1.444,0.188c-0.791,0-1.476-0.119-2.043-0.354c-0.57-0.236-1.025-0.551-1.373-0.947
		c-0.351-0.396-0.603-0.857-0.764-1.391c-0.156-0.535-0.24-1.109-0.24-1.729V12.858h-3.711v-2.002h3.711V5.917h2.229v4.936h4.898
		v2.004H179.831z"/>
	<path fill="#FFFFFF" d="M205.594,25.479c-0.842,1.02-1.797,1.768-2.859,2.25c-1.064,0.48-2.216,0.723-3.451,0.723
		c-1.313,0-2.527-0.223-3.639-0.67c-1.115-0.441-2.066-1.07-2.859-1.873c-0.791-0.805-1.408-1.757-1.854-2.858
		c-0.444-1.102-0.668-2.309-0.668-3.617c0-1.313,0.224-2.52,0.668-3.623c0.444-1.102,1.063-2.052,1.854-2.857
		c0.791-0.804,1.744-1.429,2.859-1.875c1.111-0.444,2.324-0.668,3.639-0.668c1.262,0,2.43,0.26,3.508,0.78
		c1.076,0.519,2.037,1.25,2.877,2.19l-1.785,1.337c-0.643-0.72-1.346-1.281-2.112-1.688c-0.769-0.406-1.599-0.611-2.487-0.611
		c-1.035,0-1.979,0.188-2.818,0.559c-0.844,0.371-1.562,0.869-2.153,1.503c-0.595,0.631-1.048,1.372-1.354,2.228
		c-0.311,0.854-0.465,1.764-0.465,2.729s0.154,1.875,0.465,2.729c0.309,0.854,0.76,1.599,1.354,2.229
		c0.595,0.633,1.312,1.131,2.153,1.504c0.84,0.369,1.783,0.558,2.818,0.558c0.94,0,1.803-0.218,2.58-0.647
		c0.78-0.434,1.453-1.009,2.021-1.727L205.594,25.479z"/>
	<path fill="#FFFFFF" d="M216.506-0.059h2.229v13.922h0.074c0.443-0.94,1.189-1.752,2.227-2.433
		c1.041-0.683,2.254-1.022,3.643-1.022c1.335,0,2.424,0.215,3.269,0.633c0.841,0.42,1.503,0.973,1.981,1.647
		c0.48,0.685,0.816,1.47,1.003,2.358c0.188,0.896,0.276,1.813,0.276,2.748v10.21h-2.226v-10.1c0-0.691-0.062-1.367-0.187-2.021
		c-0.123-0.656-0.338-1.244-0.649-1.764c-0.31-0.521-0.739-0.935-1.3-1.242c-0.555-0.312-1.278-0.465-2.17-0.465
		c-0.817,0-1.592,0.144-2.32,0.43c-0.73,0.283-1.361,0.716-1.895,1.298c-0.532,0.583-0.953,1.313-1.266,2.19
		c-0.31,0.881-0.464,1.91-0.464,3.102v8.575h-2.229V-0.059H216.506z"/>
</g>
</svg>
