<?xml version="1.0" encoding="utf-8"?>
<!-- Generator: Adobe Illustrator 16.0.0, SVG Export Plug-In . SVG Version: 6.00 Build 0)  -->
<!DOCTYPE svg PUBLIC "-//W3C//DTD SVG 1.1//EN" "http://www.w3.org/Graphics/SVG/1.1/DTD/svg11.dtd">
<svg version="1.1" id="Layer_1" xmlns="http://www.w3.org/2000/svg" xmlns:xlink="http://www.w3.org/1999/xlink" x="0px" y="0px"
	 width="900px" height="600px" viewBox="0 0 900 600" enable-background="new 0 0 900 600" xml:space="preserve">
<g>
	<path fill="#4C79C1" d="M212.39,365.486h499.273v-21.438c0-5.731-4.644-10.375-10.375-10.375H222.764
		c-5.729,0-10.375,4.644-10.375,10.375V365.486z"/>
</g>
<g opacity="0.7">
	<path fill="#8A829E" d="M806.776,593.637c0-3.231-3.012-5.875-6.693-5.875H99.912c-3.681,0-6.693,2.644-6.693,5.875
		s3.012,5.875,6.693,5.875h700.17C803.764,599.512,806.776,596.868,806.776,593.637z"/>
</g>
<g>
	<path fill="#56698F" d="M568.891,580.6c0,6.424-5.206,11.631-11.629,11.631c-6.424,0-11.63-5.207-11.63-11.631"/>
	<path fill="#56698F" d="M648.106,580.6c0,6.424-5.206,11.631-11.629,11.631c-6.424,0-11.631-5.207-11.631-11.631"/>
	<path fill="#56698F" d="M711.489,580.6c0,6.424-5.206,11.631-11.63,11.631s-11.631-5.207-11.631-11.631"/>
	<rect x="585.27" y="441.446" fill="#B7BEBC" width="20.949" height="93.997"/>
	<polygon fill="#7F8A99" points="585.27,441.714 585.27,471.141 606.219,464.712 606.219,441.714 	"/>
	<polygon fill="#B7BEBC" points="572.441,548.144 572.441,554.595 619.045,554.595 619.045,543.139 	"/>
	<g>
		<path fill="#425677" d="M622.901,428.192c0-6.114-5.003-11.117-11.117-11.117h-32.077c-6.114,0-11.117,5.003-11.117,11.117v13.948
			c0,6.114,5.003,11.117,11.117,11.117h32.077c6.114,0,11.117-5.003,11.117-11.117V428.192z"/>
	</g>
	<g>
		<path fill="#3A4960" d="M661.375,431.961c0-5.365-5.003-9.754-11.117-9.754h-109.03c-6.114,0-11.117,4.389-11.117,9.754
			c0,5.364,5.003,9.753,11.117,9.753h109.03C656.372,441.714,661.375,437.325,661.375,431.961z"/>
	</g>
	<g>
		<path fill="#ED5B48" d="M702.492,400.992c0.969,6.037-3.209,11.541-9.284,12.23l-124.595,14.143
			c-6.075,0.689-11.735-3.701-12.578-9.757l-9.764-70.188c-0.843-6.056-0.345-15.87,1.107-21.81l33.203-135.824
			c1.452-5.939,7.479-12.069,13.393-13.622l65.194-17.113c5.914-1.553,15.756-2.823,21.87-2.823h12.797
			c6.114,0,10.762,4.99,10.328,11.089l-11.25,158.002c-0.434,6.099,0.004,16.028,0.973,22.065L702.492,400.992z"/>
	</g>
	<g>
		<path fill="#932D29" d="M684.58,417.608c0.842,6.056-3.472,11.011-9.586,11.011H552.409c-6.114,0-11.807-4.955-12.648-11.011
			l-9.765-70.188c-0.842-6.056-0.486-15.903,0.791-21.883l33.837-158.437c1.277-5.979,7.325-10.872,13.439-10.872h96.931
			c6.114,0,10.762,4.99,10.328,11.089l-11.249,158.002c-0.434,6.099-0.1,16.044,0.743,22.1L684.58,417.608z"/>
	</g>
	<g>
		<path fill="#B23936" d="M686.112,410.832c0,9.783-8.004,17.787-17.787,17.787H482.116c-9.783,0-17.787-8.004-17.787-17.787v-5.923
			c0-9.783,8.004-17.787,17.787-17.787h186.208c9.783,0,17.787,8.004,17.787,17.787V410.832z"/>
	</g>
	<path fill="#932D29" d="M581.129,387.048c-16.564,0-37.014,41.571-26.282,41.571c10.73,0-54.983,0-54.983,0l37.646-41.571H581.129z
		"/>
	<g>
		<path fill="#ED5B48" d="M608.261,411.943c0,9.172,7.504,16.676,16.676,16.676h64.496c9.172,0,15.857-7.459,14.858-16.576
			l-0.916-8.345c-0.999-9.117-9.321-16.576-18.493-16.576h-59.945c-9.172,0-16.676,7.504-16.676,16.676V411.943z"/>
	</g>
	<g>
		<path fill="#B23936" d="M554.592,294.911c-4.887,3.674-8.162,1.73-7.278-4.319l18.025-123.362c0.884-6.05,6.61-11,12.725-11
			h96.931c6.114,0,10.762,4.99,10.328,11.089l-8.982,126.172c-0.434,6.099-2.514,6.393-4.621,0.653l-21.286-57.976
			c-2.107-5.74-7.83-7.43-12.718-3.755L554.592,294.911z"/>
	</g>
	
		<polyline fill="none" stroke="#B7BEBC" stroke-width="11.117" stroke-linecap="round" stroke-linejoin="round" stroke-miterlimit="10" points="
		493.124,558.443 595.744,539.492 699.859,558.443 	"/>
	
		<polyline fill="none" stroke="#B7BEBC" stroke-width="11.117" stroke-linecap="round" stroke-linejoin="round" stroke-miterlimit="10" points="
		557.262,558.443 595.744,539.492 635.721,558.443 	"/>
	<path fill="#56698F" d="M504.839,580.6c0,6.424-5.205,11.631-11.629,11.631c-6.423,0-11.63-5.207-11.63-11.631"/>
	<g>
		<path fill="#B7BEBC" d="M481.58,581.169c-0.942,0-1.708-0.765-1.708-1.707c0-7.354,5.983-13.336,13.338-13.336
			c7.354,0,13.337,5.981,13.337,13.336c0,0.942-0.764,1.707-1.707,1.707H481.58z"/>
		<path fill="#B7BEBC" d="M493.21,567.833c6.424,0,11.629,5.205,11.629,11.629H481.58
			C481.58,573.038,486.787,567.833,493.21,567.833 M493.21,564.419c-8.294,0-15.044,6.749-15.044,15.043
			c0,1.886,1.529,3.413,3.414,3.413h23.259c1.886,0,3.415-1.527,3.415-3.413C508.254,571.168,501.505,564.419,493.21,564.419
			L493.21,564.419z"/>
	</g>
	<g>
		<path fill="#B7BEBC" d="M545.63,581.169c-0.941,0-1.707-0.765-1.707-1.707c0-7.354,5.983-13.336,13.339-13.336
			c7.354,0,13.336,5.981,13.336,13.336c0,0.942-0.765,1.707-1.707,1.707H545.63z"/>
		<path fill="#B7BEBC" d="M557.262,567.833c6.423,0,11.629,5.205,11.629,11.629h-23.259
			C545.632,573.038,550.838,567.833,557.262,567.833 M557.262,564.419c-8.295,0-15.043,6.749-15.043,15.043
			c0,1.886,1.527,3.413,3.413,3.413h23.259c1.885,0,3.414-1.527,3.414-3.413C572.305,571.168,565.557,564.419,557.262,564.419
			L557.262,564.419z"/>
	</g>
	<g>
		<path fill="#B7BEBC" d="M624.846,581.169c-0.942,0-1.708-0.765-1.708-1.707c0-7.354,5.984-13.336,13.339-13.336
			s13.336,5.981,13.336,13.336c0,0.942-0.763,1.707-1.707,1.707H624.846z"/>
		<path fill="#B7BEBC" d="M636.477,567.833c6.423,0,11.629,5.205,11.629,11.629h-23.26
			C624.846,573.038,630.053,567.833,636.477,567.833 M636.477,564.419c-8.296,0-15.045,6.749-15.045,15.043
			c0,1.886,1.53,3.413,3.414,3.413h23.26c1.885,0,3.414-1.527,3.414-3.413C651.52,571.168,644.77,564.419,636.477,564.419
			L636.477,564.419z"/>
	</g>
	<g>
		<path fill="#B7BEBC" d="M688.228,581.169c-0.942,0-1.707-0.765-1.707-1.707c0-7.354,5.984-13.336,13.338-13.336
			s13.337,5.981,13.337,13.336c0,0.942-0.764,1.707-1.707,1.707H688.228z"/>
		<path fill="#B7BEBC" d="M699.859,567.833c6.424,0,11.63,5.205,11.63,11.629h-23.261
			C688.228,573.038,693.435,567.833,699.859,567.833 M699.859,564.419c-8.296,0-15.043,6.749-15.043,15.043
			c0,1.886,1.527,3.413,3.412,3.413h23.261c1.885,0,3.413-1.527,3.413-3.413C714.902,571.168,708.154,564.419,699.859,564.419
			L699.859,564.419z"/>
	</g>
	<g>
		<path fill="#3A4960" d="M610.067,536.582v-26.867c0-3.058-2.501-5.559-5.559-5.559H586.98c-3.058,0-5.559,2.501-5.559,5.559
			v26.867"/>
	</g>
	
		<line fill="none" stroke="#B7BEBC" stroke-width="11.117" stroke-linecap="round" stroke-linejoin="round" stroke-miterlimit="10" x1="493.21" y1="571.536" x2="493.21" y2="559.221"/>
	
		<line fill="none" stroke="#B7BEBC" stroke-width="11.117" stroke-linecap="round" stroke-linejoin="round" stroke-miterlimit="10" x1="557.262" y1="571.536" x2="557.262" y2="559.221"/>
	
		<line fill="none" stroke="#B7BEBC" stroke-width="11.117" stroke-linecap="round" stroke-linejoin="round" stroke-miterlimit="10" x1="636.477" y1="571.536" x2="636.477" y2="559.221"/>
	
		<line fill="none" stroke="#B7BEBC" stroke-width="11.117" stroke-linecap="round" stroke-linejoin="round" stroke-miterlimit="10" x1="699.859" y1="571.536" x2="699.859" y2="559.221"/>
	<g>
		<g>
			<g>
				
					<path fill="none" stroke="#3B2D3C" stroke-width="30.9448" stroke-linecap="round" stroke-linejoin="round" stroke-miterlimit="10" d="
					M562.369,167.213c-14.417,32.796-35.601,102.7-35.601,102.7c-0.772,2.548-3.117,5.979-5.211,7.625c0,0-5.477,4.304-57.205,4.304
					"/>
			</g>
			<rect x="591.517" y="96.136" fill="#FFB287" width="30.438" height="48.915"/>
			<path fill="#F58D6C" d="M628.194,104.048c-0.757,1.964,0.64,1.945-1.55,4.572c-3.401,4.079-5.703,13.41-4.496,18.548
				c1.211,5.137-4.38,10.529-4.531,9.924c-0.153-0.604-0.454-18.386,0-19.746c0.454-1.359,1.661-6.044,1.963-6.497
				c0.303-0.454,3.477-3.778,3.477-3.778L628.194,104.048z"/>
			<path fill="#F58D6C" d="M591.562,127.82c8.006,1.224,15.864-1.269,22.569-4.328c2.905-1.327,3.273,2.235,3.273,5.334
				c0,1.263,4.522-2.145,4.522-2.145l0.091,11.549l0.115-51.892l-30.563-0.063L591.562,127.82z"/>
			<g>
				<path fill="#FFA969" d="M546.552,165.468c-0.035,0.092-0.055,0.146-0.055,0.146S546.505,165.561,546.552,165.468z"/>
				<path fill="#3B2D3C" d="M672.435,164.593c-2.427-6.543-7.108-15.771-15.604-18.12c-20.905-5.779-34.789-10.602-34.789-17.797
					c0-1.57,0.477,12.762-18.057,12.762c-13.159,0-12.458-15.875-12.458-14.65c0,14.317-13.197,15.534-31.53,21.811
					c-20.251,6.936-8.845,26.002-8.845,26.002s-8.537-9.227,48.316-10.327c58.081,0.945,68.342,9.491,68.342,9.491
					S675.24,172.155,672.435,164.593z"/>
			</g>
			<path fill="#3B2D3C" d="M643.986,267.095c-0.566,6.021-0.893,11.849-0.893,17.304c0,4.236,6.179,39.321,9.884,47.286
				c1.651,3.561-3.198,6.12-10.886,7.94c-10.196,2.426-25.377,3.561-36.865,4.031c-23.24,0.966-37.069,12.164-46.689,12.164
				c-12.258,0-6.586-17.16-1.05-34.441c2.198-6.854,5.564-36.895,5.974-40.781c0.483-4.67,0.786-9.146,0.931-13.503
				c0.592-16.895-1.05-32.014-2.775-50.308c-0.557-5.732-7.529-5.96-6.48-18.836c1.063-13.033,5.178-25.62,7.82-31.497
				c8.168-1.749,19.826-3.101,36.479-3.426c42.826,0.699,59.673,6.202,65.563,9.05c-1.28,3.403-4.321,13.057-7.737,25.932
				C652.156,217.221,646.205,243.624,643.986,267.095z"/>
			<path fill="#3B2D3C" d="M642.091,339.625c-10.196,2.426-25.377,3.561-36.865,4.031c-23.24,0.966-37.069,12.164-46.689,12.164
				c-12.258,0-6.586-17.16-1.05-34.441c2.198-6.854,5.564-36.895,5.974-40.781c0.483-4.67,0.786-9.146,0.931-13.503h79.595
				c-0.566,6.021-0.893,11.849-0.893,17.304c0,4.236,6.179,39.321,9.884,47.286C654.628,335.245,649.779,337.805,642.091,339.625z"
				/>
			<path fill="#281E28" d="M556.073,190.743c-1.173,11.511,3.56,24.999,16.013,22.39c14.566-2.561,30.74-1.425,42.863,0.239
				c30.475,3.021,35.139-25.359,35.139-25.359s2.39,2.572,7.168,10.001c-6.41,24.148-6.944,56.086-6.944,86.776
				c0,11.182,2.676,37.762,5.418,47.917c1.025,3.796-8.543,4.933-16.229,6.755c-3.038-7.711-6.734-35.121-7.32-50.763
				c-0.541-14.399-1.329-26.578-0.248-43.317c0.976-15.107-9.1-21.273-25.587-21.273c-0.042,0-0.073-0.007-0.112-0.007
				c-0.055,0.002-0.104,0.004-0.157,0.007c-15.12,0-27.2,0.151-33.787,2.354c-7.78,2.602-8.939,7.223-8.939,7.223
				C562.989,231.331,551.602,214.939,556.073,190.743z"/>
			<path fill="none" stroke="#3B2D3C" stroke-width="30.9448" stroke-linecap="round" stroke-miterlimit="10" d="M659.16,172.169
				c15.043,19.54,23.29,91.554,23.091,105.99c-0.196,14.077-26.598,9.911-62.964,11.085"/>
			<g>
				<path fill="#FFB287" d="M620.565,128.047c0.004-0.066,0.002-0.128,0.007-0.195C620.582,127.714,620.584,127.797,620.565,128.047
					z"/>
				<path fill="#FFB287" d="M590.179,125.115C590.181,125.086,590.18,125.086,590.179,125.115L590.179,125.115z"/>
				<path fill="#FFB287" d="M593.912,177.288c6.98-0.446,28.883-36.402,42.256-38.185c-3.624-1.924-7.285-4.305-9.972-6.687
					c-2.499-2.217-4.152-4.434-4.152-6.3c-0.012,0.129-0.002,1.478-0.002,1.8c0,3.513-3.201,8.477-18.053,8.477
					c-11.673,0-12.446-7.438-12.47-9.408c-0.022,2.78-0.552,5.067-1.525,6.98c-1.092,2.158-2.756,3.871-4.902,5.302
					C579.002,152.23,588.388,177.64,593.912,177.288z"/>
			</g>
			<path fill="#F1F1F3" d="M586.477,203.034c0,0,4.741-8.283,4.635-2.916c-0.003,0.109,29.94-58.35,41.654-59.913
				c-3.625-1.923-5.724-7.789-8.41-10.171c-1.175,2.252-21.574,11.075-21.574,11.075l-6.674,15.32l-1.572-4.95l-3.414-10.688
				c0,0-0.446-0.633-0.974-1.736c-0.716-1.489-1.574-3.836-1.668-6.58l-3.388,6.792c-1.515,3.226-2.535,8.809-3.12,15.391
				c-0.096,1.008-0.179,2.053-0.248,3.108c-0.921,13.634,1.62,37.348,1.62,37.348L586.477,203.034z"/>
			<path fill="#3B2D3C" d="M626.197,132.417c1.486,1.822-4.868,15.509-17.188,30.759c-12.316,15.25,3.227,23.462,3.227,23.462
				s64.94-17.373,63.74-19.551c-5.238-9.506-5.68-15.023-10.184-18.945c-4.799-4.177-13.643-6.501-18.753-8.428
				C637.602,136.155,626.197,132.417,626.197,132.417z"/>
			<path fill="#4B4051" d="M635.699,135.021c2.932,7.039,9.971,28.741-0.587,32.847c-10.56,4.106-14.078,5.279-14.078,5.279
				s4.106,4.693,7.626,8.798c3.52,4.106-19.355,9.484-42.231,21.214c0,0,14.663-34.704,30.499-56.994
				c6.662-9.376,5.149-15.975,7.627-16.717C627.965,128.426,635.699,135.021,635.699,135.021z"/>
			<path fill="#4B4051" d="M585.548,137.66c-3.317,7.039-21.741,26.102-16.794,30.208c4.948,4.106,6.645,5.279,6.645,5.279
				s-3.419,4.693-6.368,8.798c-2.951,4.106,7.545,9.679,17.593,21.41c0,0-1.482-34.104,0.392-56.603
				C588.187,132.674,585.548,137.66,585.548,137.66z"/>
			<path opacity="0.3" fill="#1F3242" d="M580.562,158.342l1.162-0.575l9.837-4.123l-1.76-11.291c0,0,0.874-2.193,0.347-3.297
				l-2.992,1.972l-5.184,13.631L580.562,158.342z"/>
			<path opacity="0.3" fill="#1F3242" d="M616.488,160.199l-1.16-0.573l-14.332-6.618l3.225-11.144c0,0,2.157,0.152,2.685-0.951
				l2.992,1.971l5.185,13.632L616.488,160.199z"/>
			<path fill="#FFFFFF" d="M591.119,140.788l-10.362,17.499c0,0-3.274-9.189,2.005-18.427c2.277-3.985,5.278-7.699,5.278-7.699
				l3.594-4.619c0,0,0.146,3.446-0.44,4.546c-0.586,1.099-1.614,2.713-1.466,3.813C589.836,136.713,591.119,140.788,591.119,140.788
				z"/>
			<path fill="#FFFFFF" d="M602.852,141.082c0,0,2.2,4.937,5.866,10.069c3.666,5.133,7.624,8.896,7.624,8.896
				s17.891-16.228,12.465-28.399c-1.493-3.349-6.746-9.972-6.746-9.972s0,5.28,0,6.453s-3.958,4.326-7.845,6.965
				C610.33,137.734,602.852,141.082,602.852,141.082z"/>
			<path fill="#F1F1F3" d="M622.848,274.344c1.863,0.125,6.264,6.376,6.264,13.986c0,15.922-5.867,13.66-7.729,13.534l-10.747-0.304
				l0.734-27.421L622.848,274.344z"/>
			<path fill="#F1F1F3" d="M607.757,287.424v0.494c0,2.944,0.221,5.666,0.608,7.894c0.598,3.53,1.595,5.83,2.709,5.83
				c0.857,0,1.644-1.336,2.218-3.542c0.646-2.381,1.056-5.771,1.104-9.56v-0.621c0-0.833-0.025-1.643-0.059-2.429
				c-0.211-5.126-1.128-9.279-2.322-10.734c-0.295-0.363-0.611-0.563-0.94-0.563c-0.211,0-0.434,0.083-0.634,0.258
				c-1.008,0.81-1.865,3.532-2.322,7.227C607.906,283.414,607.779,285.36,607.757,287.424z"/>
			<g>
				<path fill="#FFB287" d="M609.439,275.992c-9.851,0-23.733-0.089-30.972-0.089s-4.014,18.542-4.014,18.542h43.406
					C617.86,294.445,619.893,275.992,609.439,275.992z"/>
				<path fill="#F58D6C" d="M590.887,294.227c4.009-2.595,6.604-3.931,8.568-5.032c1.966-1.101,4.168-1.101,8.728-1.101
					s6.839,0,6.839,0s0.157-4.717-3.146-8.491c-3.301-3.773-5.815-3.694-5.815-3.694h9.064c0,0,6.188,2.122,6.188,9.984
					c0,7.861,0,7.861,0,7.861L590.887,294.227z"/>
				<g>
					<path fill="#FFFFFF" d="M551.035,294.297c0,0,0-2.357,0-5.238s5.272-5.822,11.718-6.537l10.037-1.113
						c6.445-0.714,11.718,1.893,11.718,5.794c0,3.901,0,7.093,0,7.093"/>
				</g>
				<path fill="#FFAF80" d="M560.416,294.445c-0.402-3.468,0.925-7.224,3.338-9.184c2.413-1.961,6.639-5.244,8.599-6.544
					s4.374-2.808,10.256-2.808c5.883,0,14.33,0,18.253,0c3.921,0,7.54,1.17,9.199,7.222c1.66,6.051-0.602,4.707-2.713,4.707
					c-2.112,0-10.56,0-12.521,0c-3.771,0-7.079,6.607-12.837,6.607C576.233,294.445,560.416,294.445,560.416,294.445z"/>
				<path fill="none" stroke="#FFAF80" stroke-width="7.0736" stroke-linecap="round" stroke-miterlimit="10" d="M556.815,282.847
					c1.357-1.434,5.958-6.788,6.413-6.938c0.45-0.152,12.813,3.756,18.762,3.756"/>
			</g>
			<g>
				<g>
					<circle fill="#693528" cx="654.249" cy="43.783" r="16.284"/>
					<path fill="#8E3925" d="M657.349,51.661c0-30.71-19.394-49.963-50.104-49.963s-20.31,19.252-20.31,49.963
						c0,30.709-9.13,50.512,21.154,55.605C640.424,112.707,657.349,82.371,657.349,51.661z"/>
					<g>
						<path fill="#693528" d="M554.999,41.99c2.506,19.921,17.018,27.446,27.383,28.148l19.9-67.417
							C575.73,2.083,552.493,22.069,554.999,41.99z"/>
						<path fill="#F58D6C" d="M563.096,82.066c-0.002,7.615,6.635,25.215,10.754,30.497c1.757,2.253,3.483,5.054,9.058,6.787
							c5.075,1.577,12.712,2.825,14.732,7.986c1.084,2.773,0.322-2.618,2.42-2.984c22.139-3.866,37.869-27.009,37.869-45.607
							l-4.976-25.908c0-20.36-16.092-37.018-35.757-37.018c-19.668,0-35.759,16.658-35.759,37.018L563.096,82.066z"/>
						<path fill="#FFB287" d="M561.885,81.53c0.748,21.375,9.318,39.839,31.457,39.064c25.731-0.9,32.857-26.736,32.146-47.083
							l-1.24-17.648c-0.711-20.348-9.232-40.835-28.886-40.146c-19.654,0.688-35.154,17.899-34.441,38.247L561.885,81.53z"/>
						<path fill="#8E3925" d="M649.956,54.372c18.78-3.516-29.85-40.996-34.824-42.641c-3.414-1.129,1.688-9.963-9.252-10.106
							c-10.503-0.136-21.771,2.161-29.021,6.993c-9.964,6.641-10.78,7.967-7.462,16.467
							C578.129,47.457,632.924,57.56,649.956,54.372z"/>
						<path fill="#8E3925" d="M622.684,52.863c0.31,9.667,1.029,12.751,1.775,14.601c1.33,3.29,3.564,1.971,3.94-0.206
							c0.49-2.854,1.873-7.128,8.507-9.048c0.744-0.216-14.313-9.05-14.313-9.05L622.684,52.863z"/>
						
							<line fill="none" stroke="#8E3925" stroke-width="3.6311" stroke-linecap="round" stroke-miterlimit="10" x1="609.302" y1="57.728" x2="593.534" y2="56.083"/>
						
							<line fill="none" stroke="#8E3925" stroke-width="3.6311" stroke-linecap="round" stroke-miterlimit="10" x1="561.105" y1="58.839" x2="574.436" y2="57.606"/>
						<path fill="#8E3925" d="M600.144,27.499c6.358,10.146-2.798,19.768,9.455,22.651c10.276,2.417,12.263,4.359,13.907,13.202
							c1.146,6.165,12.957-11.105,12.957-11.105s2.931-13.78,0.72-14.876c-2.21-1.097-19.071-4.114-20.731-4.936
							C614.793,31.612,600.144,27.499,600.144,27.499z"/>
						<path fill="#F58D6C" d="M586.745,110.105c2.196,0,3.357-0.229,4.965-0.552c1.608-0.323,2.456,1.04,0.996,2.018
							c-1.675,1.122-3.682,1.704-6.173,1.496c-1.371-0.114-2.556-0.519-3.579-1.126c-1.554-0.922-1.399-2.773,0.015-2.407
							C583.908,109.778,585.545,110.105,586.745,110.105z"/>
						<g>
							<path fill="#F58D6C" d="M582.321,87.06c-3.767-0.023-6.969-2.656-6.804-5.315c0.061-0.968,0.849-2.13,2.326-1.267
								c0.678,0.396,2.507,0.868,4.453,0.868s2.999-0.472,4.099-0.868c2.396-0.863,3.151,0.297,3.212,1.267
								C589.775,84.403,586.085,87.037,582.321,87.06z"/>
						</g>
						<ellipse fill="#422B27" cx="600.18" cy="68.944" rx="3.291" ry="3.265"/>
						<path opacity="0.8" fill="none" stroke="#472736" stroke-width="2.9473" stroke-linecap="round" stroke-miterlimit="10" d="
							M565.704,66.241c0,0,2.717-1.153,5.203-1.153c3.524,0,5.545,1.359,5.545,1.359"/>
					</g>
					<path fill="#F58D6C" d="M627.801,68.788c-0.509,6.226,3.147,11.602,8.169,12.006c5.021,0.404,9.504-4.314,10.015-10.542
						c0.509-6.227-2.29-11.095-7.263-11.896C633.749,57.554,628.312,62.56,627.801,68.788z"/>
					<path fill="#FFFFFF" d="M638.12,78.125c-0.133,1.605,0.809,2.99,2.104,3.094c1.294,0.104,2.448-1.113,2.581-2.717
						c0.131-1.605-0.589-2.86-1.87-3.066C639.652,75.229,638.249,76.52,638.12,78.125z"/>
					<g>
						<path fill="#F58D6C" d="M640.691,72.969c-1.584,4.236-5.377,5.892-8.049,5.019c-3.448-1.127,1.587-16.64,5.813-15.352
							C642.368,63.826,642.308,68.726,640.691,72.969z"/>
					</g>
				</g>
				<path opacity="0.8" fill="none" stroke="#472736" stroke-width="2.9473" stroke-linecap="round" stroke-miterlimit="10" d="
					M596.31,65.411c0,0,2.758-0.884,5.19-0.638c3.444,0.349,6.518,2.029,6.518,2.029"/>
			</g>
		</g>
		<g>
			<rect x="469.133" y="337.603" fill="#F48967" width="59.732" height="49.28"/>
			<path fill="#F48967" d="M431.447,425.516c3.065-15.54,11.025-43.974,18.648-74.315c2.583-10.279,12.439-9.588,13.257-19.81
				l28.749-1.545c-6.868,11.504-11.185,19.642-11.185,19.642s3.929,11.397,5.396,28.242l0.016,0.004
				c1.632,18.517,0.31,43.604-12.421,67.359c-24.302,45.389-49.766,78.865-49.766,78.865l-18.805,2.956
				C405.336,526.914,424.265,461.729,431.447,425.516z"/>
			<path fill="#DB463B" d="M424.946,545.396c6.126,7.041,5.964,3.866,6.103,8.214c0.106,3.308,0.401,5.264-0.234,9.543
				c-1.821,12.251-5.104,26.395-5.527,26.761c-0.971,0.841-2.882,1.485-5.042,0.352c-2.331-1.224-3.201-23.872-3.174-23.48"/>
			<path fill="#DB463B" d="M402.259,587.566c-12.309,8.281-33.1,11.214-40.26,8.568c-6.884-2.41,5.725-16.103,19.943-29.191
				c15.669-14.837,29.43-26.179,39.427-24.292c2.113,0.392,6.401-0.325,8.215,4.077c1.973,4.795,4.422,12.23,0.042,20.057
				C428.416,568.945,421.525,574.606,402.259,587.566z"/>
			<path fill="#F48967" d="M405.336,526.914c-11.792,42.849-34.19,46.389-27.281,48.995c6.91,2.609,19.294,0.393,32.566-10.821
				c13.27-11.215,16.072-13.66,15.785-17.996c-0.137-2.085-4.335-15.707,7.035-39.615c1.443-3.032-16.371,9.57-16.371,9.57
				S406.153,523.945,405.336,526.914z"/>
		</g>
		<g>
			<g>
				<path fill="#ED5B48" d="M506.354,545.396c6.124,7.041,5.963,3.866,6.103,8.214c0.104,3.308,0.401,5.264-0.236,9.543
					c-1.818,12.251-5.103,26.395-5.525,26.761c-0.972,0.841-2.881,1.485-5.043,0.352c-2.331-1.224-3.199-23.872-3.174-23.48"/>
				<path fill="#ED5B48" d="M483.665,587.566c-12.309,8.281-33.101,11.214-40.26,8.568c-6.885-2.41,5.725-16.103,19.942-29.191
					c15.67-14.837,29.43-26.179,39.428-24.292c2.113,0.392,6.402-0.325,8.214,4.077c1.975,4.795,4.422,12.23,0.042,20.057
					C509.822,568.945,502.933,574.606,483.665,587.566z"/>
				<path fill="#FFB287" d="M486.006,533.817c-0.888,19.366-33.454,39.485-26.543,42.092c6.908,2.609,19.294,0.393,32.563-10.821
					c13.271-11.215,16.074-13.66,15.786-17.996c-0.139-2.085-3.69-7.211-2.173-13.57c0.779-3.269-6.286,5.878-6.286,5.878
					S486.145,530.74,486.006,533.817z"/>
				<path fill="#FFB287" d="M494.496,450.469c0.503-15.834-0.857-43.875-2.879-72.688c-0.73-10.571-1.564-21.252-2.415-31.469
					l48.615,0.078c-4.912,12.467-7.853,21.195-7.853,21.195s5.728,10.612,9.906,26.996h0.017c4.613,18.008,7.379,42.98-1.329,68.488
					c-16.614,48.729-36.835,84.633-36.835,84.633l-18.076,5.966C483.648,553.669,493.286,487.369,494.496,450.469z"/>
			</g>
		</g>
		<path fill="#281E28" d="M527.119,321.773c-23.821,0-9.488-0.389-33.623-0.389c-20.796,0-35.061,1.721-43.395,29.16
			c-0.221,0.723,14.987-18.007,32.54-4.232c22.313,17.511,39.859,41.324,62.089,41.324c0,0,36.782,0,60.034,0
			c23.253,0,65.084,6.359,50.735-55.956c-8.986-39.017-17.643-20.989-25.434-21.275c-12.986-0.479-66.606-29.808-72.58,11.368
			H527.119z"/>
		<path fill="#E5785C" d="M597.331,97.225c-6.401,2.021-13.134,1.399-19.629,0.154c-1.561-0.298-2.228,2.089-0.657,2.39
			c6.92,1.326,14.12,1.999,20.945-0.155C599.507,99.135,598.86,96.743,597.331,97.225z"/>
		<ellipse fill="#422B27" cx="570.298" cy="68.944" rx="3.291" ry="3.265"/>
		<path fill="#F58D6C" d="M444.234,283.036c-3.563,0,1.492,6.849-1.255,6.268c-10.343-2.193-13.053,7.19-13.053,9.539
			c0,6.285-4.149,10.423-9.288,7.934c-0.892-0.431-0.671-5.317-1.706-5.317c-9.25,0-8.38-8.378-7.846-12.155
			c1.445-10.247,4.594-18.429,28.288-18.429C460.14,270.875,444.234,283.036,444.234,283.036z"/>
		<path fill="#F1F1F3" d="M459.716,270.786c1.234,0.018,4.713,4.11,4.71,9.142c-0.002,5.031-3.484,9.095-4.718,9.078l-15.779,0.174
			l-0.47-18.128L459.716,270.786z"/>
		<path fill="#F58D6C" d="M448.666,289.304c-9.405,0-11.614,0-17.989,0s-11.56,0.692-11.56-5.341
			c0-6.032,3.409-13.146,17.717-13.146c14.309,0,3.984,0,11.832,0C456.512,270.817,458.07,289.304,448.666,289.304z"/>
		<path fill="none" stroke="#F58D6C" stroke-width="7.2622" stroke-linecap="round" stroke-miterlimit="10" d="M450.731,278.129
			c0,3.303-0.414,7.742-2.789,7.742c-2.375,0-3.479,2.156-10.81,10.624"/>
	</g>
</g>
<rect x="730.991" y="305.326" fill="#B7BEBC" width="15.021" height="287.782"/>
<rect x="611.683" y="305.326" fill="#B7BEBC" width="15.031" height="287.782"/>
<rect x="233.61" y="307.475" fill="#7F8593" width="15.021" height="285.634"/>
<rect x="115.45" y="307.475" fill="#B7BEBC" width="15.019" height="285.634"/>
<path opacity="0.4" fill="#754559" d="M662.948,259.172c0.331,0.296,0.533,0.49,0.604,0.558
	C663.404,259.536,663.199,259.343,662.948,259.172z"/>
<path opacity="0.4" fill="#754559" d="M639.484,255.725l-0.898-0.034C638.847,255.714,639.143,255.725,639.484,255.725z"/>
<g>
	<path fill="#A0A6BA" d="M432.942,276.173c0.272,2.442-1.518,4.442-3.977,4.442H309.354c-2.459,0-4.692-2-4.964-4.442
		l-12.72-114.375c-0.272-2.444,1.518-4.442,3.976-4.442h119.612c2.458,0,4.693,1.999,4.965,4.443L432.942,276.173z"/>
	<path fill="#81889B" d="M439.128,289.998c0,2.458-2.012,4.469-4.47,4.469H313.782c-2.459,0-4.47-2.011-4.47-4.469v-4.912
		c0-2.459,2.011-4.47,4.47-4.47h120.876c2.458,0,4.47,2.011,4.47,4.47V289.998z"/>
	<path fill="#CDD3E0" d="M504.304,289.998c0,2.458-2.014,4.469-4.471,4.469h-63.264c-2.459,0-4.47-2.011-4.47-4.469v-4.912
		c0-2.459,2.011-4.47,4.47-4.47h63.264c2.457,0,4.471,2.011,4.471,4.47V289.998z"/>
	<g opacity="0.7">
		<path fill="#3B2D3C" d="M469.821,288.357c0,0.816-0.669,1.484-1.485,1.484h-5.299c-0.815,0-1.484-0.667-1.484-1.484v-1.633
			c0-0.815,0.669-1.483,1.484-1.483h5.299c0.816,0,1.485,0.668,1.485,1.483V288.357z"/>
	</g>
	<path fill="#CDD3E0" d="M434.28,277.434c0.189,1.75-0.992,3.182-2.625,3.182c-1.635,0-3.126-1.431-3.318-3.182l-3.716-34.122
		c-0.19-1.75-0.502-4.615-0.692-6.365l-3.407-31.376c-0.19-1.75-0.399-3.672-0.464-4.271c-0.065-0.598-0.276-2.52-0.467-4.269
		l-1.168-10.697c-0.192-1.75-0.502-4.614-0.692-6.364l-2.11-19.428c-0.191-1.75,0.99-3.182,2.625-3.182
		c1.635,0,3.125,1.432,3.314,3.183l0.476,4.407c0.19,1.75,0.399,3.703,0.471,4.337c0.069,0.636,0.282,2.588,0.472,4.337
		l1.872,17.223c0.19,1.75,0.432,3.99,0.538,4.977c0.107,0.988,0.35,3.228,0.542,4.977l3.268,29.962
		c0.192,1.75,0.504,4.614,0.695,6.364L434.28,277.434z"/>
	<g opacity="0.4">
		<path fill="#754559" d="M452.641,290.313c0,0.816-0.669,1.485-1.486,1.485h-6.784c-0.817,0-1.485-0.669-1.485-1.485v-1.632
			c0-0.816,0.67-1.484,1.485-1.484h6.784c0.817,0,1.486,0.668,1.486,1.484V290.313z"/>
	</g>
	<g opacity="0.7">
		<path fill="#3B2D3C" d="M452.641,288.357c0,0.816-0.669,1.484-1.486,1.484h-5.296c-0.818,0-1.487-0.667-1.487-1.484v-1.633
			c0-0.815,0.669-1.483,1.487-1.483h5.296c0.817,0,1.486,0.668,1.486,1.483V288.357z"/>
	</g>
	<g opacity="0.7">
		<path fill="#3B2D3C" d="M451.155,288.357c0,0.816-0.669,1.484-1.486,1.484h-5.298c-0.815,0-1.485-0.667-1.485-1.484v-1.633
			c0-0.815,0.67-1.483,1.485-1.483h5.298c0.816,0,1.486,0.668,1.486,1.483V288.357z"/>
	</g>
	<path fill="#DEDEE2" d="M452.104,288.357c0,0.816-0.668,1.484-1.485,1.484h-5.297c-0.816,0-1.486-0.667-1.486-1.484v-1.633
		c0-0.815,0.669-1.483,1.486-1.483h5.297c0.817,0,1.485,0.668,1.485,1.483V288.357z"/>
	<path fill="#FFFFFF" d="M454.752,288.357c-0.001,0.816-0.669,1.484-1.486,1.484h-5.297c-0.817,0-1.485-0.667-1.485-1.484v-1.633
		c0-0.815,0.668-1.483,1.485-1.483h5.297c0.817,0,1.486,0.668,1.486,1.483V288.357z"/>
	<polygon opacity="0.5" fill="#FFFFFF" points="432.306,262.159 427.026,268.263 424.949,249.176 430.207,242.992 	"/>
	<path fill="#FFFFFF" d="M370.285,221.674c0.796,6.286-3.651,11.379-9.936,11.379c-6.284,0-12.024-5.094-12.821-11.379
		c-0.796-6.283,3.653-11.377,9.936-11.377C363.749,210.296,369.488,215.391,370.285,221.674z"/>
</g>
<rect x="115.45" y="299.51" opacity="0.74" fill="#3A4960" width="15.019" height="26.091"/>
<rect x="233.61" y="297.359" opacity="0.56" fill="#3A4960" width="15.021" height="26.093"/>
<rect x="611.683" y="297.359" opacity="0.74" fill="#3A4960" width="15.031" height="28.242"/>
<rect x="730.991" y="297.359" opacity="0.56" fill="#3A4960" width="15.021" height="28.242"/>
<g>
	<g>
		<polygon fill-rule="evenodd" clip-rule="evenodd" fill="#EDDFBC" points="720.242,251.231 720.148,252.455 719.898,255.719 
			719.587,259.816 717.578,286.083 716.924,294.699 690.204,294.699 690.154,294.075 689.756,289.697 689.602,287.937 
			689.438,286.083 694.246,283.356 695.336,280.525 693.158,275.516 687.118,259.816 686.765,255.719 686.472,252.455 
			686.325,250.819 		"/>
		<rect x="687.983" y="241.997" fill-rule="evenodd" clip-rule="evenodd" fill="#EDDFBC" width="30.604" height="3"/>
		<path fill-rule="evenodd" clip-rule="evenodd" fill="#F2E9D1" d="M722.088,244.997v7.461h-37.606v-7.461H722.088z"/>
		<polygon fill-rule="evenodd" clip-rule="evenodd" fill="#EA4B4B" points="719.587,259.814 717.58,286.086 689.438,286.086 
			687.12,259.814 		"/>
	</g>
	<path fill-rule="evenodd" clip-rule="evenodd" fill="#B2A88D" d="M686.474,252.457l0.208,2.392h33.284l0.183-2.392H686.474z"/>
	<polygon opacity="0.4" fill-rule="evenodd" clip-rule="evenodd" fill="#8271A8" points="718.587,244.996 718.587,241.998 
		712.003,241.998 712.003,244.996 714.496,244.996 714.496,252.457 713.114,252.457 712.985,254.849 712.936,255.72 
		712.714,259.814 711.285,286.086 710.816,294.699 716.923,294.699 717.58,286.086 719.587,259.814 719.9,255.72 719.966,254.849 
		720.149,252.457 722.089,252.457 722.089,244.996 	"/>
	<g>
		<polygon fill-rule="evenodd" clip-rule="evenodd" fill="#FFFFFF" points="692.977,241.997 692.977,244.997 696.178,244.997 
			703.283,244.997 703.283,241.997 		"/>
		<polygon opacity="0.6" fill-rule="evenodd" clip-rule="evenodd" fill="#FFFFFF" points="692.977,244.997 691.038,244.997 
			691.038,252.457 696.178,252.457 696.178,244.997 		"/>
		<polygon opacity="0.4" fill-rule="evenodd" clip-rule="evenodd" fill="#FFFFFF" points="697.64,259.814 697.44,255.72 
			697.399,254.849 697.397,254.849 692.259,254.849 692.3,255.72 692.501,259.814 693.784,286.086 694.207,294.699 699.348,294.699 
			698.925,286.086 		"/>
	</g>
</g>
<g>
	<rect x="640.263" y="293.76" fill="#E58E4C" width="144.146" height="22.022"/>
	<rect x="83.243" y="293.765" fill="#9E5941" width="560.076" height="22.02"/>
</g>
</svg>
