<?xml version="1.0" encoding="utf-8"?>
<!-- Generator: Adobe Illustrator 16.0.0, SVG Export Plug-In . SVG Version: 6.00 Build 0)  -->
<!DOCTYPE svg PUBLIC "-//W3C//DTD SVG 1.1//EN" "http://www.w3.org/Graphics/SVG/1.1/DTD/svg11.dtd">
<svg version="1.1" id="Layer_1" xmlns="http://www.w3.org/2000/svg" xmlns:xlink="http://www.w3.org/1999/xlink" x="0px" y="0px"
	 width="900px" height="600px" viewBox="0 0 900 600" enable-background="new 0 0 900 600" xml:space="preserve">
<g>
	<g>
		<g>
			<g>
				<defs>
					<path id="SVGID_1_" d="M507.527,550.55c3.754-63.099,2.742-121.436-2.174-133.251c-5.042-7.336-35.314-25.383-65.128-38.759
						l16.755-37.375c20.925,9.378,70.984,33.574,83.863,55.665c5.438,9.324,10.652,27.533,8.105,91.873
						c-1.334,33.7-2.979,60.1-2.979,60.1L507.527,550.55z"/>
				</defs>
				<clipPath id="SVGID_2_">
					<use xlink:href="#SVGID_1_"  overflow="visible"/>
				</clipPath>
			</g>
		</g>
		<g>
			<g>
				<defs>
					<path id="SVGID_3_" d="M507.527,550.55c3.754-63.099,2.742-121.436-2.174-133.251c-5.042-7.336-35.314-25.383-65.128-38.759
						l16.755-37.375c20.925,9.378,70.984,33.574,83.863,55.665c5.438,9.324,10.652,27.533,8.105,91.873
						c-1.334,33.7-2.979,60.1-2.979,60.1L507.527,550.55z"/>
				</defs>
				<clipPath id="SVGID_4_">
					<use xlink:href="#SVGID_3_"  overflow="visible"/>
				</clipPath>
			</g>
		</g>
		<g>
			<g>
				<defs>
					<path id="SVGID_5_" d="M507.527,550.55c3.754-63.099,2.742-121.436-2.174-133.251c-5.042-7.336-35.314-25.383-65.128-38.759
						l16.755-37.375c20.925,9.378,70.984,33.574,83.863,55.665c5.438,9.324,10.652,27.533,8.105,91.873
						c-1.334,33.7-2.979,60.1-2.979,60.1L507.527,550.55z"/>
				</defs>
				<clipPath id="SVGID_6_">
					<use xlink:href="#SVGID_5_"  overflow="visible"/>
				</clipPath>
			</g>
		</g>
	</g>
	<g>
		<g>
			<g>
				<defs>
					<path id="SVGID_7_" d="M507.527,550.55c3.754-63.099,2.742-121.436-2.174-133.251c-5.042-7.336-35.314-25.383-65.128-38.759
						l16.755-37.375c20.925,9.378,70.984,33.574,83.863,55.665c5.438,9.324,10.652,27.533,8.105,91.873
						c-1.334,33.7-2.979,60.1-2.979,60.1L507.527,550.55z"/>
				</defs>
				<clipPath id="SVGID_8_">
					<use xlink:href="#SVGID_7_"  overflow="visible"/>
				</clipPath>
			</g>
		</g>
		<g>
			<path fill="#968EAB" d="M826.861,601.066H81.227c-5.879,0-10.686-4.808-10.686-10.686l0,0c0-5.877,4.807-10.687,10.686-10.687
				h745.633c5.878,0,10.686,4.81,10.686,10.687l0,0C837.546,596.259,832.739,601.066,826.861,601.066z"/>
			<g>
				<g>
					<g>
						<path fill="#0E254A" d="M660.806,156.546L660.806,156.546c-5.295-5.647-4.837-14.361,1.023-19.462l0.664-0.578
							c5.86-5.102,14.903-4.66,20.198,0.987l0,0c5.295,5.647,4.837,14.361-1.024,19.462l-0.663,0.577
							C675.143,162.634,666.1,162.193,660.806,156.546z"/>
						<path fill="#F66438" d="M672.049,183.95l-13.925,12.124l-39.547-42.174l13.926-12.125c9.65-8.4,23.492-9.517,34.233-3.687
							c2.715,1.468,5.225,3.374,7.427,5.723c5.455,5.818,7.951,13.22,7.579,20.492C681.349,171.573,678.089,178.693,672.049,183.95z
							"/>
						<path fill="#FFAC3D" d="M659.467,170.53l-13.927,12.125l-26.963-28.755l13.926-12.125c9.65-8.4,23.492-9.517,34.233-3.687
							c1.847,4.068,2.65,8.452,2.423,12.795C668.766,158.153,665.506,165.274,659.467,170.53z"/>
					</g>
					<path fill="#323966" d="M658.844,195.913c-4.202,3.751-16.618-2.517-27.733-14.025c-11.114-11.51-16.731-23.885-12.523-27.647
						c3.313-2.974,11.772,0.325,20.671,7.526c2.343,1.914,4.732,4.089,7.05,6.493c2.71,2.81,5.099,5.668,7.091,8.443
						C659.587,185.293,662.019,193.07,658.844,195.913z"/>
					<path fill="#FFFFFF" d="M653.399,176.702c-3.218,3.546-8.692,4.557-13.128,2.143c-5.065-2.758-6.859-8.971-3.991-13.863
						c0.766-1.306,1.788-2.396,2.979-3.217c2.343,1.914,4.732,4.089,7.05,6.493C649.018,171.068,651.406,173.927,653.399,176.702z"
						/>
				</g>
				<polyline fill="none" stroke="#0E254A" stroke-width="5.2291" stroke-miterlimit="10" points="731.141,292.934 767.244,176.399 
					694.137,127.699 678.793,140.744 				"/>
				<g>
					<ellipse fill="#0E254A" cx="693.176" cy="128.392" rx="8.989" ry="8.661"/>
					<ellipse fill="#323966" cx="693.176" cy="128.392" rx="4.495" ry="4.33"/>
				</g>
				<path fill="#FFAC3D" d="M767.485,307.697h-93.006l0,0c0-10.205,8.272-18.478,18.478-18.478h56.051
					C759.212,289.22,767.485,297.492,767.485,307.697L767.485,307.697z"/>
				<rect x="693.656" y="284.599" fill="#0E254A" width="16.779" height="5.081"/>
				<g>
					<ellipse fill="#0E254A" cx="766.526" cy="177.588" rx="12.585" ry="12.125"/>
					<ellipse fill="#323966" cx="766.526" cy="177.588" rx="6.292" ry="6.062"/>
				</g>
			</g>
			<g>
				<g>
					<path fill="#5E1F3F" d="M820.313,280.659h-85.305v-29.512h85.305c3.605,0,6.529,2.923,6.529,6.529v16.454
						C826.842,277.736,823.918,280.659,820.313,280.659z"/>
					<path fill="#5E1F3F" d="M789.248,280.659h-85.305v-29.512h85.305c3.606,0,6.529,2.923,6.529,6.529v16.454
						C795.778,277.736,792.855,280.659,789.248,280.659z"/>
					<path fill="#E8EAEC" d="M785.027,276.604h-81.083v-22.513h81.083c3.09,0,5.594,2.503,5.594,5.593v11.328
						C790.62,274.099,788.116,276.604,785.027,276.604z"/>
					<rect x="802.185" y="262.797" fill="#FFFFFF" width="19.414" height="2.136"/>
					<rect x="802.185" y="267.371" fill="#FFFFFF" width="19.414" height="2.137"/>
				</g>
				<g>
					<path fill="#5E1F3F" d="M834.152,228.434h-85.305v-29.511h85.305c3.607,0,6.53,2.922,6.53,6.528v16.454
						C840.682,225.511,837.759,228.434,834.152,228.434z"/>
					<path fill="#5E1F3F" d="M803.087,228.434h-85.305v-29.511h85.305c3.606,0,6.529,2.922,6.529,6.528v16.454
						C809.616,225.511,806.694,228.434,803.087,228.434z"/>
					<path fill="#E8EAEC" d="M799.947,225.46h-82.164v-23.594h82.164c3.09,0,5.593,2.503,5.593,5.593v12.408
						C805.539,222.955,803.036,225.46,799.947,225.46z"/>
					<rect x="813.711" y="208.242" fill="#E8EAEC" width="23.75" height="10.484"/>
					<rect x="816.024" y="210.572" fill="#0E254A" width="19.415" height="2.135"/>
					<rect x="816.024" y="214.067" fill="#0E254A" width="19.415" height="2.135"/>
				</g>
				<g>
					<path fill="#0E254A" d="M826.526,308.616h-85.305v-29.511h85.305c3.605,0,6.529,2.924,6.529,6.529v16.453
						C833.055,305.693,830.131,308.616,826.526,308.616z"/>
					<path fill="#0E254A" d="M795.461,308.616h-85.305v-29.511h85.305c3.606,0,6.529,2.924,6.529,6.529v16.453
						C801.99,305.693,799.068,308.616,795.461,308.616z"/>
					<path fill="#E8EAEC" d="M791.241,304.563h-81.085v-21.435h81.085c3.088,0,5.593,2.505,5.593,5.593v10.248
						C796.834,302.058,794.329,304.563,791.241,304.563z"/>
					<rect x="806.085" y="288.424" fill="#E8EAEC" width="23.75" height="10.484"/>
					<rect x="808.398" y="290.754" fill="#0E254A" width="19.415" height="2.137"/>
					<rect x="808.398" y="294.249" fill="#0E254A" width="19.415" height="2.137"/>
				</g>
				<g>
					<path fill="#D04234" d="M723.874,228.221v22.949h98.026c6.334,0,11.475-5.14,11.475-11.474c0-3.161-1.284-6.033-3.356-8.117
						c-2.086-2.073-4.957-3.357-8.118-3.357H723.874z"/>
					<path fill="#FA7C50" d="M712.485,228.221v22.949h82.494c6.334,0,11.475-5.14,11.475-11.474c0-3.161-1.285-6.033-3.357-8.117
						c-2.085-2.073-4.957-3.357-8.117-3.357H712.485z"/>
					<path fill="#E8EAEC" d="M712.485,232.154v14.713h79.399c4.066,0,7.356-3.292,7.356-7.356c0-2.034-0.825-3.869-2.15-5.207
						c-1.337-1.324-3.173-2.15-5.206-2.15H712.485z"/>
				</g>
				<g>
					
						<line fill="none" stroke="#968EAB" stroke-width="1.4382" stroke-miterlimit="10" x1="717.775" y1="205.327" x2="802.693" y2="205.327"/>
					
						<line fill="none" stroke="#968EAB" stroke-width="1.4382" stroke-miterlimit="10" x1="717.775" y1="210.246" x2="802.693" y2="210.246"/>
					
						<line fill="none" stroke="#968EAB" stroke-width="1.4382" stroke-miterlimit="10" x1="717.775" y1="215.165" x2="802.693" y2="215.165"/>
					
						<line fill="none" stroke="#968EAB" stroke-width="1.4382" stroke-miterlimit="10" x1="717.775" y1="220.083" x2="802.693" y2="220.083"/>
				</g>
				<g>
					
						<line fill="none" stroke="#968EAB" stroke-width="1.4382" stroke-miterlimit="10" x1="703.88" y1="258.396" x2="789.307" y2="258.396"/>
					
						<line fill="none" stroke="#968EAB" stroke-width="1.4382" stroke-miterlimit="10" x1="703.88" y1="263.314" x2="789.307" y2="263.314"/>
					
						<line fill="none" stroke="#968EAB" stroke-width="1.4382" stroke-miterlimit="10" x1="703.88" y1="268.233" x2="789.307" y2="268.233"/>
					
						<line fill="none" stroke="#968EAB" stroke-width="1.4382" stroke-miterlimit="10" x1="703.88" y1="273.151" x2="789.307" y2="273.151"/>
				</g>
				<g>
					
						<line fill="none" stroke="#968EAB" stroke-width="1.4382" stroke-miterlimit="10" x1="710.351" y1="286.612" x2="795.778" y2="286.612"/>
					
						<line fill="none" stroke="#968EAB" stroke-width="1.4382" stroke-miterlimit="10" x1="710.351" y1="291.531" x2="795.778" y2="291.531"/>
					
						<line fill="none" stroke="#968EAB" stroke-width="1.4382" stroke-miterlimit="10" x1="710.351" y1="295.369" x2="795.778" y2="295.369"/>
					
						<line fill="none" stroke="#968EAB" stroke-width="1.4382" stroke-miterlimit="10" x1="710.351" y1="300.288" x2="795.778" y2="300.288"/>
				</g>
			</g>
			<rect x="229.631" y="332.129" fill="#122F51" width="24.852" height="269.224"/>
			<g>
				<path fill="#65354D" d="M488.5,410.308l-148.333,11.131l-41.159-208.906l99.631-0.35c27.914-0.098,52.064,19.409,57.84,46.718
					L488.5,410.308z"/>
				<path fill="#D04234" d="M310.002,411.666l-24.672-182.803c-1.1-8.146,4.664-15.707,12.809-16.807l0,0
					c8.143-1.099,15.706,4.665,16.805,12.81l24.674,182.803c1.1,8.144-4.665,15.706-12.809,16.806l0,0
					C318.665,425.573,311.101,419.81,310.002,411.666z"/>
				<g>
					<g>
						<rect x="394.499" y="436.708" fill="#4E567A" width="17.382" height="102.512"/>
						<path fill="#0E254A" d="M411.881,442.673v23.169l-17.382-6.727v-15.684C398.849,443.226,407.22,442.878,411.881,442.673z"/>
					</g>
					<path fill="#283154" d="M443.457,444.996h-77.661c-4.272,0-7.766-3.495-7.766-7.767l0,0c0-4.271,3.494-7.766,7.766-7.766
						h77.661c4.271,0,7.765,3.494,7.765,7.766l0,0C451.222,441.501,447.729,444.996,443.457,444.996z"/>
					<path fill="#65354D" d="M481.465,435.677h-89.262c-10.679,0-19.418-8.738-19.418-19.418l0,0
						c0-10.68,8.739-19.419,19.418-19.419h89.262c10.68,0,19.419,8.739,19.419,19.419l0,0
						C500.884,426.938,492.145,435.677,481.465,435.677z"/>
					<path fill="#D04234" d="M403.028,436.194h-71.399c-10.681,0-19.419-8.738-19.419-19.419l0,0
						c0-10.679,8.738-19.418,19.419-19.418h71.399c10.679,0,19.418,8.739,19.418,19.418l0,0
						C422.446,427.456,413.707,436.194,403.028,436.194z"/>
					<g>
						<g>
							<path fill="#0E254A" d="M476.852,573.396h-10.873c0-12.99-10.568-23.557-23.558-23.557h-79.214
								c-12.988,0-23.557,10.566-23.557,23.557h-10.872c0-18.984,15.445-34.43,34.429-34.43h79.214
								C461.406,538.966,476.852,554.411,476.852,573.396z"/>
						</g>
						<rect x="390.39" y="522.657" fill="#0E254A" width="25.367" height="16.567"/>
					</g>
					<g>
						<circle fill="#0E254A" cx="333.799" cy="583.908" r="9.031"/>
						<path fill="#323966" d="M346.824,583.111h-24.716v-2.743c0-6.564,5.32-11.886,11.884-11.886h0.947
							c6.563,0,11.884,5.321,11.884,11.886V583.111z"/>
						<circle fill="#0E254A" cx="471.926" cy="583.908" r="9.031"/>
						<path fill="#323966" d="M484.948,583.111h-24.716v-2.743c0-6.564,5.32-11.886,11.885-11.886h0.947
							c6.563,0,11.884,5.321,11.884,11.886V583.111z"/>
					</g>
					<rect x="396.39" y="542.331" fill="#0E254A" width="14.39" height="32.617"/>
					<g>
						<circle fill="#0E254A" cx="403.889" cy="583.908" r="9.032"/>
						<path fill="#323966" d="M416.912,583.111h-24.716v-2.743c0-6.564,5.321-11.886,11.884-11.886h0.947
							c6.564,0,11.885,5.321,11.885,11.886V583.111z"/>
					</g>
				</g>
			</g>
			<g>
				<g>
					<g>
						<g>
							<path fill="#FFA280" d="M586.83,269.514l24.636,7.062c1.799,0.516,3.693-0.533,4.209-2.333l0,0
								c0.516-1.799-0.533-3.693-2.333-4.209l-24.636-7.063c-1.8-0.516-3.694,0.534-4.209,2.333l0,0
								C583.982,267.103,585.032,268.997,586.83,269.514z"/>
							<path fill="#FFA280" d="M593.623,277.675l19.78,5.669c1.799,0.516,3.693-0.534,4.209-2.333l0,0
								c0.516-1.799-0.535-3.693-2.333-4.209l-19.781-5.67c-1.799-0.516-3.692,0.534-4.208,2.333l0,0
								C590.774,275.264,591.823,277.158,593.623,277.675z"/>
							<path fill="#FFA280" d="M588.001,282.267l23.413,6.712c1.799,0.516,3.692-0.534,4.209-2.333l0,0
								c0.516-1.8-0.535-3.693-2.334-4.209l-23.412-6.712c-1.8-0.516-3.694,0.534-4.21,2.333l0,0
								C585.153,279.857,586.201,281.752,588.001,282.267z"/>
							<path fill="#FFA280" d="M568.473,284.002l25.134,5.009c1.835,0.365,3.636-0.837,4.003-2.672l0,0
								c0.365-1.835-0.838-3.637-2.673-4.002l-25.134-5.01c-1.835-0.366-3.637,0.837-4.002,2.673l0,0
								C565.434,281.835,566.638,283.636,568.473,284.002z"/>
						</g>
						<path fill="#FFA280" d="M605.573,275.619c-0.259-0.086-3.053-1.439-6.074-2.916c-5.219-2.55-10.973-3.82-16.78-3.707
							l-11.122,0.216c0,0-2.136,18.445-1.358,18.25c0.775-0.194,24.464,4.077,24.464,4.077L605.573,275.619z"/>
					</g>
					<rect x="564.866" y="267.395" fill="#E8EAEC" width="10.614" height="28.437"/>
				</g>
				<g>
					<path fill="#968EAB" d="M510.98,573.471l64.645-2.429c3.854-0.146,6.862-3.388,6.719-7.243l0,0
						c-0.113-2.968-2.09-5.542-4.929-6.413l-32.404-9.956l-34.928,2.167L510.98,573.471z"/>
					<path fill="#0E254A" d="M576.988,572.788l-65.422,2.946l-0.211-4.689l70.109-3.155l0,0
						C581.58,570.479,579.577,572.672,576.988,572.788z"/>
				</g>
				<g>
					
						<line fill="none" stroke="#0E254A" stroke-width="1.4382" stroke-linecap="round" stroke-miterlimit="10" x1="544.645" y1="556.915" x2="551.869" y2="548.463"/>
					
						<line fill="none" stroke="#0E254A" stroke-width="1.4382" stroke-linecap="round" stroke-miterlimit="10" x1="550.311" y1="559.011" x2="557.534" y2="550.558"/>
					
						<line fill="none" stroke="#0E254A" stroke-width="1.4382" stroke-linecap="round" stroke-miterlimit="10" x1="555.776" y1="561.909" x2="563.906" y2="552.328"/>
				</g>
				<g>
					<defs>
						<path id="SVGID_9_" d="M507.527,550.55c3.754-63.099,2.742-121.436-2.174-133.251c-5.042-7.336-35.314-25.383-65.128-38.759
							l16.755-37.375c20.925,9.378,70.984,33.574,83.863,55.665c5.438,9.324,10.652,27.533,8.105,91.873
							c-1.334,33.7-2.979,60.1-2.979,60.1L507.527,550.55z"/>
					</defs>
					<clipPath id="SVGID_10_">
						<use xlink:href="#SVGID_9_"  overflow="visible"/>
					</clipPath>
					<g clip-path="url(#SVGID_10_)">
						<path fill="#0E254A" d="M507.527,550.55c3.754-63.099,2.742-121.436-2.174-133.251c-5.042-7.336-35.314-25.383-65.128-38.759
							l16.755-37.375c20.925,9.378,70.984,33.574,83.863,55.665c5.438,9.324,10.652,27.533,8.105,91.873
							c-1.334,33.7-2.979,60.1-2.979,60.1L507.527,550.55z"/>
					</g>
					<path clip-path="url(#SVGID_10_)" fill="#0E254A" d="M434.656,357.498c0,0,76.106,27.44,84.909,49.186
						c8.802,21.744,5.694,143.413,5.694,143.413l-25.369,1.036l-84.391-197.776L434.656,357.498z"/>
				</g>
				<path fill="none" stroke="#0C203A" stroke-width="31.6413" stroke-miterlimit="10" d="M448.857,178.628l32.561,83.224
					c5.729,12.396,18.195,20.282,31.851,20.146l55.999-0.555"/>
				<path fill="#FFA280" d="M418.907,154.209h-7.732c-7.097,0-12.902-5.806-12.902-12.901v-36.354
					c0-7.096,5.806-12.901,12.902-12.901h7.732c7.096,0,12.9,5.805,12.9,12.901v36.354
					C431.807,148.403,426.003,154.209,418.907,154.209z"/>
				<path fill="#613241" d="M484.449,59.731c-0.058,0.817-0.132,1.632-0.223,2.448c-0.46,3.922-1.314,7.733-2.54,11.351
					c-5.227,15.485-17.081,27.741-32.007,33.63c-7.412,2.931-15.584,4.284-24.073,3.688c-13.741-0.965-25.615,4.383-34.652-4.63
					c-2.912-2.903-5.504-6.101-7.689-9.572c-0.859-1.368-1.668-2.748-2.406-4.174c-4.5-8.695-7.106-29.992-6.371-40.464
					c2.073-29.533,27.046-51.994,56.338-51.26c0.836,0.025,1.672,0.067,2.506,0.126c18.51,1.3,34.226,11.588,43.213,26.313
					c0.016,0.018,0.016,0.018,0.016,0.018c2.628,4.324,4.678,9.043,6.054,14.016C484.232,47.081,484.9,53.328,484.449,59.731z"/>
				<g>
					<path fill="#FFC7BE" d="M411.802,70.459c-0.062,1.15-0.325,2.252-0.792,3.262c-0.527,1.212-1.335,2.501-2.329,3.401
						c-1.802,1.616-4.21,2.75-6.82,2.609l-5.606-0.294l-4.302-0.219l0.637-12.767h0.015l0.109-2.361l0.093-1.833l0.094-1.678
						l0.016-0.435h0.016l9.895,0.512c2.5,0.125,4.72,1.213,6.336,2.874c0.979,1.009,1.725,2.252,2.174,3.604
						C411.71,68.19,411.865,69.295,411.802,70.459z"/>
					<path fill="#FFC7AC" d="M479.91,65.039l-1.056,20.642l-0.154,3.09c-0.095,2.035-0.357,4.055-0.73,5.996
						c-3.541,18.234-18.67,32.229-37.231,34.528c-0.56,0.092-1.134,0.14-1.692,0.17c-1.989,0.202-3.99,0.218-6.042,0.124
						c-1.988-0.093-3.914-0.341-5.825-0.699c-3.728-0.684-7.285-1.848-10.592-3.416c0,0-0.017,0-0.033-0.016
						c-14.413-6.819-24.353-21.202-24.881-37.619c-0.016-0.497-0.031-0.979-0.016-1.475c-0.031-0.575,0-1.166,0.032-1.755v-0.311
						l0.061-1.397l0.203-3.682l0.621-12.643l0.016-0.124v-0.016l0.124-2.345l0.093-1.833l0.094-1.678l0.031-0.435
						c0.17-2.92,0.761-5.747,1.615-8.449c0.574-1.895,1.289-3.743,2.081-5.515c0.109-0.294,0.218-0.543,0.342-0.807
						c0.654-1.46,1.414-2.905,2.237-4.272c0-0.015,0.015-0.031,0.015-0.031c3.123-5.218,7.332-9.738,12.302-13.233
						c0.995-0.698,2.02-1.366,3.059-1.987c7.254-4.256,15.767-6.54,24.742-6.074c12.008,0.622,22.771,6.011,30.273,14.243
						c4.023,4.396,6.663,9.552,8.589,15.253c0.746,2.173,1.228,4.41,1.492,6.694C480.034,58.903,480.081,61.933,479.91,65.039z"/>
					<path fill="#FFC7BE" d="M396.907,66.623l-0.652,12.814l-0.45,8.65l-3.402-0.171c-0.247-0.016-0.497-0.031-0.729-0.078
						c-5.67-0.683-9.941-5.855-9.661-11.541c0.14-2.951,1.507-5.404,3.587-7.269c1.864-1.662,4.318-2.548,6.99-2.578h0.015
						c0.312-0.031,0.575-0.031,0.886,0L396.907,66.623z"/>
				</g>
				<path fill="#0E254A" d="M464.296,82.32L464.296,82.32c-1.067,0-1.941-0.874-1.941-1.941v-6.213c0-1.067,0.874-1.941,1.941-1.941
					l0,0c1.068,0,1.941,0.874,1.941,1.941v6.213C466.238,81.447,465.365,82.32,464.296,82.32z"/>
				<path fill="#0E254A" d="M435.821,82.32L435.821,82.32c-1.068,0-1.941-0.874-1.941-1.941v-6.213c0-1.067,0.873-1.941,1.941-1.941
					l0,0c1.067,0,1.941,0.874,1.941,1.941v6.213C437.762,81.447,436.888,82.32,435.821,82.32z"/>
				<path fill="#FFA280" d="M431.808,129.435c0,0-7.767,0.517-15.221-3.96c0,0-0.017,0-0.033-0.016
					c-14.413-6.819-24.353-21.202-24.881-37.619c-5.67-0.683-9.941-5.855-9.661-11.541c0.14-2.951,1.507-5.404,3.587-7.269
					c1.864-1.662,4.318-2.548,6.99-2.578v-0.016l0.124-2.345l0.093-1.833l0.094-1.678l0.016-0.435h0.016
					c0.17-2.92,0.761-5.747,1.615-8.449c5.87-3.278,11.851-3.899,15.252,3.448c0,0-0.341,3.324-0.637,8.387
					c-0.233,3.79-0.45,8.543-0.481,13.591c-0.093,10.376,0.527,21.978,3.2,29.015C417.566,121.156,431.808,129.435,431.808,129.435z
					"/>
				<path fill="#613241" d="M481.62,35.119h-70.019c-4.599,0-8.36-3.762-8.36-8.36l0,0c0-4.598,3.762-8.36,8.36-8.36h70.019
					c4.598,0,8.36,3.762,8.36,8.36l0,0C489.981,31.357,486.218,35.119,481.62,35.119z"/>
				<path fill="#613241" d="M496.863,41.895c0.684,3.767-0.632,7.336-3.05,9.755c-1.988,1.988-4.754,3.23-7.767,3.23h-63.845
					c-9.157,0-16.582,7.424-16.582,16.581v10.321c0,3.426-2.802,6.229-6.229,6.229h-1.474c-3.44,0-6.229-2.789-6.229-6.228V50.686
					c0-0.248,0.015-0.48,0.046-0.714c-1.181-1.74-1.865-3.852-1.865-6.088c0-3.03,1.244-5.778,3.231-7.782
					c1.988-1.988,4.752-3.231,7.766-3.231h84.725C490.997,32.871,495.898,36.577,496.863,41.895z"/>
				<g>
					<path fill="#65354D" d="M475.169,66.529h-13.722c-1.352,0-2.459-1.106-2.459-2.459l0,0c0-1.353,1.107-2.459,2.459-2.459h13.722
						c1.353,0,2.459,1.106,2.459,2.459l0,0C477.628,65.423,476.522,66.529,475.169,66.529z"/>
					<path fill="#65354D" d="M441.774,66.529h-13.719c-1.353,0-2.46-1.106-2.46-2.459l0,0c0-1.353,1.108-2.459,2.46-2.459h13.719
						c1.354,0,2.46,1.106,2.46,2.459l0,0C444.234,65.423,443.127,66.529,441.774,66.529z"/>
					<g opacity="0.49">
						<polygon fill="#FFFFFF" points="436.986,71.448 443.457,84.132 448.375,83.614 441.645,71.448 						"/>
						<polygon fill="#FFFFFF" points="467.274,71.448 473.745,84.132 478.663,83.614 471.932,71.448 						"/>
					</g>
					<path fill="none" stroke="#0E254A" stroke-width="1.2974" stroke-miterlimit="10" d="M475.37,84.844h-14.615
						c-1.627,0-2.96-1.332-2.96-2.96v-8.059c0-1.628,1.333-2.96,2.96-2.96h14.615c1.628,0,2.96,1.332,2.96,2.96v8.059
						C478.33,83.512,476.998,84.844,475.37,84.844z"/>
					<path fill="none" stroke="#0E254A" stroke-width="1.349" stroke-miterlimit="10" d="M446.817,84.844h-16.044
						c-1.693,0-3.079-1.385-3.079-3.078v-7.824c0-1.692,1.386-3.078,3.079-3.078h16.044c1.693,0,3.078,1.386,3.078,3.078v7.824
						C449.895,83.459,448.51,84.844,446.817,84.844z"/>
					<path fill="none" stroke="#FA7C50" stroke-width="1.4382" stroke-miterlimit="10" d="M458.099,101.534
						c-2.296,2.381-5.856,3.771-9.78,3.57c-3.289-0.169-6.212-1.423-8.274-3.359"/>
					<path fill="#FFA280" d="M459.077,90.327c0.006,0.066-0.266-0.007-0.266-0.007c-0.064,2.206-1.977,3.958-6.71,3.821
						l-0.555-17.385C456.595,83.162,458.731,86.721,459.077,90.327z"/>
					
						<line fill="none" stroke="#0E254A" stroke-width="1.349" stroke-miterlimit="10" x1="450.188" y1="77.919" x2="458.471" y2="78.179"/>
				</g>
				<path fill="#0E254A" d="M469.769,195.384v156.937l-114.081,12.472l-5.611-169.409c0-25.225,18.267-46.208,42.296-50.433
					c2.889-0.498,5.855-0.761,8.898-0.761h17.304C446.843,144.19,469.769,167.116,469.769,195.384z"/>
				<path fill="#0E254A" d="M460.712,366.099c0,7.066-2.516,13.542-6.693,18.591c-5.344,6.477-13.45,10.608-22.521,10.608h-49.098
					c-1.459,0-2.889-0.108-4.286-0.325c-3.604-0.514-6.989-1.709-10.033-3.434c-0.544-0.295-1.071-0.621-1.584-0.963
					c-8-5.202-13.295-14.228-13.295-24.478l0.9-15.58l105.759-0.916L460.712,366.099z"/>
				<g>
					<rect x="399.334" y="141.084" fill="#E8EAEC" width="39.462" height="184.021"/>
				</g>
				<polygon fill="#0E254A" points="420.388,165.242 408.879,148.854 419.482,142.511 431.898,148.854 				"/>
				<polygon fill="#0E254A" points="424.457,329.57 411.603,312.226 416.763,157.526 424.743,158.292 436.41,311.594 				"/>
				<polygon fill="#FFFFFF" points="439.481,156.242 420.969,143.57 399.337,156.242 397.806,140.646 439.481,140.646 				"/>
				<g>
					<path fill="#968EAB" d="M430.221,562.344l60.492,22.923c3.606,1.367,7.64-0.448,9.007-4.056l0,0
						c1.053-2.777,0.233-5.919-2.044-7.827l-25.973-21.782l-33.018-11.599L430.221,562.344z"/>
					<path fill="#0E254A" d="M491.289,587.407l-61.411-22.752l1.632-4.401l65.809,24.382l0,0
						C496.42,587.066,493.719,588.308,491.289,587.407z"/>
				</g>
				<g>
					<path fill="#122F51" d="M480.05,486.566c-0.853,33.409-3.806,63.959-3.929,65.234l-21.684-2.113l-19.072-1.848
						c5.529-56.956,5.28-114.256-0.482-126.479c-6.679-6.291-32.633-17.754-56.77-26.389c-3.402-1.212-6.772-2.361-10.033-3.434
						c-0.575-0.201-1.149-0.388-1.724-0.574l0.14-0.389c0,0,20.01-35.148,62.166-23.054c8.885,2.549,16.179,10.986,25.357,17.167
						c4.752,3.185,8.807,6.462,11.758,9.708C474.196,403.654,481.743,421.221,480.05,486.566z"/>
				</g>
				<g>
					
						<line fill="none" stroke="#0E254A" stroke-width="1.4382" stroke-linecap="round" stroke-miterlimit="10" x1="465.591" y1="558.123" x2="475.686" y2="553.462"/>
					
						<line fill="none" stroke="#0E254A" stroke-width="1.4382" stroke-linecap="round" stroke-miterlimit="10" x1="469.863" y1="562.394" x2="479.957" y2="557.733"/>
					
						<line fill="none" stroke="#0E254A" stroke-width="1.4382" stroke-linecap="round" stroke-miterlimit="10" x1="473.615" y1="567.312" x2="485.006" y2="562.006"/>
				</g>
				<path fill="#122F51" d="M394.266,215.125l-44.189-18.111v-1.63c0-25.225,18.267-46.208,42.296-50.433
					c0.108,0.093,0.231,0.186,0.341,0.279L394.266,215.125z"/>
				<path fill="#0E254A" d="M454.438,549.688l-19.072-1.848c5.529-56.956,5.28-114.256-0.482-126.479
					c-6.679-6.291-32.633-17.754-56.77-26.389c-3.604-0.514-6.989-1.709-10.033-3.434c-0.575-0.201-1.149-0.388-1.724-0.574
					l0.14-0.389c-8-5.202-13.295-14.228-13.295-24.478l0.9-15.58l16.867,2.315c-0.403,1.21-2.687,13.108,1.476,20.253
					c1.166,2.035,2.858,3.682,5.265,4.598c6.602,2.517,31.718,8.667,51.708,17.613c12.922,5.793,23.718,12.768,25.954,20.705
					C460.62,434.641,455.292,534.45,454.438,549.688z"/>
				<g>
					<g>
						<path fill="#AFAAC4" d="M677.216,306.371H575.531c-6.651,0-11.049-6.914-8.224-12.938l35.464-75.658
							c3.092-6.597,9.72-10.81,17.006-10.81h93.616c4.85,0,8.055,5.042,5.996,9.434L677.216,306.371z"/>
						<g>
							<g>
								<path fill="#AFAAC4" d="M575.908,306.631h-72.506c-2.929,0-5.324-2.396-5.324-5.324l0,0c0-2.929,2.396-5.324,5.324-5.324
									h72.506c2.929,0,5.323,2.395,5.323,5.324l0,0C581.232,304.234,578.837,306.631,575.908,306.631z"/>
							</g>
							<g>
								<rect x="539.497" y="299.512" fill="#0E254A" width="10.355" height="3.107"/>
								<rect x="528.884" y="299.512" fill="#0E254A" width="7.507" height="3.107"/>
							</g>
						</g>
						<path fill="#827C91" d="M675.684,306.371H573.762c-3.659,0-6.077-3.803-4.524-7.116l38.194-81.479
							c3.093-6.597,9.719-10.81,17.005-10.81h93.617c4.85,0,8.055,5.042,5.995,9.434l-39.547,84.366
							C682.899,304.187,679.462,306.371,675.684,306.371z"/>
					</g>
					
						<ellipse transform="matrix(0.9196 0.393 -0.393 0.9196 154.2928 -233.6097)" fill="#FFFFFF" cx="647.705" cy="260.034" rx="6.213" ry="11.132"/>
				</g>
				<g>
					<g>
						<g>
							<path fill="#FFA280" d="M494.442,282.891l25.308-4.044c1.848-0.296,3.118-2.049,2.823-3.898l0,0
								c-0.296-1.848-2.05-3.119-3.898-2.823l-25.307,4.046c-1.848,0.295-3.118,2.049-2.822,3.897l0,0
								C490.841,281.917,492.594,283.186,494.442,282.891z"/>
							<path fill="#FFA280" d="M502.499,289.733l20.321-3.248c1.848-0.295,3.118-2.048,2.823-3.897l0,0
								c-0.296-1.849-2.051-3.119-3.897-2.823l-20.32,3.248c-1.849,0.295-3.119,2.049-2.823,3.897l0,0
								C498.898,288.759,500.652,290.028,502.499,289.733z"/>
							<path fill="#FFA280" d="M497.803,298.606l24.051-3.845c1.848-0.295,3.118-2.048,2.823-3.897l0,0
								c-0.297-1.849-2.05-3.119-3.898-2.823l-24.051,3.845c-1.849,0.294-3.117,2.048-2.823,3.897l0,0
								C494.2,297.631,495.954,298.902,497.803,298.606z"/>
						</g>
						<path fill="#FFA280" d="M505.366,276.348c-0.271,0.032-3.376-0.01-6.74-0.067c-5.808-0.097-11.556,1.192-16.769,3.756
							l-9.981,4.91c0,0,5.718,16.964,6.505,17.104c19.244,3.479,25.846-5.258,25.846-5.258L505.366,276.348z"/>
					</g>
					<rect x="481.924" y="276.28" fill="#E8EAEC" width="8.543" height="27.765"/>
				</g>
				<g>
					<path fill="#122F51" d="M425.945,307.057c-20.14,0-38.555-11.756-47.016-30.065l-0.418-0.904l-26.362-80.501l32.474-10.635
						l25.688,78.45c3.048,5.853,9.179,9.557,15.807,9.484l56-0.554l0.338,34.169l-56,0.554
						C426.286,307.057,426.114,307.057,425.945,307.057z"/>
				</g>
				<g>
					<rect x="407.344" y="340.931" fill="#968EAB" width="28.476" height="9.806"/>
				</g>
			</g>
			<rect x="350.782" y="332.129" fill="#827C91" width="24.851" height="269.224"/>
			<rect x="668.676" y="332.125" fill="#827C91" width="24.849" height="269.229"/>
			<rect x="789.823" y="332.125" fill="#827C91" width="24.85" height="269.229"/>
			<polygon fill="#323966" points="668.676,332.125 693.525,332.125 693.525,420.929 668.676,433.261 			"/>
			<polygon fill="#323966" points="814.673,332.125 814.673,360.809 789.823,373.142 789.823,332.125 			"/>
			<polygon fill="#323966" points="375.841,331.595 375.841,360.648 350.67,373.142 350.67,331.595 			"/>
			<g>
				<path fill="#323966" d="M206.293,340.161h557.833v-22.62c0-6.046-4.899-10.946-10.945-10.946H217.239
					c-6.045,0-10.946,4.9-10.946,10.946V340.161z"/>
			</g>
			<g>
				<rect x="287.918" y="281.729" fill="#C4C4C9" width="121.83" height="25.919"/>
				<rect x="353.728" y="281.433" fill="#E8EAEC" width="56.34" height="26.509"/>
				<g>
					
						<line fill="none" stroke="#968EAB" stroke-width="1.7691" stroke-miterlimit="10" x1="288.025" y1="286.499" x2="409.962" y2="286.499"/>
					
						<line fill="none" stroke="#968EAB" stroke-width="1.7691" stroke-miterlimit="10" x1="288.025" y1="291.712" x2="409.962" y2="291.712"/>
					
						<line fill="none" stroke="#968EAB" stroke-width="1.7691" stroke-miterlimit="10" x1="288.025" y1="296.926" x2="409.962" y2="296.926"/>
					
						<line fill="none" stroke="#968EAB" stroke-width="1.7691" stroke-miterlimit="10" x1="288.025" y1="302.14" x2="409.962" y2="302.14"/>
				</g>
			</g>
			<g>
				<rect x="86.132" y="382.172" fill="#65354D" width="171.054" height="219.142"/>
				<rect x="149.7" y="382.172" fill="#65354D" width="181.854" height="219.142"/>
				<g>
					<rect x="161.335" y="398.222" fill="#FA7C50" width="159.462" height="57.986"/>
					<rect x="161.335" y="466.267" fill="#FA7C50" width="159.462" height="57.986"/>
					<rect x="161.335" y="534.31" fill="#FA7C50" width="159.462" height="57.987"/>
				</g>
				<g>
					<path fill="#FFFFFF" d="M268.979,430.321h-39.865c-1.708,0-3.106-1.397-3.106-3.106l0,0c0-1.709,1.398-3.106,3.106-3.106
						h39.865c1.709,0,3.107,1.397,3.107,3.106l0,0C272.086,428.924,270.688,430.321,268.979,430.321z"/>
					<path fill="#FFFFFF" d="M270.533,497.886h-39.866c-1.709,0-3.106-1.397-3.106-3.105l0,0c0-1.709,1.397-3.107,3.106-3.107
						h39.866c1.709,0,3.106,1.398,3.106,3.107l0,0C273.639,496.488,272.242,497.886,270.533,497.886z"/>
					<path fill="#FFFFFF" d="M270.533,565.451h-39.866c-1.709,0-3.106-1.397-3.106-3.106l0,0c0-1.708,1.397-3.106,3.106-3.106
						h39.866c1.709,0,3.106,1.398,3.106,3.106l0,0C273.639,564.054,272.242,565.451,270.533,565.451z"/>
				</g>
			</g>
			<g>
				<g>
					<path fill="#FFAC3D" d="M475.816,270.715v38.116h-31.84v-38.116c0-1.678,1.366-3.045,3.043-3.045h25.753
						C474.448,267.67,475.816,269.037,475.816,270.715z"/>
					<g>
						<path fill="#F66438" d="M444.367,302.309c-0.416-0.239-10.19-5.964-11.063-15.991c-0.331-3.823,1.116-6.193,2.389-7.506
							c3.497-3.613,9.312-3.406,9.962-3.371l-0.254,4.653c-1.181-0.056-4.654,0.185-6.37,1.968c-0.874,0.909-1.229,2.17-1.083,3.852
							c0.664,7.63,8.66,12.308,8.741,12.355L444.367,302.309z"/>
					</g>
					<path fill="#D04234" d="M467.952,291.939h-9.125c-3.163,0-5.728-2.563-5.728-5.727l0,0c0-3.164,2.564-5.729,5.728-5.729h9.125
						c3.163,0,5.728,2.565,5.728,5.729l0,0C473.68,289.376,471.115,291.939,467.952,291.939z"/>
				</g>
				<path fill="#F66438" d="M460.936,308.831h-16.96v-38.116c0-1.678,1.366-3.045,3.043-3.045h1.025
					c0.046,1.99,0.59,17.195,4.861,28.145C456.617,305.352,459.926,308.163,460.936,308.831z"/>
			</g>
			<g>
				
					<line fill="none" stroke="#968EAB" stroke-width="1.4382" stroke-miterlimit="10" x1="710.351" y1="286.612" x2="795.778" y2="286.612"/>
				
					<line fill="none" stroke="#968EAB" stroke-width="1.4382" stroke-miterlimit="10" x1="710.351" y1="291.531" x2="795.778" y2="291.531"/>
				
					<line fill="none" stroke="#968EAB" stroke-width="1.4382" stroke-miterlimit="10" x1="710.351" y1="295.369" x2="795.778" y2="295.369"/>
				
					<line fill="none" stroke="#968EAB" stroke-width="1.4382" stroke-miterlimit="10" x1="710.351" y1="300.288" x2="795.778" y2="300.288"/>
			</g>
			<g>
				<g>
					<g>
						<polygon fill="#FFFFFF" points="341.722,282.167 362.172,238.16 382.364,281.649 						"/>
						<rect x="325.412" y="238.418" fill="#FFFFFF" width="36.759" height="42.455"/>
						<polygon fill="#323966" points="306.515,282.167 325.155,238.678 345.346,282.167 						"/>
					</g>
					<g>
						<g>
							<rect x="340.428" y="243.854" fill="#968EAB" width="18.38" height="1.812"/>
						</g>
						<g>
							<rect x="341.98" y="247.479" fill="#968EAB" width="18.38" height="1.813"/>
						</g>
						<g>
							<path fill="#968EAB" d="M352.161,276.806l-9.853-23.229l21.45,0.083l10.581,22.521L352.161,276.806z M344.634,255.083
								l8.535,20.119l18.734-0.457l-9.104-19.513L344.634,255.083z"/>
						</g>
					</g>
				</g>
				<g>
					
						<line fill="none" stroke="#968EAB" stroke-width="1.4611" stroke-miterlimit="10" x1="345.799" y1="258.416" x2="365.434" y2="258.416"/>
					
						<line fill="none" stroke="#968EAB" stroke-width="1.4611" stroke-miterlimit="10" x1="347.502" y1="262.654" x2="367.137" y2="262.654"/>
					
						<line fill="none" stroke="#968EAB" stroke-width="1.4611" stroke-miterlimit="10" x1="348.905" y1="266.894" x2="368.54" y2="266.894"/>
					
						<line fill="none" stroke="#968EAB" stroke-width="1.4611" stroke-miterlimit="10" x1="351.207" y1="271.134" x2="370.844" y2="271.134"/>
				</g>
				<g>
					
						<line fill="none" stroke="#968EAB" stroke-width="1.4611" stroke-miterlimit="10" x1="359.583" y1="254.825" x2="368.708" y2="275.114"/>
					
						<line fill="none" stroke="#968EAB" stroke-width="1.4611" stroke-miterlimit="10" x1="354.147" y1="254.922" x2="363.273" y2="275.211"/>
					
						<line fill="none" stroke="#968EAB" stroke-width="1.4611" stroke-miterlimit="10" x1="348.805" y1="254.536" x2="357.836" y2="275.599"/>
				</g>
			</g>
			<g>
				<g>
					
						<rect x="798.197" y="206.484" transform="matrix(0.9847 0.1742 -0.1742 0.9847 54.4404 -135.8014)" fill="#4257A4" width="5.177" height="71.449"/>
					
						<rect x="801.57" y="205.105" transform="matrix(0.9847 0.1743 -0.1743 0.9847 49.9385 -137.0762)" fill="#4257A4" width="8.025" height="21.487"/>
				</g>
				<g>
					<polygon fill="#65354D" points="788.609,286.819 783.448,286.387 789.421,215.189 792.542,210.634 794.58,215.622 					"/>
				</g>
				<g>
					<polygon fill="#122F51" points="781.439,290.458 776.357,291.447 762.702,221.316 764.466,216.084 767.785,220.327 					"/>
				</g>
				<g>
					<polygon fill="#F66438" points="792.865,306.771 770.736,306.771 763.48,248.19 800.118,248.19 					"/>
					<polygon fill="#FFAC3D" points="801.207,306.771 779.079,306.771 775.814,248.19 808.462,248.19 					"/>
				</g>
			</g>
			<g>
				<g>
					<path fill="#4257A4" d="M257.503,353.399v28.943h-89.845c-6.274,0-11.635-4.009-13.639-9.606
						c-0.537-1.516-0.839-3.156-0.839-4.872c0-3.982,1.615-7.602,4.234-10.231c2.629-2.618,6.248-4.233,10.244-4.233H257.503z"/>
					<path fill="#31477D" d="M223.652,372.736v9.606h-55.993c-6.274,0-11.635-4.009-13.639-9.606H223.652z"/>
					<path fill="#0E254A" d="M291.461,353.395v28.951l-89.844-0.001c-7.991,0-14.476-6.484-14.476-14.476
						c0-3.987,1.622-7.61,4.235-10.239c2.63-2.614,6.253-4.235,10.241-4.235H291.461z"/>
					<path fill="#E8EAEC" d="M291.461,358.357v18.561h-85.939c-5.13,0-9.281-4.152-9.281-9.28c0-2.563,1.042-4.88,2.712-6.567
						c1.688-1.672,4.003-2.714,6.569-2.714L291.461,358.357z"/>
				</g>
				<g>
					<path fill="#FFAC3D" d="M259.458,295.867v28.95h-89.844c-7.99,0-14.474-6.484-14.474-14.476c0-3.987,1.62-7.609,4.235-10.239
						c2.63-2.615,6.253-4.235,10.239-4.235H259.458z"/>
					<path fill="#FFD533" d="M225.321,305.53v-9.605h-55.992c-6.275,0-11.634,4.006-13.639,9.605H225.321z"/>
					<path fill="#FA7C50" d="M291.461,295.867v28.95h-89.844c-7.991,0-14.476-6.484-14.476-14.476c0-3.987,1.622-7.609,4.235-10.239
						c2.63-2.615,6.253-4.235,10.241-4.235H291.461z"/>
					<path fill="#E8EAEC" d="M291.461,300.83v18.561h-85.939c-5.13,0-9.281-4.152-9.281-9.281c0-2.564,1.042-4.88,2.712-6.567
						c1.688-1.671,4.003-2.712,6.569-2.712H291.461z"/>
				</g>
				<g>
					<path fill="#A1CF3A" d="M264.68,324.983v28.954h-89.846c-7.989,0-14.462-6.486-14.462-14.477c0-2.455,0.612-4.772,1.689-6.801
						c0.677-1.265,1.54-2.429,2.542-3.444c2.63-2.617,6.248-4.232,10.23-4.232H264.68z"/>
					<path fill="#709D2B" d="M250.778,324.983v7.677h-88.717c0.677-1.265,1.54-2.429,2.542-3.444
						c2.63-2.617,6.248-4.232,10.23-4.232H250.778z"/>
					<path fill="#709D2B" d="M250.778,353.95v-7.676h-88.717c0.677,1.265,1.54,2.429,2.542,3.442
						c2.63,2.618,6.248,4.233,10.23,4.233H250.778z"/>
					<path fill="#4E8530" d="M309.094,324.984v28.95H219.25c-7.99,0-14.474-6.484-14.474-14.477c0-3.987,1.621-7.609,4.236-10.239
						c2.63-2.613,6.252-4.234,10.238-4.234H309.094z"/>
					<path fill="#E8EAEC" d="M309.094,329.947v18.561h-85.939c-5.128,0-9.281-4.152-9.281-9.281c0-2.563,1.042-4.878,2.713-6.567
						c1.688-1.67,4.004-2.713,6.567-2.713L309.094,329.947z"/>
				</g>
			</g>
			<g>
				<g>
					<path fill="#53803A" d="M171.073,305.915C159.053,322.283,134.94,325,134.94,325s-4.626-23.821,7.394-40.189
						c12.02-16.368,36.133-19.085,36.133-19.085S183.094,289.548,171.073,305.915z"/>
					<path fill="#3D6A3A" d="M120.6,296.126c11.019,10.86,10.418,29.338,10.418,29.338s-18.466,0.869-29.485-9.99
						c-11.018-10.859-10.417-29.337-10.417-29.337S109.582,285.268,120.6,296.126z"/>
					<path fill="#63B259" d="M147.909,287.913c2.239,20.184-13.666,38.511-13.666,38.511s-19.533-14.397-21.772-34.582
						c-2.239-20.183,13.666-38.511,13.666-38.511S145.671,267.729,147.909,287.913z"/>
				</g>
				<g>
					<polygon fill="#65354D" points="146.418,382.188 104.592,382.188 90.877,321.162 160.133,321.162 					"/>
					<polygon fill="#A0533B" points="162.189,382.188 120.362,382.188 114.191,321.162 175.903,321.162 					"/>
				</g>
			</g>
		</g>
		<g>
			<g>
				<defs>
					<path id="SVGID_11_" d="M507.527,550.55c3.754-63.099,2.742-121.436-2.174-133.251c-5.042-7.336-35.314-25.383-65.128-38.759
						l16.755-37.375c20.925,9.378,70.984,33.574,83.863,55.665c5.438,9.324,10.652,27.533,8.105,91.873
						c-1.334,33.7-2.979,60.1-2.979,60.1L507.527,550.55z"/>
				</defs>
				<clipPath id="SVGID_12_">
					<use xlink:href="#SVGID_11_"  overflow="visible"/>
				</clipPath>
			</g>
		</g>
	</g>
	<g>
		<g>
			<g>
				<defs>
					<path id="SVGID_13_" d="M507.527,550.55c3.754-63.099,2.742-121.436-2.174-133.251c-5.042-7.336-35.314-25.383-65.128-38.759
						l16.755-37.375c20.925,9.378,70.984,33.574,83.863,55.665c5.438,9.324,10.652,27.533,8.105,91.873
						c-1.334,33.7-2.979,60.1-2.979,60.1L507.527,550.55z"/>
				</defs>
				<clipPath id="SVGID_14_">
					<use xlink:href="#SVGID_13_"  overflow="visible"/>
				</clipPath>
			</g>
		</g>
		<g>
			<g>
				<defs>
					<path id="SVGID_15_" d="M507.527,550.55c3.754-63.099,2.742-121.436-2.174-133.251c-5.042-7.336-35.314-25.383-65.128-38.759
						l16.755-37.375c20.925,9.378,70.984,33.574,83.863,55.665c5.438,9.324,10.652,27.533,8.105,91.873
						c-1.334,33.7-2.979,60.1-2.979,60.1L507.527,550.55z"/>
				</defs>
				<clipPath id="SVGID_16_">
					<use xlink:href="#SVGID_15_"  overflow="visible"/>
				</clipPath>
			</g>
		</g>
		<g>
			<g>
				<defs>
					<path id="SVGID_17_" d="M507.527,550.55c3.754-63.099,2.742-121.436-2.174-133.251c-5.042-7.336-35.314-25.383-65.128-38.759
						l16.755-37.375c20.925,9.378,70.984,33.574,83.863,55.665c5.438,9.324,10.652,27.533,8.105,91.873
						c-1.334,33.7-2.979,60.1-2.979,60.1L507.527,550.55z"/>
				</defs>
				<clipPath id="SVGID_18_">
					<use xlink:href="#SVGID_17_"  overflow="visible"/>
				</clipPath>
			</g>
		</g>
	</g>
</g>
<g>
	<path fill="#4C79C1" d="M1209.399,356.007h487.777v-20.945c0-5.599-4.537-10.137-10.136-10.137h-467.506
		c-5.598,0-10.136,4.538-10.136,10.137V356.007z"/>
</g>
</svg>
