<?xml version="1.0" encoding="utf-8"?>
<!-- Generator: Adobe Illustrator 16.0.0, SVG Export Plug-In . SVG Version: 6.00 Build 0)  -->
<!DOCTYPE svg PUBLIC "-//W3C//DTD SVG 1.1//EN" "http://www.w3.org/Graphics/SVG/1.1/DTD/svg11.dtd">
<svg version="1.1" id="Capa_1" xmlns="http://www.w3.org/2000/svg" xmlns:xlink="http://www.w3.org/1999/xlink" x="0px" y="0px"
	 width="17.635px" height="20px" viewBox="0 0 17.635 20" enable-background="new 0 0 17.635 20" xml:space="preserve">
<g>
	<g>
		<g>
			<path fill="#330099" d="M12.348,2.819c0,0-1.062-0.478-1.062,0.639s1.052,1.865,1.065,1.863c1.856,1.212,3.084,3.309,3.084,5.692
				c0,3.693-2.947,6.698-6.619,6.791c-3.672-0.092-6.619-3.097-6.619-6.791c0-2.383,1.228-4.479,3.084-5.692
				c0.014,0.002,1.065-0.747,1.065-1.863S5.286,2.819,5.286,2.819C2.169,4.23,0,7.368,0,11.012C0,15.919,3.932,19.907,8.817,20
				c4.885-0.093,8.817-4.081,8.817-8.988C17.635,7.368,15.465,4.23,12.348,2.819z"/>
			<path fill="#330099" d="M8.879,0C7.89,0,7.582,0.723,7.582,1.006v4.427V9.86c0,0.283,0.31,1.006,1.297,1.006
				c0.988,0,1.173-0.724,1.173-1.006V5.433V1.006C10.052,0.723,9.867,0,8.879,0z"/>
		</g>
	</g>
</g>
</svg>
