<?xml version="1.0" encoding="utf-8"?>
<!-- Generator: Adobe Illustrator 16.0.0, SVG Export Plug-In . SVG Version: 6.00 Build 0)  -->
<!DOCTYPE svg PUBLIC "-//W3C//DTD SVG 1.1//EN" "http://www.w3.org/Graphics/SVG/1.1/DTD/svg11.dtd">
<svg version="1.1" id="Capa_1" xmlns="http://www.w3.org/2000/svg" xmlns:xlink="http://www.w3.org/1999/xlink" x="0px" y="0px"
	 width="24px" height="24px" viewBox="0 0 24 24" enable-background="new 0 0 24 24" xml:space="preserve">
<g>
	<path fill="#414141" d="M21,8.303V21c0,1.656-1.344,3-3,3H3c-1.657,0-3-1.344-3-3V6c0-1.657,1.343-3,3-3h12.695l-2.998,3H3v15h15
		v-9.696L21,8.303z M18.698,2.121l-1.061,1.061l3.182,3.183l1.061-1.061L18.698,2.121z M20.819,0l-1.061,1.061l3.182,3.183L24,3.182
		L20.819,0z M7.031,13.79l3.182,3.182l9.545-9.546l-3.182-3.183L7.031,13.79z M6,18h3l-3-3V18z"/>
</g>
</svg>
