<?xml version="1.0" encoding="utf-8"?>
<!-- Generator: Adobe Illustrator 16.0.0, SVG Export Plug-In . SVG Version: 6.00 Build 0)  -->
<!DOCTYPE svg PUBLIC "-//W3C//DTD SVG 1.1//EN" "http://www.w3.org/Graphics/SVG/1.1/DTD/svg11.dtd">
<svg version="1.1" id="Capa_1" xmlns="http://www.w3.org/2000/svg" xmlns:xlink="http://www.w3.org/1999/xlink" x="0px" y="0px"
	 width="24px" height="24px" viewBox="0 0 24 24" enable-background="new 0 0 24 24" xml:space="preserve">
<g>
	<g id="check-circle-outline">
		<path fill="#330099" d="M7.08,9.72L5.4,11.4l5.4,5.4l12-12l-1.68-1.68L10.8,13.439L7.08,9.72z M21.6,12c0,5.279-4.318,9.6-9.6,9.6
			c-5.28,0-9.6-4.318-9.6-9.6c0-5.28,4.32-9.6,9.6-9.6c0.96,0,1.8,0.12,2.641,0.36l1.92-1.92C15.12,0.36,13.561,0,12,0
			C5.4,0,0,5.4,0,12c0,6.6,5.4,12,12,12c6.6,0,12-5.4,12-12H21.6z"/>
	</g>
</g>
</svg>
