<?xml version="1.0" encoding="utf-8"?>
<!-- Generator: Adobe Illustrator 16.0.0, SVG Export Plug-In . SVG Version: 6.00 Build 0)  -->
<!DOCTYPE svg PUBLIC "-//W3C//DTD SVG 1.1//EN" "http://www.w3.org/Graphics/SVG/1.1/DTD/svg11.dtd">
<svg version="1.1" id="Capa_1" xmlns="http://www.w3.org/2000/svg" xmlns:xlink="http://www.w3.org/1999/xlink" x="0px" y="0px"
	 width="241.369px" height="28.475px" viewBox="0 0 241.369 28.475" enable-background="new 0 0 241.369 28.475"
	 xml:space="preserve">
<g>
	<path fill="#330099" d="M63.773,25.304c-0.692,0.837-1.476,1.452-2.352,1.85c-0.875,0.396-1.822,0.594-2.84,0.594
		c-1.08,0-2.077-0.182-2.993-0.55c-0.916-0.367-1.701-0.881-2.351-1.542c-0.651-0.662-1.161-1.445-1.527-2.352
		c-0.367-0.905-0.549-1.898-0.549-2.977c0-1.08,0.183-2.072,0.549-2.979c0.367-0.906,0.876-1.69,1.527-2.352
		c0.652-0.661,1.435-1.175,2.351-1.543c0.917-0.365,1.915-0.549,2.993-0.549c1.04,0,2,0.214,2.887,0.642
		c0.885,0.427,1.673,1.028,2.365,1.802l-1.465,1.099c-0.529-0.59-1.111-1.053-1.741-1.389c-0.632-0.335-1.314-0.503-2.048-0.503
		c-0.854,0-1.63,0.154-2.319,0.459c-0.694,0.305-1.283,0.715-1.773,1.236c-0.488,0.52-0.86,1.129-1.114,1.832
		c-0.254,0.701-0.382,1.45-0.382,2.245c0,0.793,0.128,1.542,0.382,2.245c0.254,0.702,0.626,1.313,1.114,1.832
		c0.489,0.52,1.079,0.931,1.773,1.237c0.691,0.305,1.465,0.458,2.319,0.458c0.774,0,1.483-0.178,2.123-0.533
		c0.642-0.357,1.197-0.83,1.664-1.421L63.773,25.304z"/>
	<path fill="#330099" d="M71.958,20.327c0-1.08,0.184-2.072,0.55-2.979c0.367-0.906,0.875-1.69,1.526-2.352
		c0.652-0.661,1.436-1.175,2.352-1.543c0.917-0.365,1.915-0.549,2.994-0.549s2.071,0.185,2.978,0.549
		c0.907,0.367,1.69,0.882,2.353,1.543c0.661,0.663,1.175,1.446,1.542,2.352c0.367,0.906,0.55,1.899,0.55,2.979
		s-0.184,2.071-0.55,2.977c-0.367,0.907-0.881,1.69-1.542,2.352c-0.663,0.661-1.446,1.175-2.353,1.542
		c-0.906,0.367-1.898,0.55-2.978,0.55s-2.077-0.182-2.994-0.55c-0.916-0.367-1.7-0.881-2.352-1.542
		c-0.651-0.662-1.161-1.445-1.526-2.352C72.141,22.398,71.958,21.406,71.958,20.327z M73.79,20.327c0,0.793,0.127,1.542,0.382,2.245
		c0.254,0.702,0.627,1.313,1.116,1.832c0.489,0.52,1.079,0.931,1.771,1.237c0.691,0.305,1.466,0.458,2.321,0.458
		c0.856,0,1.629-0.153,2.322-0.458c0.692-0.307,1.282-0.717,1.771-1.237c0.488-0.519,0.86-1.129,1.116-1.832
		c0.254-0.703,0.382-1.452,0.382-2.245c0-0.795-0.128-1.544-0.382-2.245c-0.254-0.703-0.628-1.313-1.116-1.832
		c-0.488-0.521-1.079-0.932-1.771-1.236c-0.692-0.307-1.466-0.459-2.322-0.459c-0.855,0-1.63,0.154-2.321,0.459
		c-0.693,0.305-1.282,0.715-1.771,1.236c-0.489,0.52-0.861,1.129-1.116,1.832C73.918,18.783,73.79,19.532,73.79,20.327z"/>
	<path fill="#330099" d="M109.341,24.908h-0.061c-0.285,0.487-0.642,0.911-1.07,1.267c-0.426,0.356-0.89,0.651-1.388,0.886
		c-0.5,0.234-1.023,0.407-1.574,0.519c-0.55,0.111-1.089,0.166-1.618,0.166c-1.08,0-2.077-0.182-2.994-0.548
		c-0.916-0.367-1.7-0.881-2.35-1.542c-0.653-0.663-1.162-1.446-1.528-2.354c-0.367-0.905-0.55-1.897-0.55-2.977
		c0-1.079,0.184-2.071,0.55-2.977c0.367-0.908,0.875-1.691,1.528-2.353c0.65-0.66,1.435-1.175,2.35-1.543
		c0.917-0.365,1.915-0.548,2.994-0.548c0.53,0,1.069,0.055,1.618,0.168c0.55,0.111,1.074,0.285,1.574,0.518
		c0.5,0.234,0.962,0.529,1.388,0.884c0.428,0.358,0.786,0.78,1.07,1.268h0.061V4.293h1.832v23.089h-1.832V24.908z M109.524,20.327
		c0-0.795-0.153-1.544-0.459-2.245c-0.305-0.703-0.721-1.313-1.25-1.832c-0.531-0.521-1.151-0.932-1.863-1.236
		c-0.713-0.307-1.487-0.459-2.323-0.459c-0.854,0-1.628,0.154-2.32,0.459c-0.693,0.305-1.283,0.715-1.771,1.236
		c-0.489,0.52-0.862,1.129-1.116,1.832c-0.256,0.701-0.382,1.45-0.382,2.245c0,0.793,0.126,1.542,0.382,2.245
		c0.254,0.702,0.626,1.313,1.116,1.832c0.489,0.52,1.079,0.931,1.771,1.237c0.692,0.305,1.466,0.458,2.32,0.458
		c0.836,0,1.609-0.153,2.323-0.458c0.712-0.307,1.333-0.717,1.863-1.237c0.529-0.519,0.946-1.129,1.25-1.832
		S109.524,21.119,109.524,20.327z"/>
	<path fill="#330099" d="M134.231,24.724c-0.713,1.081-1.592,1.854-2.643,2.323c-1.048,0.467-2.203,0.699-3.466,0.699
		c-1.08,0-2.056-0.182-2.933-0.548c-0.876-0.367-1.628-0.881-2.258-1.542c-0.632-0.663-1.116-1.446-1.452-2.354
		c-0.336-0.905-0.504-1.908-0.504-3.006c0-1.06,0.172-2.037,0.52-2.935c0.346-0.894,0.835-1.674,1.467-2.334
		c0.631-0.663,1.375-1.183,2.229-1.559c0.856-0.377,1.803-0.565,2.841-0.565c1.079,0,2.031,0.187,2.856,0.565
		c0.825,0.376,1.515,0.876,2.077,1.496c0.559,0.621,0.981,1.328,1.267,2.123c0.284,0.795,0.427,1.598,0.427,2.412v1.284H122.81
		c0,0.388,0.075,0.883,0.228,1.482c0.152,0.6,0.433,1.188,0.84,1.757c0.407,0.569,0.952,1.059,1.633,1.465
		c0.682,0.409,1.563,0.611,2.643,0.611c0.937,0,1.842-0.224,2.718-0.671c0.876-0.448,1.548-1.06,2.017-1.833L134.231,24.724z
		 M132.827,19.135c0-0.631-0.127-1.221-0.383-1.772c-0.254-0.549-0.601-1.033-1.038-1.449c-0.438-0.418-0.958-0.749-1.558-0.995
		c-0.602-0.244-1.236-0.366-1.909-0.366c-0.998,0-1.827,0.205-2.489,0.611c-0.661,0.408-1.186,0.875-1.571,1.406
		c-0.388,0.529-0.664,1.043-0.826,1.542c-0.164,0.5-0.244,0.839-0.244,1.022H132.827L132.827,19.135z"/>
	<path fill="#330099" d="M144.86,17.242c0-0.265-0.011-0.585-0.031-0.964c-0.02-0.375-0.036-0.757-0.046-1.143
		c-0.01-0.387-0.024-0.751-0.045-1.085c-0.021-0.336-0.031-0.597-0.031-0.778h1.832c0.021,0.527,0.037,1.037,0.046,1.527
		c0.012,0.488,0.037,0.804,0.079,0.946h0.091c0.366-0.774,0.978-1.44,1.832-2c0.855-0.56,1.853-0.839,2.994-0.839
		c1.1,0,1.994,0.174,2.688,0.518c0.691,0.347,1.236,0.801,1.633,1.358c0.396,0.56,0.672,1.208,0.825,1.939
		c0.151,0.734,0.228,1.488,0.228,2.26v8.399h-1.833v-8.308c0-0.57-0.051-1.125-0.152-1.664c-0.102-0.54-0.279-1.023-0.534-1.45
		c-0.254-0.429-0.61-0.768-1.069-1.022c-0.458-0.256-1.054-0.383-1.786-0.383c-0.673,0-1.309,0.118-1.91,0.353
		c-0.601,0.233-1.119,0.589-1.557,1.068c-0.438,0.478-0.784,1.08-1.04,1.802c-0.254,0.724-0.382,1.572-0.382,2.551v7.055h-1.832
		v-10.14H144.86z"/>
	<path fill="#330099" d="M167.154,20.327c0-1.08,0.185-2.072,0.551-2.979c0.366-0.906,0.875-1.69,1.526-2.352
		c0.652-0.661,1.437-1.175,2.353-1.543c0.916-0.365,1.915-0.549,2.993-0.549c1.079,0,2.071,0.185,2.977,0.549
		c0.908,0.367,1.69,0.882,2.353,1.543c0.663,0.663,1.176,1.446,1.543,2.352c0.366,0.906,0.551,1.899,0.551,2.979
		s-0.185,2.071-0.551,2.977c-0.367,0.907-0.88,1.69-1.543,2.352c-0.662,0.661-1.444,1.175-2.353,1.542
		c-0.905,0.367-1.897,0.55-2.977,0.55s-2.077-0.182-2.993-0.55c-0.916-0.367-1.7-0.881-2.353-1.542
		c-0.651-0.662-1.16-1.445-1.526-2.352C167.339,22.398,167.154,21.406,167.154,20.327z M168.987,20.327
		c0,0.793,0.128,1.542,0.384,2.245c0.254,0.702,0.625,1.313,1.114,1.832c0.488,0.52,1.081,0.931,1.771,1.237
		c0.693,0.305,1.468,0.458,2.321,0.458c0.856,0,1.63-0.153,2.321-0.458c0.694-0.307,1.283-0.717,1.772-1.237
		c0.488-0.519,0.859-1.129,1.115-1.832c0.254-0.703,0.38-1.452,0.38-2.245c0-0.795-0.126-1.544-0.38-2.245
		c-0.256-0.703-0.627-1.313-1.115-1.832c-0.489-0.521-1.078-0.932-1.772-1.236c-0.691-0.307-1.465-0.459-2.321-0.459
		c-0.854,0-1.628,0.154-2.321,0.459c-0.691,0.305-1.282,0.715-1.771,1.236c-0.489,0.52-0.86,1.129-1.114,1.832
		C169.115,18.783,168.987,19.532,168.987,20.327z"/>
	<path fill="#330099" d="M199.102,14.919h-4.032v9.193c0,0.632,0.174,1.12,0.52,1.465c0.346,0.347,0.824,0.521,1.435,0.521
		c0.348,0,0.697-0.047,1.054-0.139c0.356-0.092,0.697-0.208,1.023-0.353l0.152,1.652c-0.347,0.123-0.743,0.232-1.191,0.336
		c-0.447,0.102-0.844,0.152-1.19,0.152c-0.652,0-1.212-0.096-1.68-0.289c-0.469-0.195-0.845-0.453-1.129-0.779
		c-0.287-0.327-0.495-0.707-0.627-1.145c-0.132-0.439-0.199-0.913-0.199-1.422V14.92h-3.054v-1.647h3.054V9.21h1.833v4.061h4.032
		V14.919z"/>
	<path fill="#330099" d="M220.297,25.304c-0.692,0.837-1.477,1.452-2.352,1.85c-0.875,0.396-1.823,0.594-2.84,0.594
		c-1.08,0-2.078-0.182-2.993-0.55c-0.917-0.367-1.701-0.881-2.353-1.542c-0.651-0.662-1.159-1.445-1.527-2.352
		c-0.366-0.905-0.55-1.898-0.55-2.977c0-1.08,0.184-2.072,0.55-2.979c0.367-0.906,0.876-1.69,1.527-2.352
		c0.651-0.661,1.436-1.175,2.353-1.543c0.915-0.365,1.913-0.549,2.993-0.549c1.038,0,1.999,0.214,2.886,0.642
		c0.886,0.427,1.676,1.028,2.367,1.802l-1.468,1.099c-0.529-0.59-1.109-1.053-1.74-1.389c-0.631-0.335-1.314-0.503-2.047-0.503
		c-0.854,0-1.629,0.154-2.321,0.459c-0.693,0.305-1.282,0.715-1.771,1.236c-0.489,0.52-0.861,1.129-1.114,1.832
		c-0.256,0.701-0.382,1.45-0.382,2.245c0,0.793,0.126,1.542,0.382,2.245c0.253,0.702,0.625,1.313,1.114,1.832
		c0.489,0.52,1.079,0.931,1.771,1.237c0.692,0.305,1.468,0.458,2.321,0.458c0.774,0,1.482-0.178,2.123-0.533
		c0.641-0.357,1.195-0.83,1.664-1.421L220.297,25.304z"/>
	<path fill="#330099" d="M229.275,4.293h1.833v11.453h0.061c0.366-0.774,0.978-1.441,1.832-2.001c0.856-0.561,1.854-0.84,2.994-0.84
		c1.099,0,1.994,0.175,2.689,0.52c0.69,0.346,1.235,0.8,1.632,1.356c0.396,0.562,0.671,1.208,0.824,1.939
		c0.153,0.738,0.229,1.49,0.229,2.262v8.399h-1.831v-8.308c0-0.57-0.051-1.125-0.153-1.664c-0.102-0.54-0.279-1.023-0.534-1.45
		c-0.254-0.429-0.61-0.768-1.07-1.022c-0.456-0.256-1.052-0.383-1.785-0.383c-0.673,0-1.31,0.118-1.909,0.353
		c-0.602,0.233-1.12,0.589-1.558,1.068c-0.438,0.478-0.784,1.08-1.039,1.802c-0.254,0.724-0.382,1.572-0.382,2.551v7.055h-1.832
		V4.293L229.275,4.293z"/>
</g>
<g>
	<path fill="#330099" d="M28.354,28.475h-8.383c-0.545,0-0.985-0.44-0.985-0.985V16.888h-4.932v10.602
		c0,0.545-0.442,0.985-0.985,0.985H4.686c-0.545,0-0.987-0.44-0.987-0.985V15.9c0-0.543,0.442-0.986,0.987-0.986
		c0.543,0,0.985,0.443,0.985,0.986v10.603h6.411V15.9c0-0.543,0.44-0.986,0.987-0.986h6.902c0.545,0,0.985,0.443,0.985,0.986v10.603
		h6.411V15.9c0-0.543,0.442-0.986,0.986-0.986c0.545,0,0.986,0.443,0.986,0.986v11.589C29.34,28.034,28.898,28.475,28.354,28.475z"
		/>
	<path fill="#330099" d="M28.354,7.273c-0.544,0-0.986-0.443-0.986-0.987V4.561h-1.725c-0.545,0-0.987-0.443-0.987-0.987
		c0-0.544,0.442-0.985,0.987-0.985h2.711c0.545,0,0.986,0.44,0.986,0.985v2.712C29.34,6.83,28.898,7.273,28.354,7.273z"/>
	<path fill="#330099" d="M0.987,15.286c-0.279,0-0.557-0.117-0.751-0.346c-0.354-0.414-0.305-1.036,0.11-1.391L15.939,0.236
		c0.37-0.315,0.916-0.315,1.284,0.002l15.472,13.313c0.412,0.354,0.459,0.977,0.104,1.39c-0.354,0.413-0.979,0.462-1.391,0.105
		l-14.83-12.76L1.628,15.049C1.441,15.209,1.213,15.286,0.987,15.286z"/>
</g>
</svg>
