<?xml version="1.0" encoding="utf-8"?>
<!-- Generator: Adobe Illustrator 16.0.0, SVG Export Plug-In . SVG Version: 6.00 Build 0)  -->
<!DOCTYPE svg PUBLIC "-//W3C//DTD SVG 1.1//EN" "http://www.w3.org/Graphics/SVG/1.1/DTD/svg11.dtd">
<svg version="1.1" id="Capa_1" xmlns="http://www.w3.org/2000/svg" xmlns:xlink="http://www.w3.org/1999/xlink" x="0px" y="0px"
	 width="254px" height="119px" viewBox="0 0 254 119" enable-background="new 0 0 254 119" xml:space="preserve">
<g>
	<path fill="#330099" d="M41.455,86.492c-0.707,0.855-1.509,1.484-2.404,1.891c-0.895,0.405-1.862,0.607-2.904,0.607
		c-1.103,0-2.122-0.186-3.059-0.562c-0.937-0.375-1.739-0.9-2.404-1.576c-0.666-0.677-1.186-1.478-1.561-2.405
		c-0.375-0.926-0.562-1.94-0.562-3.043c0-1.103,0.187-2.118,0.562-3.044c0.375-0.927,0.895-1.728,1.561-2.405
		c0.666-0.675,1.468-1.201,2.404-1.577c0.937-0.373,1.957-0.561,3.059-0.561c1.063,0,2.045,0.218,2.951,0.655
		c0.906,0.437,1.711,1.051,2.418,1.842l-1.498,1.124c-0.541-0.603-1.135-1.077-1.779-1.42c-0.646-0.343-1.343-0.515-2.093-0.515
		c-0.874,0-1.666,0.157-2.372,0.469c-0.708,0.312-1.311,0.732-1.812,1.264c-0.499,0.531-0.879,1.155-1.139,1.873
		c-0.26,0.717-0.39,1.483-0.39,2.295c0,0.811,0.13,1.577,0.39,2.295c0.26,0.718,0.64,1.342,1.139,1.873
		c0.5,0.531,1.103,0.952,1.812,1.265c0.707,0.312,1.499,0.468,2.372,0.468c0.791,0,1.515-0.182,2.17-0.546
		c0.656-0.364,1.223-0.848,1.701-1.452L41.455,86.492z"/>
	<path fill="#330099" d="M49.822,81.404c0-1.103,0.187-2.118,0.562-3.044c0.375-0.927,0.895-1.728,1.561-2.405
		c0.666-0.675,1.467-1.201,2.404-1.577c0.937-0.373,1.957-0.561,3.06-0.561c1.103,0,2.117,0.188,3.044,0.561
		c0.927,0.375,1.728,0.902,2.405,1.577c0.676,0.678,1.202,1.479,1.576,2.405c0.375,0.926,0.563,1.941,0.563,3.044
		c0,1.104-0.188,2.117-0.563,3.043c-0.374,0.927-0.9,1.728-1.576,2.405c-0.677,0.675-1.478,1.201-2.405,1.576
		c-0.927,0.375-1.941,0.562-3.044,0.562c-1.103,0-2.123-0.186-3.06-0.562c-0.937-0.375-1.738-0.9-2.404-1.576
		c-0.666-0.677-1.187-1.478-1.561-2.405C50.009,83.521,49.822,82.507,49.822,81.404z M51.695,81.404c0,0.811,0.129,1.577,0.39,2.295
		c0.26,0.718,0.64,1.342,1.14,1.873c0.5,0.531,1.103,0.952,1.811,1.265c0.707,0.312,1.499,0.468,2.373,0.468
		c0.875,0,1.665-0.156,2.374-0.468c0.707-0.313,1.311-0.734,1.81-1.265c0.499-0.53,0.879-1.154,1.14-1.873
		c0.26-0.718,0.391-1.484,0.391-2.295c0-0.812-0.131-1.578-0.391-2.295c-0.26-0.718-0.641-1.342-1.14-1.873
		c-0.499-0.532-1.103-0.952-1.81-1.264c-0.708-0.313-1.499-0.469-2.374-0.469c-0.874,0-1.666,0.157-2.373,0.469
		c-0.708,0.312-1.311,0.732-1.811,1.264c-0.5,0.531-0.88,1.155-1.14,1.873C51.825,79.826,51.695,80.592,51.695,81.404z"/>
	<path fill="#330099" d="M88.036,86.087h-0.063c-0.291,0.498-0.655,0.931-1.093,1.295c-0.436,0.364-0.91,0.666-1.419,0.906
		c-0.511,0.24-1.046,0.416-1.609,0.53c-0.562,0.113-1.113,0.171-1.654,0.171c-1.103,0-2.123-0.186-3.06-0.562
		c-0.937-0.375-1.738-0.9-2.403-1.576c-0.667-0.677-1.187-1.478-1.562-2.405c-0.375-0.926-0.562-1.94-0.562-3.043
		c0-1.103,0.188-2.118,0.562-3.044c0.375-0.927,0.895-1.728,1.562-2.405c0.665-0.675,1.467-1.201,2.403-1.577
		c0.937-0.373,1.957-0.561,3.06-0.561c0.542,0,1.093,0.057,1.654,0.172c0.563,0.113,1.098,0.291,1.609,0.53
		c0.51,0.239,0.983,0.54,1.419,0.904c0.438,0.366,0.802,0.797,1.093,1.296h0.063V65.014h1.873v23.602h-1.873V86.087z M88.223,81.404
		c0-0.812-0.156-1.578-0.469-2.295c-0.312-0.718-0.738-1.342-1.279-1.873c-0.542-0.532-1.176-0.952-1.904-1.264
		c-0.729-0.313-1.52-0.469-2.374-0.469c-0.874,0-1.665,0.157-2.373,0.469c-0.708,0.312-1.311,0.732-1.81,1.264
		c-0.5,0.531-0.88,1.155-1.14,1.873c-0.261,0.717-0.391,1.483-0.391,2.295c0,0.811,0.13,1.577,0.391,2.295
		c0.26,0.718,0.64,1.342,1.14,1.873c0.5,0.531,1.103,0.952,1.81,1.265c0.708,0.312,1.499,0.468,2.373,0.468
		c0.854,0,1.644-0.156,2.374-0.468c0.728-0.313,1.363-0.734,1.904-1.265c0.541-0.53,0.967-1.154,1.279-1.873
		C88.066,82.98,88.223,82.214,88.223,81.404z"/>
	<path fill="#330099" d="M113.48,85.899c-0.729,1.104-1.628,1.895-2.701,2.374c-1.072,0.478-2.253,0.716-3.543,0.716
		c-1.104,0-2.102-0.186-2.998-0.562c-0.896-0.375-1.665-0.9-2.31-1.576c-0.646-0.677-1.14-1.478-1.483-2.405
		c-0.344-0.926-0.516-1.951-0.516-3.074c0-1.084,0.176-2.082,0.531-3c0.354-0.914,0.853-1.711,1.499-2.386
		c0.645-0.677,1.405-1.208,2.279-1.594c0.875-0.385,1.842-0.577,2.904-0.577c1.103,0,2.076,0.191,2.919,0.577
		c0.844,0.386,1.55,0.896,2.123,1.53c0.572,0.635,1.004,1.357,1.295,2.17c0.292,0.812,0.437,1.633,0.437,2.465v1.312h-12.113
		c0,0.396,0.078,0.902,0.234,1.515s0.442,1.213,0.859,1.795c0.416,0.583,0.972,1.082,1.67,1.499
		c0.697,0.417,1.597,0.625,2.701,0.625c0.957,0,1.883-0.229,2.778-0.687c0.895-0.458,1.582-1.083,2.062-1.874L113.48,85.899z
		 M112.044,80.186c0-0.646-0.13-1.249-0.391-1.812c-0.26-0.561-0.614-1.055-1.061-1.482c-0.448-0.427-0.979-0.765-1.593-1.016
		c-0.614-0.249-1.264-0.374-1.951-0.374c-1.019,0-1.868,0.209-2.544,0.625c-0.676,0.417-1.212,0.895-1.607,1.437
		c-0.396,0.541-0.678,1.067-0.844,1.576c-0.167,0.512-0.25,0.859-0.25,1.046H112.044z"/>
	<path fill="#330099" d="M124.345,78.251c0-0.271-0.011-0.599-0.031-0.985c-0.021-0.384-0.037-0.775-0.047-1.169
		c-0.011-0.395-0.026-0.767-0.047-1.109c-0.021-0.343-0.031-0.61-0.031-0.795h1.873c0.021,0.54,0.037,1.06,0.047,1.561
		c0.011,0.499,0.036,0.822,0.079,0.967h0.093c0.375-0.791,1-1.472,1.874-2.045c0.874-0.573,1.893-0.858,3.06-0.858
		c1.124,0,2.039,0.178,2.747,0.53c0.707,0.354,1.265,0.818,1.67,1.388c0.405,0.573,0.686,1.234,0.842,1.982
		c0.156,0.751,0.234,1.522,0.234,2.311v8.586h-1.874v-8.492c0-0.583-0.052-1.151-0.156-1.701c-0.104-0.552-0.286-1.046-0.546-1.483
		c-0.26-0.438-0.624-0.785-1.093-1.045c-0.468-0.261-1.077-0.391-1.826-0.391c-0.688,0-1.338,0.121-1.952,0.36
		c-0.614,0.239-1.145,0.603-1.592,1.092c-0.448,0.488-0.802,1.104-1.063,1.842c-0.26,0.74-0.39,1.608-0.39,2.607v7.212h-1.873
		V78.251z"/>
	<path fill="#330099" d="M147.135,81.404c0-1.103,0.188-2.118,0.562-3.044c0.375-0.927,0.895-1.728,1.561-2.405
		c0.667-0.675,1.468-1.201,2.405-1.577c0.937-0.373,1.957-0.561,3.059-0.561c1.103,0,2.118,0.188,3.044,0.561
		c0.927,0.375,1.727,0.902,2.404,1.577c0.677,0.678,1.202,1.479,1.577,2.405c0.375,0.926,0.563,1.941,0.563,3.044
		c0,1.104-0.188,2.117-0.563,3.043c-0.375,0.927-0.9,1.728-1.577,2.405c-0.677,0.675-1.477,1.201-2.404,1.576
		c-0.926,0.375-1.941,0.562-3.044,0.562c-1.103,0-2.122-0.186-3.059-0.562c-0.937-0.375-1.738-0.9-2.405-1.576
		c-0.666-0.677-1.186-1.478-1.561-2.405C147.323,83.521,147.135,82.507,147.135,81.404z M149.009,81.404
		c0,0.811,0.13,1.577,0.391,2.295c0.26,0.718,0.64,1.342,1.14,1.873c0.499,0.531,1.104,0.952,1.81,1.265
		c0.708,0.312,1.499,0.468,2.373,0.468c0.874,0,1.666-0.156,2.373-0.468c0.708-0.313,1.311-0.734,1.811-1.265
		c0.499-0.53,0.879-1.154,1.14-1.873c0.259-0.718,0.389-1.484,0.389-2.295c0-0.812-0.129-1.578-0.389-2.295
		c-0.261-0.718-0.641-1.342-1.14-1.873c-0.5-0.532-1.103-0.952-1.811-1.264c-0.707-0.313-1.499-0.469-2.373-0.469
		c-0.874,0-1.665,0.157-2.373,0.469c-0.707,0.312-1.311,0.732-1.81,1.264c-0.5,0.531-0.88,1.155-1.14,1.873
		C149.139,79.826,149.009,80.592,149.009,81.404z"/>
	<path fill="#330099" d="M179.792,75.876h-4.122v9.398c0,0.646,0.177,1.144,0.531,1.498c0.354,0.354,0.843,0.532,1.467,0.532
		c0.355,0,0.713-0.047,1.077-0.141c0.364-0.094,0.713-0.213,1.046-0.36l0.156,1.688c-0.354,0.125-0.76,0.238-1.218,0.344
		c-0.458,0.104-0.863,0.155-1.217,0.155c-0.666,0-1.239-0.098-1.717-0.295c-0.479-0.199-0.864-0.463-1.154-0.797
		c-0.293-0.333-0.506-0.722-0.641-1.17c-0.135-0.448-0.203-0.932-0.203-1.453v-9.398h-3.122v-1.684h3.122V70.04h1.873v4.152h4.122
		V75.876z"/>
	<path fill="#330099" d="M201.459,86.492c-0.708,0.855-1.51,1.484-2.404,1.891c-0.895,0.405-1.863,0.607-2.903,0.607
		c-1.104,0-2.124-0.186-3.06-0.562c-0.937-0.375-1.739-0.9-2.405-1.576c-0.665-0.677-1.185-1.478-1.561-2.405
		c-0.374-0.926-0.562-1.94-0.562-3.043c0-1.103,0.188-2.118,0.562-3.044c0.375-0.927,0.896-1.728,1.561-2.405
		c0.667-0.675,1.468-1.201,2.405-1.577c0.936-0.373,1.956-0.561,3.06-0.561c1.061,0,2.044,0.218,2.95,0.655
		c0.905,0.437,1.712,1.051,2.419,1.842l-1.499,1.124c-0.541-0.603-1.135-1.077-1.78-1.42c-0.645-0.343-1.343-0.515-2.091-0.515
		c-0.874,0-1.666,0.157-2.374,0.469c-0.708,0.312-1.311,0.732-1.81,1.264c-0.5,0.531-0.88,1.155-1.139,1.873
		c-0.261,0.717-0.391,1.483-0.391,2.295c0,0.811,0.13,1.577,0.391,2.295c0.259,0.718,0.639,1.342,1.139,1.873
		c0.5,0.531,1.103,0.952,1.81,1.265c0.708,0.312,1.5,0.468,2.374,0.468c0.79,0,1.514-0.182,2.169-0.546s1.222-0.848,1.701-1.452
		L201.459,86.492z"/>
	<path fill="#330099" d="M210.637,65.014h1.874V76.72h0.062c0.375-0.791,0.999-1.472,1.873-2.045
		c0.874-0.573,1.894-0.858,3.06-0.858c1.123,0,2.039,0.178,2.749,0.53c0.706,0.354,1.262,0.818,1.669,1.388
		c0.405,0.573,0.686,1.234,0.842,1.982C222.923,78.47,223,79.24,223,80.029v8.586h-1.872v-8.492c0-0.583-0.052-1.151-0.157-1.701
		c-0.104-0.552-0.286-1.046-0.546-1.483c-0.26-0.438-0.624-0.785-1.094-1.045c-0.467-0.261-1.075-0.391-1.825-0.391
		c-0.687,0-1.339,0.121-1.952,0.36c-0.614,0.239-1.145,0.603-1.592,1.092c-0.448,0.488-0.802,1.104-1.062,1.842
		c-0.26,0.74-0.39,1.608-0.39,2.607v7.212h-1.874V65.014z"/>
</g>
<g>
	<path fill="#330099" d="M139.301,53.3h-9.989c-0.649,0-1.174-0.525-1.174-1.174V39.493h-5.876v12.633
		c0,0.649-0.527,1.174-1.174,1.174h-9.989c-0.649,0-1.176-0.525-1.176-1.174V38.317c0-0.648,0.527-1.176,1.176-1.176
		c0.648,0,1.174,0.528,1.174,1.176V50.95h7.639V38.317c0-0.648,0.525-1.176,1.176-1.176h8.225c0.649,0,1.174,0.528,1.174,1.176
		V50.95h7.639V38.317c0-0.648,0.526-1.176,1.175-1.176s1.175,0.528,1.175,1.176v13.809C140.476,52.775,139.95,53.3,139.301,53.3z"/>
	<path fill="#330099" d="M139.301,28.037c-0.649,0-1.175-0.528-1.175-1.176v-2.056h-2.056c-0.648,0-1.176-0.528-1.176-1.176
		s0.528-1.174,1.176-1.174h3.231c0.649,0,1.175,0.525,1.175,1.174v3.232C140.476,27.509,139.95,28.037,139.301,28.037z"/>
	<path fill="#330099" d="M106.692,37.585c-0.332,0-0.663-0.14-0.895-0.412c-0.421-0.494-0.363-1.235,0.131-1.658l18.581-15.863
		c0.44-0.376,1.091-0.376,1.529,0.002l18.436,15.864c0.492,0.422,0.547,1.164,0.124,1.656c-0.421,0.492-1.166,0.55-1.656,0.125
		L125.27,22.094l-17.815,15.208C107.233,37.493,106.961,37.585,106.692,37.585z"/>
</g>
</svg>
