<?xml version="1.0" encoding="utf-8"?>
<!-- Generator: Adobe Illustrator 16.0.0, SVG Export Plug-In . SVG Version: 6.00 Build 0)  -->
<!DOCTYPE svg PUBLIC "-//W3C//DTD SVG 1.1//EN" "http://www.w3.org/Graphics/SVG/1.1/DTD/svg11.dtd">
<svg version="1.1" id="Layer_1" xmlns="http://www.w3.org/2000/svg" xmlns:xlink="http://www.w3.org/1999/xlink" x="0px" y="0px"
	 width="285.655px" height="231.9px" viewBox="-33.919 0 285.655 231.9" enable-background="new -33.919 0 285.655 231.9"
	 xml:space="preserve">
<g>
	<g opacity="0.37">
		<path fill="#8A829E" d="M225.458,230.087c0-0.997-2.834-1.813-6.298-1.813H-8.621c-3.464,0-6.298,0.816-6.298,1.813
			c0,0.998,2.834,1.813,6.298,1.813H219.16C222.624,231.9,225.458,231.084,225.458,230.087z"/>
	</g>
	<path fill="#6D463A" d="M114.446,210.708c1.991,0.982,9.318-5.891,9.288-4.616c-0.083,3.693,1.301,15.611-0.293,15.611
		c-0.771,0-9.89-0.98-9.89-0.98L114.446,210.708z"/>
	<path fill="#6D463A" d="M77.069,210.96c1.992,0.982,10.159-0.706,9.317,0.252c-2.434,2.77,0.083,10.491-2.056,10.491
		c-0.771,0-10.786-0.504-10.786-0.504L77.069,210.96z"/>
	<g>
		<path fill="#79684E" d="M126.967,227.343c-0.009,1.732-0.214,2.945-0.671,2.985c0.463-1.437-26.858-0.665-26.976-0.668
			c-1.074-0.003-2.836-0.138-2.897-2.249c-0.003-0.158,0-0.309,0.007-0.45c0.026-0.531,0.134-0.98,0.305-1.357
			c0.762-1.688,2.162-1.917,3.72-2.027c0.37-0.027,0.718-0.043,1.021-0.077c0.654-0.071,1.229-0.205,1.742-0.4
			c0.111-0.041,0.215-0.081,0.319-0.128c0.392-0.171,0.752-0.376,1.091-0.604l0.004-0.003c0.218-0.147,0.422-0.303,0.63-0.47
			l0.003-0.004c0.185-0.148,0.37-0.305,0.551-0.47c0.393-0.349,0.782-0.728,1.198-1.121c0.135-0.13,0.272-0.262,0.413-0.396
			c0.205-0.192,0.417-0.39,0.639-0.587c0.069-0.061,0.137-0.125,0.205-0.185c0.006-0.007,0.01-0.01,0.016-0.017
			c0.306-0.282,0.579-0.563,0.82-0.836c0.081-0.094,0.161-0.185,0.234-0.275c0.286-0.343,0.527-0.675,0.736-0.994h0.003
			c0.063-0.101,0.124-0.198,0.185-0.295c0.024-0.041,0.051-0.084,0.074-0.125c0.151-0.259,0.286-0.507,0.41-0.749
			c0.671-1.326,1.017-2.374,2.211-3.052c1.415-0.796,5.744-0.775,6.599,0.826c0.053,0.104,0.1,0.211,0.14,0.333
			c0.218,0.645,0.245,2.088,0.494,3.31c0.18,0.906,0.492,1.662,1.067,1.944c2.642,1.282,2.76-0.57,2.857-2.085
			c-0.003-0.003-0.003-0.003-0.003-0.007c0.077-1.315-0.191-2.688-0.191-2.688c0.917,0.016,1.739,2.447,2.3,5.401
			c0.021,0.104,0.03,0.188,0.044,0.252c0.321,1.793,0.557,3.754,0.651,5.476C126.95,226.188,126.97,226.79,126.967,227.343z"/>
		<path fill="#FFE9CF" d="M110.845,223.375c-2.43-0.618-4.864-0.706-7.329-0.246c-0.11,0.021-0.214,0.007-0.298-0.03
			c0.111-0.041,0.215-0.081,0.319-0.128c0.392-0.171,0.752-0.376,1.091-0.604l0.004-0.003c0.218-0.147,0.422-0.303,0.63-0.47
			l0.003-0.004c1.961-0.148,3.908,0.02,5.849,0.514C111.742,222.566,111.477,223.537,110.845,223.375z"/>
		<path fill="#FFE9CF" d="M113.099,220.77c-2.001-0.678-4.022-0.846-6.084-0.47c0.135-0.13,0.272-0.262,0.413-0.396
			c0.205-0.192,0.417-0.39,0.639-0.587c0.069-0.061,0.137-0.125,0.205-0.185c1.715-0.121,3.421,0.097,5.096,0.668
			C113.977,220.008,113.713,220.981,113.099,220.77z"/>
		<path fill="#FFE9CF" d="M115.311,217.97c-1.931-0.883-4.055-0.866-5.969,0.034c0.286-0.343,0.527-0.675,0.736-0.994h0.003
			c0.063-0.101,0.124-0.198,0.185-0.295c0.024-0.041,0.051-0.084,0.074-0.125c1.82-0.477,3.697-0.306,5.479,0.51
			C116.408,217.369,115.894,218.239,115.311,217.97z"/>
		<path fill="#E0A565" d="M126.966,227.343c-0.008,1.734,0.071,2.986-0.671,2.986c-0.742,0-27.043,0-27.813,0
			s-1.997-0.807-2.057-2.919c-0.004-0.157-0.002-0.308,0.007-0.449C102.288,226.899,126.966,227.343,126.966,227.343z"/>
		<path fill="#79684E" d="M87.795,227.343c-0.01,1.732-0.212,2.945-0.671,2.985c0.466-1.437-25.851-0.665-25.964-0.668
			c-1.075-0.003-2.837-0.138-2.897-2.249c-0.008-0.158-0.004-0.309,0.006-0.45c0.027-0.531,0.134-0.98,0.303-1.357
			c0.765-1.688,2.162-1.917,3.72-2.027c0.373-0.027,0.721-0.043,1.021-0.077c0.796-0.088,1.463-0.266,2.061-0.528
			c0.125-0.054,0.246-0.11,0.363-0.175c0.255-0.127,0.496-0.275,0.732-0.43v-0.003c0.208-0.141,0.409-0.289,0.604-0.446
			c0.199-0.159,0.389-0.323,0.584-0.498c0.252-0.225,0.504-0.46,0.763-0.708c0.271-0.258,0.55-0.53,0.848-0.809
			c0.078-0.074,0.155-0.148,0.235-0.222c0.132-0.121,0.263-0.241,0.403-0.365c0.074-0.068,0.147-0.135,0.218-0.202
			c0.309-0.282,0.578-0.563,0.819-0.836c0.014-0.013,0.027-0.03,0.037-0.043c0.306-0.346,0.563-0.681,0.786-1.003
			c0.049-0.075,0.1-0.148,0.147-0.222h0.003c0.063-0.101,0.125-0.198,0.185-0.295c0.182-0.303,0.339-0.595,0.484-0.873
			c0.675-1.326,1.017-2.374,2.216-3.052c1.409-0.796,3.059-0.775,3.908,0.826c0.054,0.104,0.104,0.211,0.145,0.333
			c0.215,0.645,0.244,2.088,0.493,3.31c0.181,0.906,0.484,1.688,1.067,1.944c1.968,0.853,4.603,0.682,4.532-2.085
			c0-0.003,0-0.003-0.003-0.007c0.08-1.315,0.101-2.541,0.101-2.541c0.917,0.017,1.451,2.3,2.008,5.253
			c0.02,0.104,0.033,0.188,0.043,0.252c0.325,1.793,0.557,3.754,0.651,5.476C87.782,226.188,87.799,226.79,87.795,227.343z"/>
		<path fill="#E0A565" d="M87.797,227.343c-0.01,1.734,0.069,2.986-0.673,2.986c-0.742,0-26.035,0-26.806,0
			c-0.77,0-1.996-0.807-2.057-2.919c-0.005-0.157-0.002-0.308,0.007-0.449C64.125,226.899,87.797,227.343,87.797,227.343z"/>
		<path fill="#FFE9CF" d="M69.679,223.127c-1.266-0.098-2.534-0.195-3.8-0.296c-0.053-0.003-0.1-0.013-0.144-0.034
			c0.255-0.127,0.496-0.275,0.732-0.43v-0.003c0.208-0.141,0.409-0.289,0.604-0.446c0.87,0.067,1.739,0.133,2.608,0.2
			C70.321,222.17,70.324,223.177,69.679,223.127z"/>
		<path fill="#FFE9CF" d="M71.446,221.059c-1.007-0.329-2.014-0.443-3.027-0.346c0.271-0.258,0.55-0.53,0.848-0.809
			c0.078-0.074,0.155-0.148,0.235-0.222c0.746,0.034,1.485,0.168,2.213,0.407C72.329,220.286,72.063,221.26,71.446,221.059z"/>
		<path fill="#FFE9CF" d="M74.605,218.215c-1.208,0.021-2.417,0.031-3.626,0.021c0.306-0.346,0.563-0.681,0.786-1.003
			c0.946,0,1.893-0.007,2.84-0.024C75.256,217.195,75.253,218.205,74.605,218.215z"/>
	</g>
	
		<line fill="none" stroke="#B7BEBC" stroke-width="13" stroke-linejoin="round" stroke-miterlimit="10" x1="176.608" y1="178.783" x2="179.816" y2="229.083"/>
	<path fill="none" stroke="#7F8593" stroke-width="13" stroke-linejoin="round" stroke-miterlimit="10" d="M144.083,179.834
		l0.315-5.119c0-1.864,1.511-3.375,3.374-3.375h23.594c2.813,0,5.092,2.28,5.092,5.092l0.149,2.349"/>
	
		<line fill="none" stroke="#B7BEBC" stroke-width="13" stroke-linejoin="round" stroke-miterlimit="10" x1="141.041" y1="229.083" x2="144.083" y2="179.834"/>
	<path fill="none" stroke="#7F8593" stroke-width="13" stroke-linejoin="round" stroke-miterlimit="10" d="M90.182,229.083
		l3.357-54.367c0-1.864,1.511-3.375,3.374-3.375h23.594c2.811,0,5.091,2.28,5.091,5.092l3.358,52.649"/>
	<g>
		<g>
			<path fill="#B8CC27" d="M179.17,156.335c0.808,5.255-3.513,10.022-9.6,10.594l-24.933,2.341
				c-6.087,0.571-11.249-3.96-11.47-10.071l-0.048-1.31c-0.221-6.11,0.708-15.988,2.063-21.95l2.994-13.166
				c1.355-5.962,7.303-12.111,13.217-13.663l6.932-1.82c5.914-1.552,13.413-2.823,16.666-2.823s5.536,4.988,5.075,11.085
				l-1.524,20.141C178.08,141.792,178.363,151.08,179.17,156.335z"/>
		</g>
		<g>
			<path fill="#73913F" d="M173.287,150.124c0.231,1.839,0.784,6.252,1.229,9.807c0.445,3.554-4.177,6.877-10.27,7.383
				l-12.647,1.052c-6.093,0.506-13.844,1.15-17.224,1.431s-6.326-4.489-6.546-10.6l-0.047-1.308
				c-0.22-6.11,0.52-16.027,1.646-22.037l3.831-20.456c1.125-6.01,7.049-10.927,13.164-10.927h19.2
				c6.115,0,10.662,4.982,10.104,11.071l-1.845,20.168C173.323,141.798,173.056,148.285,173.287,150.124z"/>
		</g>
		<path opacity="0.55" fill="#56662D" d="M175.324,166.393l-34.804,2.894v-38.312h20.585c2.073,0,3.755,1.681,3.755,3.754v14.984
			c0,2.073,1.68,3.754,3.754,3.754h5.093L175.324,166.393z"/>
		<polygon fill="#6B823A" points="143.709,170.309 102.988,170.309 102.988,163.413 175.73,163.413 		"/>
		<path fill="#B8CC27" d="M150.197,170.309c0,0,21.744,0,25.562,0c4.914,0,4.914-4.343,4.634-6.159
			c-0.212-1.377-0.443-2.771-0.443-2.771l-1.514,2.034h-25.717c0,0-5.656-0.601-5.656,3.988
			C147.063,170.198,150.197,170.309,150.197,170.309z"/>
		<g>
			<path fill="#6B823A" d="M141.863,176.998H96.558v-3.357c0-5.524,4.496-10.02,10.021-10.02h39.146v6.714l0,0
				c-1.822,0-3.861,1.483-3.861,3.306V176.998z"/>
		</g>
		<polygon fill="#56662D" points="163.797,106.858 170.063,128.009 158.761,129.912 156.635,107.195 		"/>
	</g>
	<polygon fill="#B7BEBC" points="212.163,136.919 218.879,229.967 213.951,229.967 207.237,136.919 	"/>
	<polygon fill="#B7BEBC" points="186.463,136.919 193.178,229.967 188.248,229.967 181.533,136.919 	"/>
	<g>
		<g>
			
				<polyline fill="none" stroke="#FFA788" stroke-width="22" stroke-linecap="round" stroke-linejoin="round" stroke-miterlimit="10" points="
				124.67,104.511 115.658,129.648 102.806,128.642 			"/>
			<polygon fill="#F58D6C" points="119.146,108.985 124.63,115.475 126.699,109.769 119.538,108.089 			"/>
			<path fill="#19A3DC" d="M161.939,93.028l-0.101,54.984c0,4.388-3.457,15.15-7.845,15.15h-23.84c-4.285,0-6.778-3.404-6.916-7.684
				c0-0.007,1.678-0.013,1.678-0.017c-0.047-1.299,0.037-7.91,0.175-16.262c0.161-10.008,0.399-22.517,0.57-31.39
				c0.13-6.64-0.783-11.247-0.783-11.247c0-4.918,2.938-11.26,9.155-13.778c1.723-0.698,3.693-1.104,5.926-1.104l7.836,0.192
				c0.25-0.003,0.51,0.003,0.775,0.02c5.029,0.302,11.841,3.791,13.052,8.608C161.828,91.313,161.939,92.159,161.939,93.028z"/>
			<path fill="#FFFFFF" d="M148.608,82.077l-0.252,0.584c-0.117,0.272-2.947,6.685-8.298,6.685c-2.231,0-3.55-0.883-4.268-1.625
				c-1.226-1.272-1.434-2.856-1.465-3.528c0,0-0.352-1.436,1.412-1.977c1.273-0.39,2.693-0.535,4.222-0.535l7.836,0.192
				c0.25-0.003,0.51,0.003,0.775,0.02L148.608,82.077z"/>
			<polygon opacity="0.52" fill="#267099" points="161.939,105.459 161.939,130.582 156.635,131.142 156.635,102.438 			"/>
			<g>
				<path fill="#19A3DC" d="M132.956,98.01l-3.018,8.393c-0.823,2.287-0.886,4.932-3.183,4.932c-0.222,0-0.591-0.067-1.006-0.167
					h-0.008c-0.774-0.182-1.705-0.467-2.11-0.61c-2.143-0.773-4.386-2.705-4.386-2.705s-0.486-1.009-0.21-1.778
					c0,0,0.246-0.587,0.655-1.557c1.389-3.287,4.696-10.949,6.898-14.836c2.854-5.035,1.847-0.765,4.758,0.279
					C134.253,91.007,134,95.099,132.956,98.01z"/>
				<path fill="#FFFFFF" d="M125.664,107.504c0,0.101,0,0.205-0.003,0.306c-0.021,1.058-0.044,2.168-0.064,3.32
					c-0.742-0.178-1.584-0.44-1.967-0.573c-2.143-0.773-5.436-2.327-5.436-2.327s0.564-1.387,0.839-2.156c0,0,0.01-0.147,0.42-1.118
					L125.664,107.504z"/>
			</g>
			
				<path fill="none" stroke="#FFA788" stroke-width="22" stroke-linecap="round" stroke-linejoin="round" stroke-miterlimit="10" d="
				M162.698,103.203c4.453,11.157,7.786,26.832,7.786,26.832h-17.603"/>
			<g>
				<path fill="#19A3DC" d="M169.98,106.719l-10.743,3.273c0,0-0.386-1.091-0.83-2.303c-0.316-0.853-0.654-1.772-0.91-2.411
					c-3.229-8.094-5.318-10.343-5.878-10.839c-2.319-2.045-2.542-5.583-0.497-7.9c2.045-2.32,5.6-2.323,7.863-0.215
					c3.247,3.021,5.862,7.161,8.914,14.802c0.316,0.786,0.679,1.756,1.017,2.666C169.49,105.342,169.98,106.719,169.98,106.719z"/>
			</g>
			<g>
				<path fill="#FFB287" d="M136.335,83.962c0,0-0.123,3.369,3.723,3.369c4.087,0,6.449-5.47,6.449-5.47l-2.134-10.345
					l-10.743-0.588L136.335,83.962z"/>
				<path fill="#E5785C" d="M135.781,81.299c2.854,0.34,10.427-0.827,10.047-2.655c-0.379-1.828-2.003-9.77-2.003-9.77
					l-10.606,0.072L135.781,81.299z"/>
				<path fill="#E5785C" d="M125.842,64.89c0,2.446,2.131,8.083,3.454,9.771c0.564,0.719,1.343,2.354,3.134,2.896
					c1.629,0.495,2.803,0.899,3.032,2.116c0.179,0.938,1.567-1.29,2.252-1.29c8.141,0,12.165-8.77,12.165-14.744l-2.509-7.837
					c0-6.54-4.341-11.241-10.657-11.193c-6.318,0.048-11.405,4.356-11.405,10.896L125.842,64.89z"/>
			</g>
			<path fill="#FFA788" d="M100.325,130.917c-3.003,0-3.709,0-5.746,0s-3.692,0.221-3.692-1.706s1.089-4.199,5.659-4.199
				c4.571,0,2.749,0,5.255,0C104.307,125.013,103.33,130.917,100.325,130.917z"/>
		</g>
		<path fill="#267099" d="M161.939,139.2v16.02c0,4.389-3.558,7.943-7.945,7.943h-23.84c-4.285,0-6.778-3.404-6.916-7.684
			c0-0.007,1.678-0.013,1.678-0.017c-0.047-1.299,0.037-7.91,0.175-16.262H161.939z"/>
	</g>
	<polygon fill="#7F8593" points="42.312,137.625 35.598,229.967 30.671,229.967 37.385,137.625 	"/>
	<polygon fill="#B7BEBC" points="16.986,137.625 10.271,229.967 5.344,229.967 12.058,137.625 	"/>
	<g>
		<path fill="#363550" d="M88.654,212.589c0.026-0.124,2.244-8,5.743-21.208c4.97-18.771,8.077-25.623,9.433-27.994h23.016
			c3.813,0,6.905-3.091,6.905-6.905c0-3.813-3.091-8.06-6.905-8.06h-26.727c-10.7,0-11.339,10.006-13.233,14.76
			c-2.051,5.149-13.26,44.957-13.39,45.569c-0.383,1.805,2.606,3.292,5.871,3.981C82.85,213.468,88.298,214.266,88.654,212.589z"/>
	</g>
	<path fill="#3E425B" d="M124.477,148.341c-2.314,0-6.584,2.231-8.461,8.888c-0.547,1.941-1.018,4.534-1.442,7.927
		c-0.652,5.235-1.194,12.467-1.609,21.497c-0.7,15.203-1.231,24.236-1.233,24.39c-0.012,1.887,16.123,3.343,16.135,1.425
		c0-0.126,0.427-7.778,0.968-21.341c0.651-16.366,1.547-24.124,2.177-27.74h23.943c3.882,0,7.028-4.137,7.028-8.019v-7.028H124.477z
		"/>
	<path opacity="0.4" fill="#754559" d="M168.134,121.782c0.107,0.097,0.174,0.16,0.197,0.183
		C168.282,121.901,168.215,121.838,168.134,121.782z"/>
	<path opacity="0.4" fill="#754559" d="M160.437,120.651l-0.295-0.011C160.228,120.647,160.325,120.651,160.437,120.651z"/>
	<g>
		
			<line fill="none" stroke="#FFA788" stroke-width="7.4346" stroke-linecap="round" stroke-linejoin="round" stroke-miterlimit="10" x1="145.698" y1="122.499" x2="139.909" y2="120.324"/>
		<g>
			<g>
				<polygon fill-rule="evenodd" clip-rule="evenodd" fill="#EDDFBC" points="144.244,116.664 144.208,117.135 144.111,118.393 
					143.991,119.972 143.218,130.095 142.964,133.415 132.668,133.415 132.648,133.175 132.495,131.488 132.435,130.81 
					132.372,130.095 134.226,129.044 134.645,127.953 133.805,126.022 131.478,119.972 131.342,118.393 131.229,117.135 
					131.173,116.505 				"/>
				<rect x="131.811" y="113.105" fill-rule="evenodd" clip-rule="evenodd" fill="#EDDFBC" width="11.795" height="1.156"/>
				<path fill-rule="evenodd" clip-rule="evenodd" fill="#F2E9D1" d="M144.955,114.261v2.875h-14.493v-2.875H144.955z"/>
				<polygon fill-rule="evenodd" clip-rule="evenodd" fill="#EA4B4B" points="143.991,119.972 143.219,130.097 132.373,130.097 
					131.479,119.972 				"/>
			</g>
			<path fill-rule="evenodd" clip-rule="evenodd" fill="#B2A88D" d="M131.23,117.136l0.08,0.922h12.828l0.07-0.922H131.23z"/>
			<polygon opacity="0.4" fill-rule="evenodd" clip-rule="evenodd" fill="#8271A8" points="143.607,114.26 143.607,113.105 
				141.068,113.105 141.068,114.26 142.029,114.26 142.029,117.136 141.497,117.136 141.446,118.058 141.427,118.394 
				141.343,119.972 140.792,130.097 140.611,133.415 142.964,133.415 143.219,130.097 143.991,119.972 144.112,118.394 
				144.137,118.058 144.208,117.136 144.955,117.136 144.955,114.26 			"/>
			<g>
				<polygon fill-rule="evenodd" clip-rule="evenodd" fill="#FFFFFF" points="133.736,113.105 133.736,114.261 134.969,114.261 
					137.708,114.261 137.708,113.105 				"/>
				<polygon opacity="0.6" fill-rule="evenodd" clip-rule="evenodd" fill="#FFFFFF" points="133.736,114.261 132.99,114.261 
					132.99,117.136 134.969,117.136 134.969,114.261 				"/>
				<polygon opacity="0.4" fill-rule="evenodd" clip-rule="evenodd" fill="#FFFFFF" points="135.533,119.972 135.457,118.394 
					135.441,118.058 135.44,118.058 133.459,118.058 133.476,118.394 133.553,119.972 134.048,130.097 134.21,133.415 
					136.192,133.415 136.029,130.097 				"/>
			</g>
			<polygon opacity="0.66" fill-rule="evenodd" clip-rule="evenodd" fill="#8271A8" points="134.813,124.428 135.429,125.603 
				135.317,128.009 136.268,129.744 135.988,130.975 138.506,133.101 142.982,133.101 143.429,127.449 138.842,123.197 			"/>
		</g>
		<g>
			
				<line fill="none" stroke="#FFA788" stroke-width="7.4346" stroke-linecap="round" stroke-linejoin="round" stroke-miterlimit="10" x1="151.582" y1="128.232" x2="145.698" y2="122.499"/>
			<g>
				<path fill="#FFA788" d="M151.075,133.141l-5.729-0.634c-0.303-0.036-0.035-0.731-0.304-0.839
					c0.486-1.417,1.434-4.104,1.434-4.104s0.666-4.115,0.984-5.096l5.565,5.226C154.073,128.396,156.812,133.643,151.075,133.141z"
					/>
				<g>
					<path fill="#FFA788" d="M149.427,128.09c0.166,2.659-2.014,4.614-4.844,4.344s-4.958-2.635-4.728-5.256
						c0.23-2.621,2.41-4.576,4.844-4.344C147.134,123.066,149.261,125.431,149.427,128.09z"/>
				</g>
				
					<line fill="none" stroke="#FFBB99" stroke-width="8.0015" stroke-linecap="round" stroke-miterlimit="10" x1="140.268" y1="123.945" x2="135.709" y2="123.645"/>
				
					<line fill="none" stroke="#FFA788" stroke-width="8.8936" stroke-linecap="round" stroke-miterlimit="10" x1="145.875" y1="124.56" x2="140.723" y2="124.108"/>
				
					<line fill="none" stroke="#FFBB99" stroke-width="8.0015" stroke-linecap="round" stroke-miterlimit="10" x1="140.901" y1="127.261" x2="135.54" y2="126.666"/>
				
					<line fill="none" stroke="#FFA788" stroke-width="8.8936" stroke-linecap="round" stroke-miterlimit="10" x1="143.894" y1="127.481" x2="140.904" y2="127.22"/>
				
					<line fill="none" stroke="#FFBB99" stroke-width="8.0015" stroke-linecap="round" stroke-miterlimit="10" x1="141.756" y1="130.533" x2="136.547" y2="129.967"/>
				
					<line fill="none" stroke="#FFA788" stroke-width="8.8936" stroke-linecap="round" stroke-miterlimit="10" x1="145.056" y1="130.791" x2="141.757" y2="130.511"/>
			</g>
		</g>
	</g>
	<g>
		<path fill="#3D424C" d="M94.721,130.279v1.611c0,0.806-0.658,1.467-1.467,1.467H53.609c-0.806,0-1.464-0.661-1.464-1.467v-1.611
			c0-0.805,0.658-1.464,1.464-1.464h39.646C94.063,128.815,94.721,129.474,94.721,130.279z"/>
		<path fill="#33383F" d="M91.841,129.239l-4.717,4.119H53.609c-0.806,0-1.464-0.661-1.464-1.467v-1.611
			c0-0.805,0.658-1.464,1.464-1.464h37.375L91.841,129.239z"/>
		<path fill="#575E70" d="M116.099,131.892c0,0.807-0.661,1.466-1.466,1.466h-20.75c-0.806,0-1.466-0.66-1.466-1.466v-1.61
			c0-0.807,0.66-1.467,1.466-1.467h20.75c0.805,0,1.466,0.66,1.466,1.467V131.892z"/>
		<g opacity="0.4">
			<path fill="#754559" d="M99.509,132.162c0,0.344-0.281,0.625-0.625,0.625h-2.856c-0.343,0-0.625-0.281-0.625-0.625v-0.687
				c0-0.344,0.281-0.625,0.625-0.625h2.856c0.343,0,0.625,0.281,0.625,0.625V132.162z"/>
		</g>
		<g opacity="0.7">
			<path fill="#3B2D3C" d="M99.509,131.339c0,0.344-0.281,0.625-0.625,0.625l-2.231,0c-0.343,0-0.625-0.281-0.625-0.625v-0.687
				c0-0.343,0.282-0.625,0.625-0.625h2.231c0.343,0,0.625,0.282,0.625,0.625V131.339z"/>
		</g>
		<g opacity="0.7">
			<path fill="#3B2D3C" d="M98.883,131.339c0,0.344-0.281,0.625-0.625,0.625l-2.23,0c-0.343,0-0.625-0.281-0.625-0.625v-0.687
				c0-0.343,0.281-0.625,0.625-0.625h2.23c0.344,0,0.625,0.282,0.625,0.625V131.339z"/>
		</g>
		<path fill="#DEDEE2" d="M99.283,131.339c0,0.344-0.282,0.625-0.625,0.625l-2.231,0c-0.343,0-0.625-0.281-0.625-0.625v-0.687
			c0-0.343,0.282-0.625,0.625-0.625h2.231c0.343,0,0.625,0.282,0.625,0.625V131.339z"/>
		<path fill="#FFFFFF" d="M100.397,131.339c0,0.344-0.281,0.625-0.625,0.625h-2.23c-0.343,0-0.625-0.281-0.625-0.625v-0.687
			c0-0.343,0.282-0.625,0.625-0.625h2.23c0.344,0,0.625,0.282,0.625,0.625V131.339z"/>
	</g>
	<g>
		<path fill="#FF950E" d="M173.422,140.349h47.724c1.994,0,3.612-1.617,3.612-3.611v0c0-1.995-1.618-3.611-3.612-3.611h-53.432
			c-1.994,0-4.925,1.616-4.925,3.611l1.313,0C164.103,138.732,171.427,140.349,173.422,140.349z"/>
		<path fill="#C14721" d="M1.495,136.738L1.495,136.738c0,1.995,1.617,3.611,3.611,3.611h169.763c1.994,0,3.611-1.617,3.611-3.611
			l0,0c0-1.994-1.617-3.61-3.611-3.61H5.106C3.112,133.128,1.495,134.744,1.495,136.738z"/>
	</g>
	<path fill="none" stroke="#B8CC27" stroke-width="20" stroke-linecap="round" stroke-linejoin="round" stroke-miterlimit="10" d="
		M141.041,173.64c0-3.68,3.116-6.799,7.145-6.799h5.763"/>
	<g>
		<path fill="#434A54" d="M92.693,127.694c0.089,0.801-0.497,1.457-1.304,1.457H52.157c-0.807,0-1.539-0.656-1.628-1.457
			L46.358,90.18c-0.09-0.801,0.497-1.457,1.303-1.457h39.232c0.807,0,1.539,0.656,1.628,1.457L92.693,127.694z"/>
		<path fill="#5F6777" d="M93.132,128.107c0.063,0.574-0.325,1.043-0.862,1.043c-0.536,0-1.025-0.469-1.087-1.043l-1.219-11.192
			c-0.063-0.575-0.165-1.514-0.227-2.087l-1.117-10.292c-0.063-0.574-0.131-1.205-0.153-1.401c-0.021-0.196-0.091-0.826-0.153-1.4
			l-0.384-3.509c-0.063-0.574-0.164-1.513-0.227-2.088l-0.692-6.372c-0.063-0.574,0.325-1.043,0.862-1.043
			c0.536,0,1.025,0.47,1.086,1.043l0.156,1.446c0.062,0.574,0.131,1.214,0.154,1.422c0.022,0.208,0.092,0.849,0.155,1.423
			l0.613,5.649c0.063,0.574,0.143,1.309,0.177,1.632c0.035,0.324,0.115,1.059,0.177,1.633l1.073,9.827
			c0.063,0.574,0.165,1.514,0.228,2.087L93.132,128.107z"/>
		<path fill="#676D7C" d="M71.766,109.818c0.235,1.854-1.077,3.356-2.931,3.356c-1.853,0-3.547-1.503-3.781-3.356
			c-0.235-1.854,1.077-3.356,2.931-3.356C69.838,106.462,71.531,107.965,71.766,109.818z"/>
	</g>
	<polygon fill="#F58D6C" points="161.223,110.16 169.056,110.048 167.602,105.627 160.384,107.754 	"/>
	<path fill="#FFFFFF" d="M169.98,106.719l-10.743,3.273l-1.119-3.035l10.797-3.166C169.49,105.342,169.98,106.719,169.98,106.719z"
		/>
	<g>
		<path fill="#8E3925" d="M153.211,59.539c-0.55,7.665-2.444,9.735-5.441,9.735c-2.457,0-4.493-3.392-4.404-4.185
			s0.969-5.462,1.674-5.727C145.745,59.098,153.211,59.539,153.211,59.539z"/>
		<path fill="#8E3925" d="M146.198,67.641c0.487-0.977,0.787,2.129,0.794,1.757c0.124-6.524,5.712-1.667,6.153-8.891
			c0.375-6.159,0.428-6.213,0.595-9.206c0.331-5.947-3.124-12.256-15.834-12.159c-7.077,0.055-8.891,2.802-10.486,6.405
			c-2.971,6.712-0.572,15.333-0.572,15.333L146.198,67.641z"/>
		<path fill="#E5785C" d="M125.576,64.829c0,2.448,2.133,8.091,3.458,9.779c0.564,0.72,1.344,2.355,3.136,2.899
			c1.631,0.494,3.987-1.576,3.987-0.695c0,0.956,0.617,1.521,1.303,1.521c8.148,0,12.175-8.777,12.175-14.757l-2.51-7.844
			c0-6.545-4.345-11.251-10.667-11.203c-6.324,0.049-11.415,4.36-11.415,10.906L125.576,64.829z"/>
		<path fill="#FFB287" d="M124.876,55.182l0.085,2.6l0.227,7.051c0.239,6.868,1.779,13.213,10.117,13.143
			c8.323-0.057,10.556-10.133,10.33-16.661l-0.395-5.681c0-0.24,0-0.48-0.015-0.707c-0.17-8.521-3.632-11.644-9.75-11.644
			C127.123,43.283,124.651,48.64,124.876,55.182z"/>
		<g>
			<path fill="#E5785C" d="M132.293,66.411c-1.187,0.002-2.196-0.668-2.145-1.352c0.02-0.249,0.268-0.549,0.733-0.33
				c0.213,0.101,0.791,0.218,1.403,0.214c0.613-0.003,0.945-0.127,1.292-0.23c0.755-0.227,0.993,0.07,1.012,0.318
				C134.642,65.713,133.48,66.397,132.293,66.411z"/>
		</g>
		<path fill="#E5785C" d="M145.511,60.716c-0.173,2.439,1.067,4.535,2.77,4.68c1.703,0.146,3.224-1.714,3.397-4.154
			c0.172-2.439-0.777-4.339-2.463-4.639C147.53,56.302,145.683,58.277,145.511,60.716z"/>
		<path fill="#422B27" d="M138.302,60.177c0,0.58-0.474,1.054-1.058,1.058c-0.585,0.004-1.058-0.462-1.058-1.042
			c0-0.58,0.473-1.053,1.058-1.058C137.828,59.131,138.302,59.598,138.302,60.177z"/>
		<path fill="#422B27" d="M128.959,60.339c0,0.58-0.473,1.054-1.058,1.058c-0.585,0.004-1.058-0.462-1.058-1.042
			s0.473-1.053,1.058-1.057C128.486,59.294,128.959,59.76,128.959,60.339z"/>
		<path fill="#8E3925" d="M146.507,56.002"/>
		<path fill="#8E3925" d="M142.539,55.239"/>
		
			<line fill="none" stroke="#8E3925" stroke-width="2" stroke-linecap="round" stroke-miterlimit="10" x1="140.14" y1="55.869" x2="135.379" y2="55.773"/>
		
			<line fill="none" stroke="#8E3925" stroke-width="2" stroke-linecap="round" stroke-miterlimit="10" x1="129.469" y1="55.951" x2="125.369" y2="56.247"/>
		<path fill="#8E3925" d="M148.074,54.744c0-3.707-1.66-7.019-4.248-9.186c1.248-1.55,1.701-3.868,1.434-4.08
			c-0.44-0.353-6.151-4.597-12.892-0.699c-4.615,2.669-6.726,4.461-5.936,6.356c-0.011,0.021-0.021,0.043-0.031,0.064
			c0.012-0.014,0.026-0.027,0.04-0.042c0.713,1.684,2.3,2.777,3.709,2.777c5.902,0,5.777-3.466,10.175-3.128
			c1.718,0.132,4.328,1.223,4.328,5.518c0,4.659,0.762,9.516,0.792,9.519c1.382,0.089,1.4-0.808,1.4-0.808
			c0-2.467,0.369-3.847,1.938-4.581L148.074,54.744z"/>
		<path fill="none" stroke="#E5785C" stroke-width="2" stroke-linecap="round" stroke-miterlimit="10" d="M130.65,70.47
			c0.688,0.485,1.736,0.563,2.645,0.563c0.908,0,2.375-0.08,3.066-0.565"/>
		<path opacity="0.6" fill="#C67560" d="M124.876,55.182l0.085,2.6c0.367-1.823,6.038-2.201,12.283-1.961
			c3.73,0.156,7.562,0.426,7.689,1.961c-0.17-8.521-3.341-14.499-9.458-14.499C127.123,43.283,124.651,48.64,124.876,55.182z"/>
		<g>
			<path fill="#FCA903" d="M125.511,51.279c0.921-0.707,1.88-0.354,6.146-0.354c4.833,0,9.768,0.707,13.736,1.911
				c4.016,1.213,7.038,2.937,7.927,4.919c0.416,0.305,1.06-3.62,1.123-6.443c0.009-0.158,0.009-0.306,0.009-0.454
				c0-1.112-0.138-2.216-0.416-3.281c-1.218-4.609-5.114-8.539-12.217-9.667c-0.028,0-0.057-0.014-0.071-0.014
				c-0.792-0.125-1.624-0.211-2.502-0.268c-0.31-0.02-0.611-0.029-0.913-0.029c-1.857-0.023-3.486,0.253-4.9,0.735
				c-0.099,0.034-0.201,0.067-0.296,0.11c-3.634,1.328-5.84,4.035-6.977,6.614C124.746,48.242,124.861,51.227,125.511,51.279z"/>
			<path fill="#D86619" d="M120.709,49.688c1.466,0.071,3.099-0.077,4.802-0.025c-0.521,1.652-0.704,3.529-0.636,5.519l0,0
				C114.03,55.725,111.76,49.257,120.709,49.688z"/>
			<path fill="#FCA903" d="M153.321,57.756c-0.889-1.982-3.912-3.706-7.927-4.919c-3.969-1.204-8.902-1.91-13.736-1.91
				c-4.265,0-5.224-0.354-6.146,0.353c-0.65-0.053-0.765-3.037,0.649-6.218c1.136-2.578,3.343-5.287,6.978-6.614
				c-3.085,1.905-3.387,6.905-3.596,8.481c-0.239,1.791,4.776,2.149,12.537,4.059C149.839,52.899,153.22,55.807,153.321,57.756z"/>
		</g>
		<path fill="#FFE14E" d="M145.39,52.838c1.308-5.953,3.974-14.704-9.599-14.555C121.814,38.436,125.347,51.8,125.347,51.8
			L145.39,52.838z"/>
		<path fill="#FFC229" d="M118.207,49.772c3.536-0.088,4.734,1.6,12.167,4.019c5.639,1.838,11.129-0.094,15.016-0.953
			c-1.329-1.209-14.861-3.285-22.327-3.337C121.121,49.487,118.532,49.724,118.207,49.772z"/>
	</g>
</g>
</svg>
