<?xml version="1.0" encoding="utf-8"?>
<!-- Generator: Adobe Illustrator 16.0.0, SVG Export Plug-In . SVG Version: 6.00 Build 0)  -->
<!DOCTYPE svg PUBLIC "-//W3C//DTD SVG 1.1//EN" "http://www.w3.org/Graphics/SVG/1.1/DTD/svg11.dtd">
<svg version="1.1" id="Layer_1" xmlns="http://www.w3.org/2000/svg" xmlns:xlink="http://www.w3.org/1999/xlink" x="0px" y="0px"
	 width="285.654px" height="231.9px" viewBox="0 0 285.654 231.9" enable-background="new 0 0 285.654 231.9" xml:space="preserve">
<g>
	<g opacity="0.37">
		<path fill="#8A829E" d="M259.001,230.087c0-0.997-2.834-1.813-6.299-1.813H24.922c-3.464,0-6.298,0.815-6.298,1.813
			c0,0.998,2.834,1.813,6.298,1.813h227.781C256.167,231.9,259.001,231.084,259.001,230.087z"/>
	</g>
	<path fill="#6D463A" d="M147.988,210.708c1.992,0.982,9.318-5.891,9.289-4.616c-0.084,3.693,1.301,15.611-0.293,15.611
		c-0.771,0-9.891-0.979-9.891-0.979L147.988,210.708z"/>
	<path fill="#6D463A" d="M110.611,210.96c1.992,0.982,10.159-0.706,9.317,0.252c-2.434,2.771,0.083,10.491-2.056,10.491
		c-0.771,0-10.786-0.504-10.786-0.504L110.611,210.96z"/>
	<g>
		<path fill="#79684E" d="M160.509,227.343c-0.008,1.732-0.213,2.945-0.67,2.985c0.463-1.437-26.859-0.665-26.977-0.668
			c-1.073-0.003-2.836-0.138-2.896-2.249c-0.003-0.158,0-0.309,0.007-0.45c0.026-0.53,0.134-0.979,0.305-1.356
			c0.763-1.688,2.162-1.917,3.721-2.027c0.37-0.027,0.718-0.043,1.021-0.077c0.654-0.07,1.229-0.205,1.742-0.399
			c0.111-0.041,0.215-0.081,0.319-0.128c0.392-0.172,0.752-0.376,1.091-0.604l0.004-0.003c0.218-0.147,0.422-0.303,0.63-0.47
			l0.003-0.004c0.186-0.148,0.37-0.306,0.551-0.471c0.394-0.349,0.782-0.728,1.198-1.121c0.135-0.13,0.272-0.262,0.413-0.396
			c0.205-0.192,0.417-0.39,0.639-0.587c0.069-0.062,0.138-0.125,0.205-0.186c0.006-0.007,0.01-0.01,0.017-0.017
			c0.306-0.282,0.58-0.563,0.82-0.836c0.08-0.094,0.16-0.185,0.234-0.275c0.285-0.343,0.527-0.675,0.736-0.993h0.002
			c0.063-0.102,0.125-0.198,0.186-0.296c0.023-0.041,0.051-0.084,0.074-0.125c0.15-0.259,0.285-0.507,0.41-0.749
			c0.67-1.325,1.016-2.374,2.211-3.052c1.414-0.796,5.744-0.774,6.598,0.826c0.053,0.104,0.102,0.211,0.141,0.333
			c0.219,0.646,0.244,2.088,0.494,3.31c0.18,0.906,0.492,1.662,1.066,1.944c2.643,1.282,2.76-0.57,2.857-2.085
			c-0.004-0.003-0.004-0.003-0.004-0.007c0.078-1.315-0.189-2.688-0.189-2.688c0.916,0.017,1.738,2.447,2.299,5.401
			c0.021,0.104,0.031,0.188,0.045,0.252c0.32,1.793,0.557,3.754,0.65,5.476C160.493,226.188,160.513,226.79,160.509,227.343z"/>
		<path fill="#FFE9CF" d="M144.388,223.375c-2.43-0.618-4.865-0.706-7.33-0.246c-0.11,0.021-0.214,0.008-0.298-0.029
			c0.111-0.041,0.215-0.081,0.319-0.128c0.392-0.172,0.752-0.376,1.091-0.604l0.004-0.003c0.218-0.147,0.422-0.303,0.63-0.47
			l0.003-0.004c1.961-0.148,3.909,0.02,5.848,0.514C145.284,222.566,145.019,223.537,144.388,223.375z"/>
		<path fill="#FFE9CF" d="M146.642,220.77c-2.002-0.679-4.021-0.847-6.084-0.471c0.135-0.13,0.272-0.262,0.413-0.396
			c0.205-0.192,0.417-0.39,0.639-0.587c0.069-0.062,0.138-0.125,0.205-0.186c1.714-0.12,3.421,0.098,5.097,0.668
			C147.519,220.008,147.255,220.981,146.642,220.77z"/>
		<path fill="#FFE9CF" d="M148.853,217.97c-1.93-0.884-4.055-0.866-5.969,0.033c0.287-0.343,0.527-0.675,0.736-0.994h0.004
			c0.063-0.101,0.123-0.197,0.184-0.295c0.025-0.041,0.051-0.084,0.074-0.125c1.82-0.477,3.697-0.306,5.479,0.511
			C149.95,217.369,149.437,218.239,148.853,217.97z"/>
		<path fill="#E0A565" d="M160.509,227.343c-0.008,1.734,0.07,2.986-0.672,2.986s-27.042,0-27.813,0
			c-0.77,0-1.997-0.807-2.057-2.919c-0.004-0.157-0.002-0.308,0.007-0.449C135.831,226.899,160.509,227.343,160.509,227.343z"/>
		<path fill="#79684E" d="M121.338,227.343c-0.01,1.732-0.212,2.945-0.671,2.985c0.466-1.437-25.852-0.665-25.964-0.668
			c-1.075-0.003-2.838-0.138-2.897-2.249c-0.008-0.158-0.004-0.309,0.006-0.45c0.027-0.53,0.134-0.979,0.303-1.356
			c0.766-1.688,2.162-1.917,3.721-2.027c0.373-0.027,0.721-0.043,1.021-0.077c0.796-0.088,1.463-0.266,2.062-0.527
			c0.125-0.055,0.246-0.11,0.362-0.176c0.256-0.127,0.496-0.274,0.732-0.43v-0.003c0.208-0.141,0.409-0.289,0.604-0.446
			c0.199-0.159,0.39-0.322,0.585-0.498c0.252-0.225,0.504-0.46,0.763-0.708c0.271-0.258,0.55-0.529,0.848-0.809
			c0.078-0.074,0.155-0.148,0.235-0.222c0.132-0.121,0.263-0.241,0.402-0.365c0.074-0.068,0.147-0.135,0.219-0.202
			c0.309-0.282,0.578-0.563,0.818-0.836c0.015-0.013,0.027-0.03,0.037-0.043c0.307-0.346,0.563-0.681,0.786-1.003
			c0.049-0.075,0.101-0.148,0.147-0.222h0.003c0.063-0.102,0.125-0.198,0.185-0.296c0.183-0.303,0.339-0.595,0.484-0.873
			c0.675-1.325,1.017-2.373,2.216-3.052c1.409-0.796,3.059-0.774,3.908,0.826c0.054,0.104,0.104,0.211,0.145,0.333
			c0.215,0.646,0.244,2.088,0.493,3.31c0.181,0.906,0.484,1.688,1.067,1.944c1.968,0.854,4.603,0.683,4.531-2.085
			c0-0.003,0-0.003-0.003-0.007c0.08-1.315,0.102-2.541,0.102-2.541c0.917,0.017,1.451,2.3,2.008,5.253
			c0.02,0.104,0.033,0.188,0.043,0.252c0.325,1.793,0.557,3.754,0.651,5.476C121.325,226.188,121.342,226.79,121.338,227.343z"/>
		<path fill="#E0A565" d="M121.34,227.343c-0.01,1.734,0.069,2.986-0.673,2.986s-26.035,0-26.807,0c-0.77,0-1.996-0.807-2.057-2.919
			c-0.005-0.157-0.002-0.308,0.007-0.449C97.668,226.899,121.34,227.343,121.34,227.343z"/>
		<path fill="#FFE9CF" d="M103.221,223.127c-1.266-0.098-2.534-0.194-3.8-0.296c-0.053-0.003-0.101-0.013-0.145-0.034
			c0.255-0.127,0.496-0.274,0.732-0.43v-0.003c0.208-0.141,0.409-0.289,0.604-0.446c0.87,0.067,1.739,0.133,2.608,0.2
			C103.863,222.17,103.867,223.177,103.221,223.127z"/>
		<path fill="#FFE9CF" d="M104.988,221.059c-1.007-0.329-2.014-0.443-3.026-0.347c0.271-0.258,0.55-0.529,0.848-0.809
			c0.078-0.074,0.155-0.148,0.235-0.222c0.746,0.033,1.484,0.168,2.213,0.406C105.872,220.286,105.605,221.26,104.988,221.059z"/>
		<path fill="#FFE9CF" d="M108.147,218.215c-1.208,0.021-2.417,0.031-3.626,0.021c0.307-0.346,0.563-0.681,0.786-1.003
			c0.946,0,1.894-0.007,2.84-0.024C108.799,217.195,108.796,218.205,108.147,218.215z"/>
	</g>
	
		<line fill="none" stroke="#B7BEBC" stroke-width="13" stroke-linejoin="round" stroke-miterlimit="10" x1="210.15" y1="178.783" x2="213.359" y2="229.083"/>
	<path fill="none" stroke="#7F8593" stroke-width="13" stroke-linejoin="round" stroke-miterlimit="10" d="M177.626,179.834
		l0.314-5.119c0-1.863,1.512-3.375,3.373-3.375h23.596c2.813,0,5.092,2.28,5.092,5.093l0.148,2.349"/>
	
		<line fill="none" stroke="#B7BEBC" stroke-width="13" stroke-linejoin="round" stroke-miterlimit="10" x1="174.583" y1="229.083" x2="177.626" y2="179.834"/>
	<path fill="none" stroke="#7F8593" stroke-width="13" stroke-linejoin="round" stroke-miterlimit="10" d="M123.724,229.083
		l3.357-54.367c0-1.863,1.511-3.375,3.374-3.375h23.594c2.811,0,5.09,2.28,5.09,5.093l3.359,52.648"/>
	<g>
		<g>
			<path fill="#B8CC27" d="M212.712,156.335c0.809,5.255-3.512,10.022-9.6,10.595l-24.934,2.341
				c-6.086,0.57-11.248-3.96-11.469-10.071l-0.049-1.31c-0.221-6.11,0.709-15.988,2.063-21.95l2.994-13.166
				c1.355-5.962,7.303-12.111,13.217-13.663l6.934-1.82c5.912-1.552,13.412-2.823,16.666-2.823c3.252,0,5.535,4.988,5.074,11.085
				l-1.523,20.142C211.622,141.792,211.906,151.08,212.712,156.335z"/>
		</g>
		<g>
			<path fill="#73913F" d="M206.829,150.124c0.23,1.839,0.783,6.252,1.229,9.808c0.445,3.554-4.176,6.877-10.27,7.383l-12.646,1.052
				c-6.094,0.506-13.844,1.15-17.225,1.431c-3.379,0.281-6.326-4.488-6.545-10.6l-0.047-1.308c-0.221-6.11,0.52-16.027,1.645-22.037
				l3.832-20.456c1.125-6.011,7.049-10.928,13.164-10.928h19.199c6.115,0,10.662,4.982,10.104,11.071l-1.844,20.168
				C206.865,141.798,206.599,148.285,206.829,150.124z"/>
		</g>
		<path opacity="0.55" fill="#56662D" enable-background="new    " d="M208.866,166.393l-34.805,2.894v-38.312h20.586
			c2.072,0,3.754,1.681,3.754,3.754v14.983c0,2.073,1.682,3.754,3.754,3.754h5.094L208.866,166.393z"/>
		<polygon fill="#6B823A" points="177.251,170.309 136.53,170.309 136.53,163.413 209.273,163.413 		"/>
		<path fill="#B8CC27" d="M183.74,170.309c0,0,21.744,0,25.563,0c4.914,0,4.914-4.344,4.633-6.159
			c-0.211-1.377-0.441-2.771-0.441-2.771l-1.516,2.034h-25.717c0,0-5.656-0.601-5.656,3.988
			C180.605,170.198,183.74,170.309,183.74,170.309z"/>
		<g>
			<path fill="#6B823A" d="M175.406,176.998H130.1v-3.356c0-5.524,4.496-10.021,10.021-10.021h39.145v6.714l0,0
				c-1.822,0-3.861,1.483-3.861,3.307V176.998L175.406,176.998z"/>
		</g>
		<polygon fill="#56662D" points="197.339,106.858 203.605,128.009 192.304,129.912 190.177,107.195 		"/>
	</g>
	<polygon fill="#B7BEBC" points="245.706,136.919 252.421,229.967 247.493,229.967 240.779,136.919 	"/>
	<polygon fill="#B7BEBC" points="220.005,136.919 226.72,229.967 221.79,229.967 215.075,136.919 	"/>
	<g>
		<g>
			
				<polyline fill="none" stroke="#FFA788" stroke-width="7" stroke-linecap="round" stroke-linejoin="round" stroke-miterlimit="10" points="
				158.212,104.51 149.2,129.648 136.348,128.642 			"/>
			<polygon fill="#F58D6C" points="152.689,108.985 158.173,115.475 160.241,109.769 153.081,108.089 			"/>
			<path fill="#19A3DC" d="M195.482,93.028l-0.102,54.984c0,4.388-3.457,15.149-7.844,15.149h-23.842
				c-4.283,0-6.777-3.404-6.916-7.684c0-0.007,1.68-0.014,1.68-0.018c-0.047-1.299,0.037-7.91,0.174-16.262
				c0.162-10.008,0.398-22.517,0.57-31.39c0.131-6.641-0.783-11.247-0.783-11.247c0-4.918,2.938-11.261,9.156-13.778
				c1.723-0.698,3.691-1.104,5.926-1.104l7.836,0.191c0.25-0.003,0.51,0.003,0.773,0.021c5.029,0.302,11.842,3.791,13.053,8.607
				C195.37,91.313,195.482,92.159,195.482,93.028z"/>
			<path fill="#FFFFFF" d="M182.15,82.077l-0.252,0.584c-0.117,0.272-2.945,6.686-8.297,6.686c-2.23,0-3.551-0.884-4.268-1.625
				c-1.227-1.272-1.436-2.856-1.465-3.528c0,0-0.354-1.437,1.41-1.978c1.273-0.39,2.693-0.534,4.223-0.534l7.836,0.191
				c0.25-0.003,0.51,0.003,0.775,0.021L182.15,82.077z"/>
			<polygon opacity="0.52" fill="#267099" enable-background="new    " points="195.482,105.459 195.482,130.582 190.177,131.142 
				190.177,102.438 			"/>
			<g>
				<path fill="#19A3DC" d="M166.499,98.01l-3.02,8.394c-0.822,2.287-0.885,4.932-3.182,4.932c-0.223,0-0.592-0.066-1.006-0.167
					h-0.008c-0.775-0.182-1.705-0.467-2.111-0.609c-2.143-0.773-4.385-2.705-4.385-2.705s-0.486-1.01-0.211-1.778
					c0,0,0.246-0.587,0.654-1.557c1.391-3.287,4.697-10.949,6.898-14.836c2.854-5.035,1.848-0.766,4.758,0.278
					C167.796,91.007,167.542,95.099,166.499,98.01z"/>
				<path fill="#FFFFFF" d="M159.206,107.504c0,0.102,0,0.205-0.002,0.307c-0.021,1.058-0.045,2.168-0.064,3.319
					c-0.742-0.178-1.584-0.439-1.967-0.572c-2.145-0.773-5.438-2.327-5.438-2.327s0.564-1.388,0.84-2.156c0,0,0.01-0.147,0.42-1.118
					L159.206,107.504z"/>
			</g>
			<path fill="none" stroke="#FFA788" stroke-width="8" stroke-linecap="round" stroke-linejoin="round" stroke-miterlimit="10" d="
				M196.24,103.203c4.453,11.157,7.787,26.832,7.787,26.832h-17.604"/>
			<g>
				<path fill="#19A3DC" d="M203.523,106.719l-10.744,3.273c0,0-0.385-1.091-0.828-2.303c-0.316-0.854-0.654-1.772-0.91-2.411
					c-3.23-8.094-5.318-10.343-5.879-10.839c-2.318-2.045-2.541-5.583-0.496-7.9c2.045-2.32,5.6-2.323,7.861-0.215
					c3.248,3.021,5.863,7.161,8.914,14.802c0.316,0.786,0.68,1.756,1.018,2.666C203.032,105.342,203.523,106.719,203.523,106.719z"
					/>
			</g>
			<g>
				<path fill="#FFB287" d="M169.878,83.962c0,0-0.123,3.369,3.723,3.369c4.086,0,6.449-5.47,6.449-5.47l-2.135-10.345
					l-10.742-0.588L169.878,83.962z"/>
				<path fill="#E5785C" d="M169.323,81.299c2.854,0.341,10.428-0.826,10.047-2.654c-0.379-1.828-2.002-9.771-2.002-9.771
					l-10.607,0.072L169.323,81.299z"/>
				<path fill="#E5785C" d="M159.384,64.89c0,2.445,2.131,8.083,3.455,9.771c0.563,0.719,1.342,2.354,3.133,2.896
					c1.629,0.494,2.803,0.898,3.033,2.115c0.178,0.938,1.566-1.29,2.252-1.29c8.141,0,12.164-8.77,12.164-14.743l-2.508-7.838
					c0-6.539-4.342-11.24-10.658-11.192c-6.318,0.048-11.404,4.355-11.404,10.896L159.384,64.89z"/>
			</g>
			<path fill="#FFA788" d="M133.868,130.917c-3.004,0-3.709,0-5.746,0s-3.692,0.222-3.692-1.706c0-1.927,1.089-4.198,5.659-4.198
				c4.571,0,2.749,0,5.255,0C137.849,125.013,136.873,130.917,133.868,130.917z"/>
		</g>
		<path fill="#267099" d="M195.482,139.2v16.021c0,4.389-3.559,7.942-7.945,7.942h-23.84c-4.285,0-6.777-3.404-6.916-7.684
			c0-0.007,1.678-0.014,1.678-0.018c-0.047-1.299,0.037-7.91,0.176-16.262H195.482z"/>
	</g>
	<polygon fill="#7F8593" points="75.854,137.625 69.14,229.967 64.214,229.967 70.927,137.625 	"/>
	<polygon fill="#B7BEBC" points="50.528,137.625 43.813,229.967 38.886,229.967 45.6,137.625 	"/>
	<g>
		<path fill="#363550" d="M122.196,212.589c0.026-0.124,2.244-8,5.743-21.208c4.971-18.771,8.077-25.623,9.434-27.993h23.015
			c3.814,0,6.906-3.092,6.906-6.905s-3.092-8.061-6.906-8.061h-26.726c-10.7,0-11.34,10.007-13.233,14.761
			c-2.051,5.148-13.26,44.957-13.39,45.568c-0.384,1.806,2.605,3.292,5.871,3.981C116.392,213.468,121.841,214.266,122.196,212.589z
			"/>
	</g>
	<path fill="#3E425B" d="M158.019,148.341c-2.313,0-6.584,2.231-8.461,8.889c-0.547,1.94-1.018,4.534-1.441,7.927
		c-0.652,5.235-1.193,12.467-1.609,21.497c-0.699,15.203-1.23,24.236-1.232,24.39c-0.012,1.888,16.123,3.344,16.135,1.425
		c0-0.126,0.428-7.777,0.969-21.341c0.65-16.366,1.547-24.124,2.176-27.739h23.943c3.883,0,7.027-4.138,7.027-8.02v-7.028
		L158.019,148.341L158.019,148.341z"/>
	<path opacity="0.4" fill="#754559" enable-background="new    " d="M201.677,121.782c0.107,0.097,0.174,0.16,0.197,0.183
		C201.825,121.901,201.757,121.838,201.677,121.782z"/>
	<path opacity="0.4" fill="#754559" enable-background="new    " d="M193.98,120.651l-0.295-0.011
		C193.771,120.647,193.868,120.651,193.98,120.651z"/>
	<g>
		
			<line fill="none" stroke="#FFA788" stroke-width="7.4346" stroke-linecap="round" stroke-linejoin="round" stroke-miterlimit="10" x1="179.24" y1="122.499" x2="173.452" y2="120.324"/>
		<g>
			<g>
				<polygon fill="#EDDFBC" points="177.786,116.664 177.751,117.135 177.654,118.393 177.534,119.972 176.761,130.095 
					176.507,133.415 166.21,133.415 166.191,133.175 166.038,131.488 165.978,130.81 165.915,130.095 167.769,129.044 
					168.187,127.953 167.347,126.022 165.021,119.972 164.884,118.393 164.771,117.135 164.716,116.505 				"/>
				<rect x="165.353" y="113.105" fill="#EDDFBC" width="11.795" height="1.155"/>
				<path fill="#F2E9D1" d="M178.497,114.26v2.875h-14.492v-2.875H178.497z"/>
				<polygon fill="#EA4B4B" points="177.534,119.972 176.761,130.097 165.915,130.097 165.021,119.972 				"/>
			</g>
			<path fill="#B2A88D" d="M164.773,117.135l0.08,0.923h12.828l0.07-0.923H164.773z"/>
			<polygon opacity="0.4" fill="#8271A8" enable-background="new    " points="177.15,114.26 177.15,113.105 174.611,113.105 
				174.611,114.26 175.572,114.26 175.572,117.135 175.04,117.135 174.988,118.058 174.97,118.394 174.886,119.972 174.335,130.097 
				174.154,133.415 176.507,133.415 176.761,130.097 177.534,119.972 177.654,118.394 177.679,118.058 177.751,117.135 
				178.497,117.135 178.497,114.26 			"/>
			<g>
				<polygon fill="#FFFFFF" points="167.279,113.105 167.279,114.26 168.511,114.26 171.251,114.26 171.251,113.105 				"/>
				<polygon opacity="0.6" fill="#FFFFFF" enable-background="new    " points="167.279,114.26 166.532,114.26 166.532,117.135 
					168.511,117.135 168.511,114.26 				"/>
				<polygon opacity="0.4" fill="#FFFFFF" enable-background="new    " points="169.075,119.972 168.999,118.394 168.984,118.058 
					168.982,118.058 167.001,118.058 167.019,118.394 167.095,119.972 167.591,130.097 167.753,133.415 169.734,133.415 
					169.572,130.097 				"/>
			</g>
			<polygon opacity="0.66" fill="#8271A8" enable-background="new    " points="168.355,124.428 168.972,125.603 168.859,128.009 
				169.81,129.744 169.531,130.975 172.048,133.101 176.525,133.101 176.972,127.449 172.384,123.197 			"/>
		</g>
		<g>
			
				<line fill="none" stroke="#FFA788" stroke-width="7.4346" stroke-linecap="round" stroke-linejoin="round" stroke-miterlimit="10" x1="185.124" y1="128.232" x2="179.24" y2="122.499"/>
			<g>
				<path fill="#FFA788" d="M184.618,133.141l-5.73-0.635c-0.303-0.035-0.035-0.73-0.303-0.839c0.484-1.417,1.434-4.104,1.434-4.104
					s0.666-4.115,0.984-5.097l5.564,5.227C187.615,128.396,190.355,133.643,184.618,133.141z"/>
				<g>
					<path fill="#FFA788" d="M182.97,128.09c0.166,2.659-2.014,4.614-4.844,4.345c-2.83-0.271-4.959-2.636-4.729-5.257
						c0.23-2.62,2.41-4.575,4.844-4.344C180.677,123.066,182.804,125.431,182.97,128.09z"/>
				</g>
				
					<line fill="none" stroke="#FFBB99" stroke-width="3" stroke-linecap="round" stroke-miterlimit="10" x1="173.81" y1="123.945" x2="169.251" y2="123.645"/>
				
					<line fill="none" stroke="#FFA788" stroke-width="3" stroke-linecap="round" stroke-miterlimit="10" x1="179.417" y1="124.56" x2="174.265" y2="124.108"/>
				
					<line fill="none" stroke="#FFBB99" stroke-width="3" stroke-linecap="round" stroke-miterlimit="10" x1="174.443" y1="127.26" x2="169.083" y2="126.666"/>
				
					<line fill="none" stroke="#FFA788" stroke-width="8.8936" stroke-linecap="round" stroke-miterlimit="10" x1="177.437" y1="127.481" x2="174.447" y2="127.22"/>
				
					<line fill="none" stroke="#FFBB99" stroke-width="3" stroke-linecap="round" stroke-miterlimit="10" x1="175.298" y1="130.533" x2="170.089" y2="129.967"/>
				
					<line fill="none" stroke="#FFA788" stroke-width="8.8936" stroke-linecap="round" stroke-miterlimit="10" x1="178.599" y1="130.791" x2="175.3" y2="130.51"/>
			</g>
		</g>
	</g>
	<g>
		<path fill="#3D424C" d="M128.263,130.279v1.611c0,0.806-0.658,1.467-1.467,1.467H87.151c-0.806,0-1.464-0.661-1.464-1.467v-1.611
			c0-0.805,0.658-1.464,1.464-1.464h39.646C127.605,128.815,128.263,129.474,128.263,130.279z"/>
		<path fill="#33383F" d="M125.384,129.239l-4.717,4.119H87.151c-0.806,0-1.464-0.661-1.464-1.467v-1.611
			c0-0.805,0.658-1.464,1.464-1.464h37.375L125.384,129.239z"/>
		<path fill="#575E70" d="M149.642,131.892c0,0.807-0.662,1.466-1.467,1.466h-20.75c-0.806,0-1.466-0.66-1.466-1.466v-1.61
			c0-0.807,0.66-1.467,1.466-1.467h20.75c0.805,0,1.467,0.66,1.467,1.467V131.892z"/>
		<g opacity="0.4">
			<path fill="#754559" d="M133.052,132.162c0,0.344-0.281,0.625-0.625,0.625h-2.856c-0.343,0-0.625-0.281-0.625-0.625v-0.687
				c0-0.345,0.281-0.625,0.625-0.625h2.856c0.343,0,0.625,0.28,0.625,0.625V132.162z"/>
		</g>
		<g opacity="0.7">
			<path fill="#3B2D3C" d="M133.052,131.339c0,0.345-0.281,0.625-0.625,0.625h-2.231c-0.343,0-0.625-0.28-0.625-0.625v-0.687
				c0-0.343,0.282-0.625,0.625-0.625h2.231c0.343,0,0.625,0.282,0.625,0.625V131.339z"/>
		</g>
		<g opacity="0.7">
			<path fill="#3B2D3C" d="M132.426,131.339c0,0.345-0.281,0.625-0.625,0.625h-2.23c-0.343,0-0.625-0.28-0.625-0.625v-0.687
				c0-0.343,0.281-0.625,0.625-0.625h2.23c0.344,0,0.625,0.282,0.625,0.625V131.339z"/>
		</g>
		<path fill="#DEDEE2" d="M132.826,131.339c0,0.345-0.282,0.625-0.625,0.625h-2.231c-0.343,0-0.625-0.28-0.625-0.625v-0.687
			c0-0.343,0.282-0.625,0.625-0.625h2.231c0.343,0,0.625,0.282,0.625,0.625V131.339z"/>
		<path fill="#FFFFFF" d="M133.939,131.339c0,0.345-0.28,0.625-0.625,0.625h-2.229c-0.343,0-0.625-0.28-0.625-0.625v-0.687
			c0-0.343,0.282-0.625,0.625-0.625h2.229c0.345,0,0.625,0.282,0.625,0.625V131.339z"/>
	</g>
	<g>
		<path fill="#FF950E" d="M206.964,140.349h47.725c1.994,0,3.611-1.617,3.611-3.611l0,0c0-1.995-1.617-3.611-3.611-3.611h-53.432
			c-1.994,0-4.926,1.616-4.926,3.611h1.313C197.646,138.732,204.97,140.349,206.964,140.349z"/>
		<path fill="#C14721" d="M35.038,136.738L35.038,136.738c0,1.995,1.616,3.611,3.61,3.611h169.763c1.994,0,3.611-1.617,3.611-3.611
			l0,0c0-1.994-1.617-3.61-3.611-3.61H38.648C36.654,133.128,35.038,134.744,35.038,136.738z"/>
	</g>
	<path fill="none" stroke="#B8CC27" stroke-width="7" stroke-linecap="round" stroke-linejoin="round" stroke-miterlimit="10" d="
		M174.583,173.64c0-3.681,3.117-6.8,7.145-6.8h5.764"/>
	<g>
		<path fill="#434A54" d="M126.235,127.694c0.09,0.801-0.497,1.457-1.304,1.457H85.7c-0.808,0-1.539-0.656-1.629-1.457L79.9,90.18
			c-0.09-0.802,0.497-1.457,1.304-1.457h39.231c0.808,0,1.539,0.655,1.628,1.457L126.235,127.694z"/>
		<path fill="#5F6777" d="M126.675,128.107c0.063,0.574-0.325,1.043-0.862,1.043c-0.536,0-1.024-0.469-1.087-1.043l-1.219-11.192
			c-0.063-0.575-0.165-1.514-0.228-2.087l-1.116-10.292c-0.063-0.574-0.132-1.205-0.153-1.401c-0.021-0.195-0.091-0.825-0.153-1.399
			l-0.384-3.509c-0.063-0.574-0.164-1.514-0.227-2.088l-0.692-6.372c-0.063-0.574,0.325-1.043,0.862-1.043
			c0.536,0,1.024,0.47,1.086,1.043l0.156,1.445c0.062,0.574,0.131,1.214,0.153,1.422s0.092,0.85,0.155,1.424l0.613,5.648
			c0.063,0.574,0.143,1.31,0.177,1.632c0.035,0.324,0.115,1.06,0.177,1.634l1.073,9.826c0.063,0.574,0.165,1.515,0.228,2.087
			L126.675,128.107z"/>
		<path fill="#676D7C" d="M105.308,109.818c0.235,1.854-1.077,3.355-2.931,3.355s-3.547-1.503-3.781-3.355
			c-0.235-1.854,1.077-3.356,2.931-3.356S105.073,107.965,105.308,109.818z"/>
	</g>
	<polygon fill="#F58D6C" points="194.765,110.16 202.599,110.048 201.144,105.627 193.927,107.754 	"/>
	<path fill="#FFFFFF" d="M203.523,106.719l-10.744,3.273l-1.117-3.035l10.797-3.166
		C203.032,105.342,203.523,106.719,203.523,106.719z"/>
	<g>
		<path fill="#8E3925" d="M186.753,59.539c-0.549,7.665-2.443,9.735-5.441,9.735c-2.457,0-4.492-3.393-4.402-4.186
			c0.088-0.793,0.969-5.462,1.674-5.727C179.288,59.098,186.753,59.539,186.753,59.539z"/>
		<path fill="#8E3925" d="M179.74,67.641c0.488-0.978,0.787,2.129,0.795,1.757c0.125-6.524,5.713-1.667,6.152-8.892
			c0.375-6.158,0.428-6.213,0.596-9.206c0.33-5.946-3.123-12.256-15.834-12.158c-7.076,0.055-8.891,2.802-10.486,6.404
			c-2.971,6.712-0.572,15.333-0.572,15.333L179.74,67.641z"/>
		<path fill="#E5785C" d="M159.118,64.829c0,2.448,2.133,8.091,3.459,9.779c0.563,0.72,1.344,2.354,3.135,2.898
			c1.631,0.494,3.988-1.575,3.988-0.694c0,0.956,0.615,1.521,1.303,1.521c8.146,0,12.174-8.776,12.174-14.757l-2.51-7.844
			c0-6.545-4.346-11.251-10.666-11.203c-6.324,0.049-11.416,4.36-11.416,10.906L159.118,64.829z"/>
		<path fill="#FFB287" d="M158.419,55.182l0.084,2.6l0.227,7.051c0.24,6.868,1.779,13.213,10.117,13.144
			c8.324-0.058,10.557-10.134,10.33-16.661l-0.395-5.682c0-0.239,0-0.479-0.016-0.707c-0.17-8.521-3.631-11.644-9.75-11.644
			C160.665,43.283,158.193,48.64,158.419,55.182z"/>
		<g>
			<path fill="#E5785C" d="M165.835,66.411c-1.188,0.002-2.195-0.668-2.145-1.352c0.02-0.249,0.268-0.55,0.732-0.33
				c0.213,0.101,0.791,0.218,1.404,0.214c0.611-0.003,0.943-0.127,1.291-0.23c0.756-0.227,0.992,0.07,1.012,0.318
				C168.185,65.713,167.023,66.397,165.835,66.411z"/>
		</g>
		<path fill="#E5785C" d="M179.054,60.716c-0.174,2.439,1.066,4.535,2.77,4.681s3.225-1.714,3.396-4.154
			c0.172-2.438-0.777-4.339-2.463-4.639C181.072,56.302,179.226,58.277,179.054,60.716z"/>
		<path fill="#422B27" d="M171.845,60.177c0,0.58-0.475,1.055-1.059,1.059s-1.059-0.462-1.059-1.042s0.475-1.053,1.059-1.059
			C171.37,59.131,171.845,59.598,171.845,60.177z"/>
		<path fill="#422B27" d="M162.501,60.339c0,0.58-0.473,1.055-1.059,1.059c-0.584,0.004-1.057-0.462-1.057-1.042
			s0.473-1.054,1.057-1.058C162.029,59.294,162.501,59.76,162.501,60.339z"/>
		<path fill="#8E3925" d="M180.05,56.002"/>
		<path fill="#8E3925" d="M176.081,55.239"/>
		
			<line fill="none" stroke="#8E3925" stroke-width="2" stroke-linecap="round" stroke-miterlimit="10" x1="173.683" y1="55.869" x2="168.921" y2="55.773"/>
		
			<line fill="none" stroke="#8E3925" stroke-width="2" stroke-linecap="round" stroke-miterlimit="10" x1="163.011" y1="55.951" x2="158.911" y2="56.247"/>
		<path fill="#8E3925" d="M181.616,54.744c0-3.707-1.66-7.019-4.248-9.186c1.248-1.551,1.701-3.868,1.434-4.08
			c-0.439-0.354-6.15-4.598-12.891-0.699c-4.615,2.669-6.727,4.461-5.938,6.355c-0.01,0.021-0.02,0.043-0.031,0.064
			c0.014-0.014,0.027-0.027,0.041-0.042c0.713,1.684,2.301,2.777,3.709,2.777c5.902,0,5.777-3.467,10.176-3.128
			c1.717,0.132,4.326,1.223,4.326,5.518c0,4.659,0.764,9.516,0.793,9.519c1.383,0.09,1.4-0.808,1.4-0.808
			c0-2.467,0.369-3.847,1.938-4.581L181.616,54.744z"/>
		<path fill="none" stroke="#E5785C" stroke-width="2" stroke-linecap="round" stroke-miterlimit="10" d="M164.193,70.47
			c0.688,0.484,1.736,0.563,2.645,0.563s2.375-0.08,3.066-0.565"/>
		<path opacity="0.6" fill="#C67560" enable-background="new    " d="M158.419,55.182l0.084,2.6
			c0.367-1.823,6.039-2.201,12.283-1.961c3.73,0.156,7.563,0.426,7.689,1.961c-0.17-8.521-3.342-14.499-9.459-14.499
			C160.665,43.283,158.193,48.64,158.419,55.182z"/>
		<g>
			<path fill="#FCA903" d="M159.054,51.279c0.92-0.707,1.879-0.354,6.146-0.354c4.832,0,9.768,0.707,13.734,1.911
				c4.018,1.213,7.039,2.938,7.928,4.919c0.416,0.306,1.061-3.62,1.123-6.442c0.01-0.158,0.01-0.307,0.01-0.454
				c0-1.112-0.139-2.216-0.416-3.281c-1.219-4.609-5.115-8.539-12.219-9.667c-0.027,0-0.057-0.014-0.07-0.014
				c-0.791-0.125-1.623-0.211-2.502-0.269c-0.311-0.02-0.611-0.028-0.912-0.028c-1.857-0.023-3.486,0.253-4.9,0.734
				c-0.1,0.034-0.201,0.067-0.297,0.11c-3.633,1.328-5.84,4.035-6.977,6.614C158.288,48.242,158.404,51.227,159.054,51.279z"/>
			<path fill="#D86619" d="M154.251,49.688c1.467,0.07,3.1-0.077,4.803-0.025c-0.521,1.652-0.705,3.529-0.637,5.52l0,0
				C147.572,55.725,145.302,49.257,154.251,49.688z"/>
			<path fill="#FCA903" d="M186.863,57.756c-0.889-1.981-3.91-3.706-7.926-4.919c-3.969-1.204-8.902-1.91-13.736-1.91
				c-4.266,0-5.225-0.354-6.146,0.354c-0.65-0.053-0.764-3.037,0.65-6.218c1.135-2.578,3.342-5.287,6.977-6.614
				c-3.084,1.905-3.387,6.905-3.596,8.481c-0.238,1.791,4.775,2.148,12.537,4.059C183.382,52.899,186.763,55.807,186.863,57.756z"/>
		</g>
		<path fill="#FFE14E" d="M178.933,52.838c1.307-5.953,3.973-14.704-9.6-14.555C155.357,38.436,158.89,51.8,158.89,51.8
			L178.933,52.838z"/>
		<path fill="#FFC229" d="M151.749,49.772c3.537-0.088,4.734,1.6,12.168,4.019c5.639,1.838,11.129-0.094,15.016-0.953
			c-1.33-1.209-14.861-3.284-22.328-3.337C154.663,49.487,152.075,49.724,151.749,49.772z"/>
	</g>
</g>
</svg>
