<?xml version="1.0" encoding="utf-8"?>
<!-- Generator: Adobe Illustrator 16.0.0, SVG Export Plug-In . SVG Version: 6.00 Build 0)  -->
<!DOCTYPE svg PUBLIC "-//W3C//DTD SVG 1.1//EN" "http://www.w3.org/Graphics/SVG/1.1/DTD/svg11.dtd">
<svg version="1.1" id="Layer_1" xmlns="http://www.w3.org/2000/svg" xmlns:xlink="http://www.w3.org/1999/xlink" x="0px" y="0px"
	 width="900px" height="600px" viewBox="0 0 900 600" enable-background="new 0 0 900 600" xml:space="preserve">
<g>
	<g>
		<g>
			<path fill="#517F38" d="M708.17,37.521c7.965,10.846,23.943,12.646,23.943,12.646s3.066-15.785-4.898-26.632
				c-7.967-10.847-23.943-12.646-23.943-12.646S700.205,26.675,708.17,37.521z"/>
			<path fill="#3B6837" d="M741.615,31.035c-7.301,7.196-6.902,19.439-6.902,19.439s12.236,0.577,19.537-6.62
				c7.303-7.196,6.904-19.44,6.904-19.44S748.918,23.839,741.615,31.035z"/>
			<path fill="#65B15B" d="M723.52,25.592c-1.482,13.375,9.055,25.52,9.055,25.52s12.945-9.541,14.428-22.915
				c1.484-13.375-9.055-25.52-9.055-25.52S725.002,12.217,723.52,25.592z"/>
		</g>
		<g>
			<polygon fill="#62324A" points="724.508,88.063 752.225,88.063 761.313,47.625 715.42,47.625 			"/>
			<polygon fill="#A0523A" points="714.059,88.063 741.773,88.063 745.863,47.625 704.971,47.625 			"/>
		</g>
	</g>
	<g>
		<g>
			
				<rect x="612.689" y="286.165" transform="matrix(0.9847 0.174 -0.174 0.9847 64.2367 -102.1562)" fill="#6075B0" width="4.227" height="58.308"/>
			
				<rect x="615.442" y="285.039" transform="matrix(0.9847 0.1742 -0.1742 0.9847 60.6248 -103.2654)" fill="#6075B0" width="6.549" height="17.534"/>
		</g>
		<g>
			<polygon fill="#794061" points="604.865,351.725 600.656,351.372 605.529,293.269 608.074,289.552 609.74,293.622 			"/>
		</g>
		<g>
			<polygon fill="#072859" points="599.014,354.694 594.867,355.502 583.725,298.269 585.164,293.999 587.873,297.461 			"/>
		</g>
		<g>
			<polygon fill="#F3885E" points="608.338,368.007 590.279,368.007 584.357,320.201 614.26,320.201 			"/>
			<polygon fill="#FFBE62" points="615.146,368.007 597.088,368.007 594.424,320.201 621.068,320.201 			"/>
		</g>
	</g>
	<rect x="559.693" y="101.722" opacity="0.54" fill="#B0ACBF" width="215.393" height="30.595"/>
	<g>
		<path fill="#7C4B39" d="M681.617,147.127l-11.893,7.36c-8.619,5.333-11.697,16.386-7.094,25.416
			c0.914,1.796,1.486,2.952,1.371,2.819c-0.449-0.518,18.219-35.445,18.219-35.445"/>
		<path fill="#FCBBA4" d="M712.574,260.894h6.154c5.646,0,10.264-4.619,10.264-10.266l0.002-28.928
			c0-5.646-4.619-10.266-10.266-10.266h-6.154c-5.646,0-10.266,4.62-10.266,10.266v28.928
			C702.309,256.274,706.928,260.894,712.574,260.894z"/>
		<path fill="#7C4B39" d="M664.211,182.723c-0.275,2.33,10.641,6.27,10.771,8.728l-1.777,4.934c13.404-4.859,1.58,2.548,1.58,2.566
			c3.98,11.813,2.596,18.348,13.969,22.843c5.668,2.237,11.887,3.265,18.359,2.806c8.695-0.605,16.418,2.109,22.727-0.898
			c1.303-0.606,2.531-1.468,3.705-2.623c2.221-2.22,4.201-4.659,5.869-7.301c0.643-1.045,1.266-2.091,1.836-3.191
			c3.428-6.622,10.445-26.064,9.877-34.043c-1.576-22.524-23.156-37.602-47.994-35.896c-0.639,0.044-1.264,0.055-1.906,0.092
			c-13.408,0.936-24.873,8.053-31.879,18.379c-0.367,0.55-0.734,1.119-1.082,1.688c0,0.019,0,0.019,0,0.019
			c-2.018,3.283-3.1,17.333-3.1,17.333C664.707,179.641,664.395,181.164,664.211,182.723z"/>
		<path fill="#FCBBA4" d="M665.213,189.932l0.311,6.181l0.533,10.254l0.834,3.635c0.072,1.614,0.891,10.104,1.184,11.644
			c2.824,14.508,12.354,17.589,27.137,19.424c0.439,0.074,0.898,0.11,1.338,0.129c1.578,0.165,3.174,0.183,4.807,0.109
			c1.576-0.073,3.117-0.275,4.641-0.568c2.951-0.532,5.795-1.467,8.418-2.714c0,0,0.018,0,0.037-0.018
			c6.529-3.081,11.904-8.126,15.389-14.307c2.658-4.678,4.236-9.997,4.402-15.629c0.018-0.385,0.018-0.769,0.018-1.174
			c0.02-0.439,0-0.916-0.035-1.393v-0.239l-0.037-1.118l-0.166-2.917l-0.494-10.07l-0.018-0.091v-0.019l-0.092-1.871l-0.074-1.449
			l-0.072-1.339l-0.02-0.349c-0.148-2.33-0.605-4.567-1.303-6.713c-0.439-1.523-1.008-2.99-1.65-4.402
			c-0.092-0.221-0.164-0.422-0.275-0.643c-0.514-1.155-1.119-2.311-1.779-3.394c0-0.018,0-0.018,0-0.018
			c-2.494-4.164-5.834-7.759-9.793-10.528c-0.789-0.569-1.615-1.1-2.441-1.596c-5.76-3.375-12.545-5.191-19.682-4.825
			c-5.943,0.313-10.334,2.092-15.121,4.971c-2.898,1.743-5.521,3.889-7.777,6.365c-3.209,3.485-5.301,7.593-6.842,12.124
			c-0.092,0.257-0.164,0.514-0.238,0.77c-0.459,1.485-0.771,3.009-0.953,4.567C665.121,185.053,665.084,187.474,665.213,189.932z"/>
		<path fill="#7C4B39" d="M677.695,159.281c-7.252,19.982,11.842,18.354,12.729,27.531c0.1,1.031,0.467,2.55,0.74,10.065
			l1.459,4.702c0.422,1.467,1.779,2.476,3.303,2.476c1.908,0,3.447-1.541,3.447-3.448v-0.092l-0.164-7.483l3.723,9.868
			c2.68,7.117,6.752,13.556,11.887,18.984c4.273,4.493,9.281,8.309,14.838,11.207c0,0,23.297-13.849,23.297-45.471
			c0-2.513-0.148-5.136-0.459-7.868c-0.295-2.458-0.697-4.751-1.248-6.897c-9.648-39.289-57.926-25.881-62.564-24.138
			C683.801,150.551,677.695,159.281,677.695,159.281z"/>
		<path fill="#FCBBA4" d="M661.105,211.108c-0.006,0.064,0.006,0.517,0.006,0.517c0.064,2.163,1.938,3.879,6.574,3.745l-0.65-16.873
			C663.27,204.237,661.445,207.574,661.105,211.108z"/>
		<path fill="#7C4B39" d="M663.627,190.685h10.316c1.199,0,2.178-0.98,2.178-2.178l0,0c0-1.198-0.979-2.178-2.178-2.178h-10.316
			c-1.199,0-2.18,0.98-2.18,2.178l0,0C661.447,189.705,662.428,190.685,663.627,190.685z"/>
		<path fill="#081344" d="M669.424,198.453L669.424,198.453c0.855,0,1.557-0.7,1.557-1.556v-2.292c0-0.856-0.701-1.556-1.557-1.556
			l0,0c-0.855,0-1.557,0.7-1.557,1.556v2.292C667.867,197.753,668.568,198.453,669.424,198.453z"/>
		<path opacity="0.2" fill="#081344" d="M714.818,221.884c4.273,4.493,9.281,8.309,14.838,11.207c0,0,23.297-13.849,23.297-45.471
			c0-2.513-0.148-5.136-0.459-7.868c-0.295-2.458-0.697-4.751-1.248-6.897c-1.029,6.017-3.742,15.132-10.676,26.395
			C730.023,216.381,718.578,220.838,714.818,221.884z"/>
		<path fill="#7C4B39" d="M667.768,220.595l0.307,11.807c0,10.064,11.922,14.109,20.77,13.153l14.102-1.524l-1.42-12.221
			l-3.848-23.387l6.217-17.465l-12.805,5.315l0.002,0.02c0.967,13.877-8.977,25.094-22.873,24.454L667.768,220.595z"/>
		<path fill="#FCBBA4" d="M700.221,190.521c-1.424,0.008-2.572,1.171-2.563,2.596l0.059,8.786l0.061,7.675l3.018-0.018
			c0.221-0.004,0.441-0.008,0.648-0.04c5.047-0.383,9.029-4.793,9.002-9.836c-0.008-2.617-1.121-4.843-2.891-6.575
			c-1.586-1.544-3.723-2.424-6.086-2.556h-0.014c-0.273-0.04-0.508-0.051-0.785-0.035L700.221,190.521z"/>
	</g>
	<g>
		<g>
			<path fill="#FBAF3D" d="M132.771,475.236v20.033l92.787-0.001c5.529,0,10.016-4.486,10.016-10.016
				c0-2.759-1.122-5.266-2.931-7.086c-1.82-1.81-4.327-2.931-7.085-2.931H132.771z"/>
			<path fill="#FFD72E" d="M187.009,481.924v-6.647h38.747c4.341,0,8.05,2.773,9.437,6.647H187.009z"/>
			<path fill="#F38154" d="M110.626,475.236v20.033l92.787-0.001c5.529,0,10.016-4.486,10.016-10.016
				c0-2.759-1.121-5.266-2.93-7.085c-1.82-1.811-4.327-2.932-7.086-2.932H110.626z"/>
			<path fill="#FFFFFF" d="M110.626,478.671v12.844h90.085c3.549,0,6.422-2.873,6.422-6.422c0-1.775-0.721-3.377-1.877-4.545
				c-1.168-1.156-2.771-1.877-4.544-1.877H110.626z"/>
		</g>
		<g>
			<path fill="#A2CC3B" d="M129.158,495.385v20.036h92.788c5.529,0,10.01-4.488,10.01-10.018c0-1.699-0.425-3.302-1.17-4.706
				c-0.469-0.875-1.066-1.681-1.76-2.383c-1.82-1.812-4.324-2.93-7.08-2.93H129.158z"/>
			<path fill="#709B2C" d="M138.778,495.385v5.313h92.008c-0.469-0.875-1.066-1.681-1.76-2.383c-1.82-1.812-4.324-2.93-7.08-2.93
				H138.778z"/>
			<path fill="#709B2C" d="M138.778,515.43v-5.313h92.008c-0.469,0.876-1.066,1.681-1.76,2.384c-1.82,1.811-4.324,2.929-7.08,2.929
				H138.778z"/>
			<path fill="#4C842F" d="M98.424,495.386v20.032h92.786c5.53,0,10.017-4.486,10.017-10.017c0-2.759-1.122-5.266-2.93-7.086
				c-1.821-1.809-4.327-2.93-7.087-2.93H98.424z"/>
			<path fill="#FFFFFF" d="M98.424,498.819v12.844h90.084c3.55,0,6.422-2.873,6.422-6.422c0-1.774-0.721-3.377-1.878-4.545
				c-1.167-1.156-2.77-1.878-4.544-1.878L98.424,498.819z"/>
		</g>
	</g>
	<g>
		<g>
			<rect x="563.902" y="49.489" fill="#DADAE0" width="117.098" height="24.914"/>
			<rect x="627.158" y="49.206" fill="#FFFFFF" width="54.152" height="25.48"/>
			<g>
				
					<line fill="none" stroke="#B0ACBF" stroke-width="1.7994" stroke-miterlimit="10" x1="564.006" y1="54.074" x2="681.207" y2="54.074"/>
				
					<line fill="none" stroke="#B0ACBF" stroke-width="1.7994" stroke-miterlimit="10" x1="564.006" y1="59.085" x2="681.207" y2="59.085"/>
				
					<line fill="none" stroke="#B0ACBF" stroke-width="1.7994" stroke-miterlimit="10" x1="564.006" y1="64.096" x2="681.207" y2="64.096"/>
				
					<line fill="none" stroke="#B0ACBF" stroke-width="1.7994" stroke-miterlimit="10" x1="564.006" y1="69.107" x2="681.207" y2="69.107"/>
			</g>
		</g>
		<g>
			<g>
				<path fill="#244689" d="M462.488,169.104l-3.797,145.108h-86.113l-2.282-143.415c-0.004-18.338,13.886-33.597,32.164-36.672
					c2.198-0.362,4.455-0.555,6.771-0.555l13.162-0.003C443.896,133.561,462.484,148.552,462.488,169.104z"/>
				<g>
					<path fill="#D26552" d="M429.79,114.487l-20.649,0.005c-16.074,0.004-29.108-13.023-29.112-29.098l-0.006-20.264
						c-0.006-20.208,16.372-36.595,36.581-36.6l5.682-0.001c20.207-0.005,36.594,16.372,36.598,36.579l0.006,20.265
						C458.894,101.448,445.865,114.483,429.79,114.487z"/>
					<path fill="#FFC7B0" d="M390.49,73.267l-0.529,8.794l-0.367,5.938l-2.775-0.116c-0.202-0.011-0.404-0.021-0.595-0.054
						c-4.624-0.467-8.109-4.016-7.882-7.918c0.113-2.025,1.228-3.709,2.925-4.99c1.52-1.141,3.521-1.75,5.7-1.77h0.013
						c0.253-0.021,0.468-0.021,0.722-0.001L390.49,73.267z"/>
					<path fill="#FFC7B0" d="M450.961,73.454l0.535,8.794l0.371,5.938l2.773-0.118c0.201-0.011,0.404-0.021,0.594-0.054
						c4.625-0.47,8.107-4.02,7.879-7.922c-0.115-2.026-1.23-3.709-2.928-4.989c-1.521-1.14-3.522-1.747-5.702-1.768h-0.012
						c-0.253-0.021-0.468-0.021-0.723,0L450.961,73.454z"/>
					<path fill="#F4A891" d="M422.043,147.507l-6.041,0.001c-5.86,0.002-10.656-4.792-10.657-10.652l-0.009-30.675
						c-0.002-5.86,4.792-10.656,10.654-10.658l6.04-0.001c5.861-0.002,10.656,4.792,10.659,10.652l0.008,30.674
						C432.698,142.708,427.905,147.505,422.043,147.507z"/>
					<path fill="#FFC7B0" d="M456.289,72.033l-0.859,16.091l-0.125,2.409c-0.076,1.586-0.29,3.16-0.594,4.673
						c-2.594,12.786-12.84,22.898-25.887,26.109c-1.456,0.363-2.952,0.63-4.471,0.812c-0.457,0.073-0.926,0.109-1.381,0.133
						c-0.963,0.097-1.925,0.146-2.901,0.146c-0.696,0-1.394-0.024-2.104-0.048c-1.595-0.084-3.141-0.265-4.674-0.544
						c-0.634-0.108-1.255-0.241-1.876-0.387c-2.369-0.532-4.624-1.306-6.765-2.274c0,0-0.013,0-0.026-0.012
						c-10.263-4.635-17.739-13.762-19.782-24.5c-0.012-0.037-0.012-0.061-0.012-0.097c-0.204-1.162-0.356-2.337-0.445-3.523
						c-0.038-0.375-0.052-0.738-0.063-1.113c-0.013-0.387-0.026-0.763-0.013-1.15c-0.025-0.448-0.001-0.908,0.025-1.368v-0.241
						l0.05-1.103l0.165-2.87l0.252-4.916v-0.048l0.251-4.964l0.014-0.097v-0.013l0.1-1.828l0.076-1.429l0.077-1.308l0.025-0.339
						c0.139-2.276,0.62-4.48,1.315-6.586c0.468-1.477,1.05-2.918,1.696-4.298c0.088-0.23,0.177-0.424,0.279-0.63
						c0.53-1.139,1.152-2.264,1.824-3.329c0-0.013,0.012-0.025,0.012-0.025c2.545-4.068,5.978-7.592,10.03-10.317
						c0.811-0.545,1.646-1.066,2.496-1.551c5.915-3.319,12.857-5.1,20.179-4.739c9.792,0.482,18.573,4.681,24.694,11.096
						c1.799,1.889,3.271,3.946,4.473,6.174c1.001,1.804,1.825,3.704,2.536,5.714c0.457,1.259,0.787,2.554,1.027,3.861
						c0,0,0,0.013,0,0.024c0.076,0.448,0.139,0.884,0.189,1.332c0.102,0.787,0.178,1.586,0.216,2.397
						C456.389,68.885,456.377,70.447,456.289,72.033z"/>
					<g>
						<path fill="#0A194D" d="M433.726,82.402h-0.071c-0.851,0-1.548-0.696-1.548-1.548l-0.001-4.773
							c-0.001-0.852,0.696-1.548,1.547-1.549h0.071c0.852,0,1.548,0.697,1.549,1.548l0.001,4.774
							C435.274,81.706,434.578,82.402,433.726,82.402z"/>
						<path fill="#0A194D" d="M406.066,82.309h-0.071c-0.851,0-1.548-0.696-1.548-1.548l-0.001-4.773
							c-0.001-0.852,0.696-1.548,1.547-1.548h0.071c0.852-0.001,1.548,0.696,1.548,1.547l0.002,4.773
							C407.614,81.611,406.918,82.308,406.066,82.309z"/>
						<path fill="#D26552" d="M439.514,70.174l-11.981,0.002c-0.886,0-1.611-0.724-1.61-1.61l0,0
							c-0.001-0.886,0.725-1.61,1.609-1.611l11.981-0.003c0.886,0,1.61,0.725,1.61,1.61l0,0
							C441.125,69.448,440.4,70.173,439.514,70.174z"/>
						<path fill="#D26552" d="M412.276,70.18l-11.98,0.003c-0.886,0-1.611-0.724-1.611-1.61l0,0c0-0.886,0.725-1.611,1.61-1.611
							l11.981-0.003c0.885,0,1.61,0.725,1.61,1.61l0,0C413.887,69.455,413.163,70.18,412.276,70.18z"/>
						<path fill="#FFFFFF" d="M429.281,97.259c-3.241,4.542-6.222,7.564-10.652,6.909c-3.715-0.548-6.73-3.213-8.586-7.162
							L429.281,97.259z"/>
						<path fill="#FC9F7B" d="M415.923,87.351l7.601-0.002C423.524,87.349,419.936,92.192,415.923,87.351z"/>
					</g>
					<path fill="#FFC7B0" d="M456.289,72.033l-0.859,16.091l-0.125,2.409c-0.076,1.586-0.29,3.16-0.594,4.673
						c-2.594,12.786-12.84,22.898-25.887,26.109c-1.456,0.363-2.952,0.63-4.471,0.812c-0.457,0.073-0.926,0.109-1.381,0.133
						c-0.963,0.097-1.925,0.146-2.901,0.146c-0.696,0-1.394-0.024-2.104-0.048c-1.812-0.072-3.585-0.265-5.333-0.555
						c-0.354-0.06-0.696-0.109-1.051-0.181c-2.395-0.532-4.663-1.307-6.816-2.275c0,0-0.012,0-0.026-0.012
						c-10.339-4.67-17.878-13.858-19.896-24.693c-0.012-0.037-0.012-0.061-0.012-0.097c-0.215-1.162-0.368-2.337-0.445-3.523
						c-0.038-0.375-0.052-0.738-0.063-1.113c-0.013-0.387-0.026-0.763-0.013-1.15c-0.025-0.448-0.001-0.908,0.025-1.368v-0.241
						l0.05-1.103l0.165-2.87l0.252-4.916c1.589,18.003,8.258,40.75,31.745,41.665c32.521,1.263,39.263-32.905,39.764-52.567
						C456.389,68.885,456.377,70.447,456.289,72.033z"/>
				</g>
				<g>
					<polygon fill="#244689" points="435.37,314.212 401.084,314.212 402.147,131.027 409.741,130.778 417.817,148.135 
						426.709,131.273 434.808,131.414 					"/>
				</g>
			</g>
			<polygon fill="#B0ACBF" points="409.891,130.635 404.859,138.78 398.229,135.353 405.356,125.367 			"/>
			<polygon fill="#B0ACBF" points="426.784,131.155 432.168,138.773 438.746,136.628 432.853,126.315 			"/>
			<ellipse fill="#D26552" cx="448.076" cy="50.684" rx="12.502" ry="11.949"/>
			<ellipse fill="#D26552" cx="428.201" cy="54.672" rx="9.618" ry="9.191"/>
			<ellipse fill="#D26552" cx="413.133" cy="55.289" rx="8.977" ry="8.579"/>
			<ellipse fill="#D26552" cx="396.622" cy="52.995" rx="8.496" ry="8.119"/>
			<path fill="#D26552" d="M407.837,35.834c0,0,17.953-4.907,27.572,1.525c9.62,6.432,14.751,15.315,14.751,15.315l-36.866,3.073
				l-22.122-3.365l8.491-15.475"/>
			<path fill="#D26552" d="M391.814,55.294l-4.08,25.942c-0.189,1.203-1.608,1.824-2.685,1.175l0,0
				c-0.479-0.289-0.784-0.78-0.819-1.32L383,62.189C383,62.189,389.568,46.563,391.814,55.294z"/>
			<path fill="#D26552" d="M448.238,58.649l4.095,25.941c0.189,1.203,1.608,1.823,2.685,1.173l0,0
				c0.479-0.289,0.783-0.78,0.817-1.32l1.221-24.11C457.056,60.333,450.481,49.917,448.238,58.649z"/>
			<path fill="#D26552" d="M387.974,79.959c-0.479,6.281,3.056,35.08,30.306,35.686c27.25,0.606,32.738-27.269,33.171-33.097
				c0.434-5.829,4.487-5.209,4.487-3.984l-0.156,15.024c0.005,17.592-14.914,31.857-33.321,31.861l-3.871,0.001
				c-18.407,0.004-34.616-13.344-34.622-30.937l0.158-14.4C384.127,80.113,388.015,79.423,387.974,79.959z"/>
		</g>
		
			<rect x="392.398" y="548.627" transform="matrix(0.9996 -0.0279 0.0279 0.9996 -15.3805 11.4067)" fill="#0C0F39" width="18.113" height="17.505"/>
		<g>
			<path fill="#87888D" d="M415.051,567.728l-26.613,0.742l0,0c-0.162-5.809,4.417-10.649,10.228-10.811l5.57-0.155
				C410.046,557.341,414.888,561.919,415.051,567.728L415.051,567.728z"/>
			
				<rect x="387.92" y="567.863" transform="matrix(0.9996 -0.0279 0.0279 0.9996 -15.7301 11.4155)" fill="#0A194D" width="27.472" height="4.303"/>
		</g>
		<polygon fill="#6C1A48" points="414.076,331.183 413.944,336.507 412.683,541.854 412.683,541.866 412.43,552.056 
			412.382,553.661 412.382,553.758 391.201,554.47 389.1,554.542 379.383,433.361 374.976,339.331 374.843,336.507 374.686,333.15 
			374.649,332.475 409.633,331.328 412.217,331.243 		"/>
		<path opacity="0.62" fill="#0C0F39" d="M417.832,356.027c0,0,0,0.446-0.025,1.279
			C417.795,356.582,417.795,356.136,417.832,356.027z"/>
		<polygon fill="#6C1A48" points="458.488,311.063 458.039,337.121 374.852,336.716 372.636,311.063 		"/>
		<path opacity="0.16" fill="#0C0F39" d="M417.832,356.027c0,0,0,0.446-0.025,1.279
			C417.795,356.582,417.795,356.136,417.832,356.027z"/>
		<polygon fill="#747577" points="387.741,548.666 413.254,548.33 412.75,554.203 388.245,554.875 		"/>
		<polygon fill="#0C0F39" points="436.463,565.396 454.569,564.889 453.987,547.394 435.88,547.9 		"/>
		<g>
			<path fill="#87888D" d="M432.286,567.484l26.611-0.745l0,0c-0.193-5.809-5.061-10.385-10.871-10.222l-5.57,0.156
				C436.645,556.836,432.092,561.677,432.286,567.484L432.286,567.484z"/>
			<polygon fill="#0A194D" points="432.137,571.556 459.598,570.786 459.455,566.484 431.994,567.253 			"/>
		</g>
		<polygon fill="#6C1A48" points="418.799,331.289 419.257,336.596 433.067,541.522 433.067,541.534 433.944,551.691 
			434.089,553.292 434.095,553.389 455.283,552.917 457.386,552.872 459.678,431.356 458.332,337.241 458.291,334.413 
			458.242,331.054 458.238,330.377 423.245,331.186 420.66,331.245 		"/>
		<polygon fill="#747577" points="458.383,546.931 432.892,548.021 433.754,553.854 458.259,553.156 		"/>
		<g>
			<path fill="#F1AE9B" d="M380.559,167.277c0,0-10.787,31.887-11.921,71.946c-0.871,30.843-2.155,102.336-2.155,102.336
				l-13.956-0.285c0,0-4.28-41.421-4.059-98.443c0.222-57.023,16.002-81.96,21.956-83.92
				C376.375,156.95,381.081,160.448,380.559,167.277z"/>
			<g>
				<path fill="#F1AE9B" d="M376.758,359.371l-7.201-13.329c-0.839-1.555-2.725-2.222-4.189-1.482l-0.269,0.136
					c-1.465,0.74-1.977,2.617-1.136,4.172l7.2,13.329c0.84,1.555,2.726,2.221,4.191,1.481l0.269-0.136
					C377.086,362.803,377.597,360.926,376.758,359.371z"/>
				<path fill="#F1AE9B" d="M349.758,347.516c0,0,0.957,9.952,1.155,12.831c0.384,5.57,1.962,8.327,5.615,8.626l7.392-1.42
					c3.938-1.396,5.726-2.245,5.991-5.743l0.867-11.515c0.264-3.498-3.602-13.067-7.254-13.365l-7.485-0.948
					C352.384,335.682,350.021,344.018,349.758,347.516z"/>
				<path fill="#F1AE9B" d="M364.375,364.258l1.816,13.058c0.227,2.115,1.585,3.749,3.02,3.629l0,0
					c1.434-0.119,2.422-1.949,2.195-4.065l-1.817-13.058c-0.226-2.115-1.585-3.749-3.019-3.629l0,0
					C365.136,360.312,364.148,362.143,364.375,364.258z"/>
				<path fill="#F1AE9B" d="M358.503,367.737l1.816,13.056c0.227,2.117,1.585,3.751,3.02,3.631l0,0
					c1.434-0.12,2.422-1.95,2.196-4.067l-1.817-13.056c-0.226-2.117-1.585-3.75-3.02-3.63l0,0
					C359.264,363.791,358.276,365.62,358.503,367.737z"/>
				<path fill="#F1AE9B" d="M351.758,364.819l1.817,13.056c0.226,2.117,1.585,3.751,3.019,3.63l0,0
					c1.435-0.119,2.422-1.949,2.195-4.066l-1.816-13.056c-0.226-2.117-1.585-3.75-3.02-3.63l0,0
					C352.519,360.873,351.531,362.702,351.758,364.819z"/>
			</g>
		</g>
		<g>
			<path fill="#F1AE9B" d="M453.771,167.277c0,0,10.787,31.887,11.92,71.946c0.873,30.843,2.156,102.336,2.156,102.336l13.954-0.285
				c0,0,4.281-41.421,4.06-98.443c-0.221-57.023-16.002-81.96-21.955-83.92C457.953,156.95,453.248,160.448,453.771,167.277z"/>
			<g>
				<path fill="#F1AE9B" d="M457.57,359.371l7.202-13.329c0.839-1.555,2.725-2.222,4.189-1.482l0.269,0.136
					c1.465,0.74,1.978,2.617,1.138,4.172l-7.2,13.329c-0.84,1.555-2.727,2.221-4.191,1.481l-0.269-0.136
					C457.244,362.803,456.732,360.926,457.57,359.371z"/>
				<path fill="#F1AE9B" d="M484.571,347.516c0,0-0.956,9.952-1.153,12.831c-0.385,5.57-1.963,8.327-5.615,8.626l-7.392-1.42
					c-3.938-1.396-5.727-2.245-5.989-5.743l-0.869-11.515c-0.264-3.498,3.602-13.067,7.255-13.365l7.485-0.948
					C481.945,335.682,484.309,344.018,484.571,347.516z"/>
				<path fill="#F1AE9B" d="M469.955,364.258l-1.817,13.058c-0.226,2.115-1.585,3.749-3.019,3.629l0,0
					c-1.436-0.119-2.422-1.949-2.195-4.065l1.815-13.058c0.228-2.115,1.586-3.749,3.021-3.629l0,0
					C469.193,360.312,470.181,362.143,469.955,364.258z"/>
				<path fill="#F1AE9B" d="M475.826,367.737l-1.816,13.056c-0.227,2.117-1.586,3.751-3.02,3.631l0,0
					c-1.435-0.12-2.421-1.95-2.195-4.067l1.817-13.056c0.226-2.117,1.585-3.75,3.019-3.63l0,0
					C475.064,363.791,476.054,365.62,475.826,367.737z"/>
				<path fill="#F1AE9B" d="M482.571,364.819l-1.815,13.056c-0.228,2.117-1.587,3.751-3.02,3.63l0,0
					c-1.436-0.119-2.422-1.949-2.195-4.066l1.816-13.056c0.227-2.117,1.586-3.75,3.02-3.63l0,0
					C481.811,360.873,482.799,362.702,482.571,364.819z"/>
			</g>
		</g>
		<g>
			<ellipse fill="#FFFFFF" cx="418.126" cy="182.107" rx="2.191" ry="2.094"/>
			<ellipse fill="#FFFFFF" cx="418.126" cy="211.493" rx="2.191" ry="2.094"/>
			<ellipse fill="#FFFFFF" cx="418.126" cy="240.879" rx="2.191" ry="2.095"/>
			<ellipse fill="#FFFFFF" cx="418.126" cy="270.266" rx="2.191" ry="2.094"/>
			<ellipse fill="#FFFFFF" cx="418.126" cy="299.651" rx="2.191" ry="2.095"/>
		</g>
		<path fill="#244689" d="M395.137,136.113l-11.138,4.026c-14.546,5.3-25.428,17.594-28.921,32.676l-6.215,26.844l31.152,6.445
			L395.137,136.113z"/>
		<path fill="#244689" d="M437.874,137.131l11.322,4.125c14.547,5.3,25.428,17.594,28.922,32.676l6.216,26.844l-31.153,6.446
			L437.874,137.131z"/>
		<path opacity="0.54" fill="#B0ACBF" d="M280.786,596.119h586.499c10.088,0,18.266-8.179,18.266-18.269l0,0
			c0-10.089-8.178-18.268-18.266-18.268H280.786c-10.089,0-18.269,8.179-18.269,18.268l0,0
			C262.518,587.94,270.697,596.119,280.786,596.119z"/>
		<g>
			<path fill="#D26552" d="M257.443,180.76l-2.763-4.899c-3.738-6.626-10.564-10.923-18.155-11.43l0,0
				c-7.618-0.508-14.976,2.87-19.556,8.977l0,0c-0.362,0.483-0.713,0.972-1.055,1.467c-6.5,9.416-9.043,24.795-4.281,47.246
				l9.028,57.315l30.091,4.256l9.583-90.89C260.514,188.597,259.511,184.427,257.443,180.76z"/>
			<g>
				<g>
					<g>
						<path fill="#FFC7B0" d="M361.287,346.858l14.054-4.063c1.026-0.296,1.624-1.379,1.327-2.405l0,0
							c-0.296-1.026-1.379-1.623-2.405-1.326l-14.054,4.062c-1.027,0.298-1.625,1.38-1.328,2.406l0,0
							C359.178,346.559,360.261,347.155,361.287,346.858z"/>
						<path fill="#FFC7B0" d="M366.332,350.171l11.284-3.262c1.026-0.297,1.623-1.379,1.327-2.405l0,0
							c-0.297-1.026-1.379-1.624-2.406-1.326l-11.285,3.262c-1.025,0.297-1.623,1.379-1.326,2.405l0,0
							C364.222,349.871,365.304,350.469,366.332,350.171z"/>
						<path fill="#FFC7B0" d="M364.291,355.527l13.356-3.861c1.026-0.297,1.624-1.379,1.327-2.405l0,0
							c-0.297-1.026-1.379-1.624-2.406-1.326l-13.357,3.86c-1.025,0.297-1.623,1.379-1.326,2.405l0,0
							C362.182,355.228,363.264,355.824,364.291,355.527z"/>
					</g>
					<path fill="#FFC7B0" d="M367.018,342.387c-0.152,0.038-1.913,0.231-3.823,0.435c-3.296,0.352-6.464,1.484-9.236,3.301
						l-5.312,3.48c0,0,4.427,9.21,4.882,9.236c11.146,0.624,14.274-4.789,14.274-4.789L367.018,342.387z"/>
				</g>
				<g>
					<path fill="#FFC7B0" d="M270.854,305.987c0,0,6.532,17.48,13.133,31.691c1.839,3.944,3.679,7.635,5.38,10.634
						c0.497,0.868,1.003,1.714,1.536,2.524c6.588,10.252,15.426,15.972,27.927,14.428c0.115-0.015,36.809-6.259,36.809-6.259
						l-2.11-12.727l-37.957,3.284c-4.112,0.561-10.186-5.184-12.823-9.091c-0.206-0.302-0.39-0.596-0.551-0.872
						c-1.247-2.148-2.61-4.8-4.042-7.759c-8.563-17.779-19.341-46.902-19.341-46.902L270.854,305.987z"/>
				</g>
			</g>
			<path fill="#FFBD48" d="M275.654,273.175c0.759,1.139,18.223,35.307,18.223,35.307l-13.667,12.529L275.654,273.175z"/>
			<g>
				<path fill="#6C1A48" d="M281.793,445.26l-82.234,8.163l-30.182-153.189l46.524-0.256c20.468-0.073,38.178,14.232,42.412,34.258
					L281.793,445.26z"/>
				<path fill="#F14747" d="M177.438,446.255L159.346,312.21c-0.806-5.973,3.421-11.519,9.393-12.324l0,0
					c5.972-0.806,11.518,3.421,12.323,9.393l18.093,134.047c0.806,5.972-3.421,11.517-9.393,12.322l0,0
					C183.791,456.454,178.245,452.228,177.438,446.255z"/>
				<g>
					<g>
						<rect x="239.399" y="464.618" fill="#394679" width="12.745" height="75.17"/>
						<path fill="#0A194D" d="M252.144,468.993v16.987l-12.745-4.931v-11.501C242.589,469.398,248.727,469.143,252.144,468.993z"/>
					</g>
					<path fill="#394679" d="M275.299,470.696h-56.947c-3.132,0-5.695-2.563-5.695-5.695l0,0c0-3.132,2.563-5.694,5.695-5.694
						h56.947c3.132,0,5.694,2.563,5.694,5.694l0,0C280.994,468.133,278.431,470.696,275.299,470.696z"/>
					<path fill="#6C1A48" d="M303.17,463.862h-65.454c-7.832,0-14.239-6.408-14.239-14.239l0,0c0-7.831,6.407-14.239,14.239-14.239
						h65.454c7.831,0,14.239,6.408,14.239,14.239l0,0C317.409,457.454,311.001,463.862,303.17,463.862z"/>
					<path fill="#F14747" d="M245.653,464.242h-52.356c-7.831,0-14.239-6.408-14.239-14.239l0,0c0-7.832,6.408-14.239,14.239-14.239
						h52.356c7.832,0,14.24,6.407,14.24,14.239l0,0C259.893,457.834,253.484,464.242,245.653,464.242z"/>
					<g>
						<g>
							<path fill="#0A194D" d="M299.787,564.849h-7.974c0-9.524-7.749-17.274-17.274-17.274h-58.086
								c-9.525,0-17.274,7.75-17.274,17.274h-7.972c0-13.921,11.325-25.247,25.247-25.247h58.086
								C288.461,539.602,299.787,550.928,299.787,564.849z"/>
						</g>
						<rect x="236.385" y="527.643" fill="#0A194D" width="18.603" height="12.149"/>
					</g>
					<g>
						<circle fill="#0A194D" cx="194.89" cy="572.558" r="6.622"/>
						<path fill="#394679" d="M204.44,571.974h-18.124v-2.012c0-4.813,3.901-8.715,8.714-8.715h0.695
							c4.813,0,8.715,3.901,8.715,8.715V571.974z"/>
						<circle fill="#0A194D" cx="296.174" cy="572.558" r="6.623"/>
						<path fill="#394679" d="M305.725,571.974H287.6v-2.012c0-4.813,3.902-8.715,8.715-8.715h0.695
							c4.813,0,8.715,3.901,8.715,8.715V571.974z"/>
					</g>
					<rect x="240.785" y="542.07" fill="#0A194D" width="10.553" height="23.917"/>
					<g>
						<circle fill="#0A194D" cx="246.284" cy="572.558" r="6.623"/>
						<path fill="#394679" d="M255.834,571.974H237.71v-2.012c0-4.813,3.902-8.715,8.715-8.715h0.695
							c4.813,0,8.715,3.901,8.715,8.715V571.974z"/>
					</g>
				</g>
			</g>
			<path fill="#072859" d="M270.816,453.766l-0.472-0.189C270.48,453.881,270.816,453.766,270.816,453.766z"/>
			<path fill="#072859" d="M270.816,453.766l-0.472-0.189C270.48,453.881,270.816,453.766,270.816,453.766z"/>
			<path fill="#1C1C2D" d="M222.124,388.969l0.596,24.416c0.327,13.409,5.668,24.558,22.753,25.128l44.418,5.694v-26.766
				l-5.694-18.224L222.124,388.969z"/>
			<g>
				<g>
					<path fill="#848383" d="M323.888,577.807l46.3,1.249c2.762,0.074,5.059-2.152,5.131-4.975l0,0
						c0.057-2.174-1.239-4.146-3.228-4.915l-22.697-8.786l-25.055-0.051L323.888,577.807z"/>
					<path fill="#0A194D" d="M371.043,580.394l-46.84-0.907l0.064-3.435l50.239,0.975v0.034
						C374.471,578.938,372.919,580.431,371.043,580.394z"/>
				</g>
				<g>
					
						<line fill="none" stroke="#0A194D" stroke-width="1.1138" stroke-linecap="round" stroke-miterlimit="10" x1="348.11" y1="567.29" x2="353.782" y2="561.455"/>
					
						<line fill="none" stroke="#0A194D" stroke-width="1.1138" stroke-linecap="round" stroke-miterlimit="10" x1="352.15" y1="569.086" x2="357.821" y2="563.25"/>
					
						<line fill="none" stroke="#0A194D" stroke-width="1.1138" stroke-linecap="round" stroke-miterlimit="10" x1="356.007" y1="571.459" x2="362.391" y2="564.841"/>
				</g>
				<g>
					<path fill="#1C1C2D" d="M323.942,562.698c2.748-46.178,4.506-99.992,0.909-108.638c-3.689-5.369-27.557-10.993-50.162-17.245
						l4.762-31.144c18.223,2.849,61.949,17.243,71.374,33.409c3.979,6.824,5.295,31.27,3.432,78.355
						c-0.978,24.663-2.181,43.982-2.181,43.982L323.942,562.698z"/>
				</g>
			</g>
			<g>
				<g>
					<path fill="#9C9694" d="M289.72,578.377l46.301,1.248c2.761,0.074,5.058-2.153,5.131-4.976l0,0
						c0.056-2.173-1.24-4.145-3.228-4.915l-22.697-8.786l-25.056-0.051L289.72,578.377z"/>
					<path fill="#0A194D" d="M336.875,580.963l-46.84-0.906l0.064-3.435l50.238,0.974v0.035
						C340.302,579.507,338.751,581,336.875,580.963z"/>
				</g>
				<g>
					
						<line fill="none" stroke="#0A194D" stroke-width="1.1138" stroke-linecap="round" stroke-miterlimit="10" x1="313.942" y1="567.86" x2="319.613" y2="562.024"/>
					
						<line fill="none" stroke="#0A194D" stroke-width="1.1138" stroke-linecap="round" stroke-miterlimit="10" x1="317.981" y1="569.655" x2="323.653" y2="563.819"/>
					
						<line fill="none" stroke="#0A194D" stroke-width="1.1138" stroke-linecap="round" stroke-miterlimit="10" x1="321.838" y1="572.028" x2="328.224" y2="565.41"/>
				</g>
				<g>
					<path fill="#25253A" d="M289.774,563.268c2.747-46.179,4.505-99.991,0.908-108.638c-3.35-3.389-30.045-9.805-52.11-16.217
						c-8.367-2.432-14.508-9.57-15.675-18.206l-1.153-14.154l24.297-1.139c18.224,2.847,61.19,18.57,70.615,34.737
						c3.979,6.824,5.295,31.268,3.431,78.354c-0.977,24.663-2.18,43.982-2.18,43.982L289.774,563.268z"/>
				</g>
			</g>
			<path fill="#FFBD48" d="M286.194,402.597l-45.739,1.959l-19.155,0.827h-0.082l-5.603-93.968
				c-0.581-12.787,0.755-22.318,3.113-29.421c6.918-20.961,22.665-20.788,24.196-20.788l16.562,0.205
				c14.053,0,24.952,23.808,26.35,48.259l0.245,64.108l0.091,22.4L286.194,402.597z"/>
			<path fill="#F4A22A" d="M286.194,402.597l-45.739,1.959l-19.155,0.827h-0.082l-5.603-93.968
				c-0.581-12.787,0.755-22.318,3.113-29.421l8.888,13.604l15.991,52.729l26.533,12.919l15.94,12.532l0.091,22.4L286.194,402.597z"
				/>
		</g>
		<line fill="#394679" x1="785.877" y1="561.328" x2="785.877" y2="566.629"/>
		<rect x="641.896" y="432.397" fill="#0A194D" width="69.451" height="13.822"/>
		<rect x="639.875" y="385.393" fill="#716F82" width="15.617" height="192.874"/>
		<rect x="698.033" y="385.393" fill="#B1AEC1" width="15.617" height="192.874"/>
		<rect x="257.34" y="433.565" fill="#716F82" width="65.954" height="13.821"/>
		<rect x="255.969" y="385.486" fill="#716F82" width="15.618" height="192.874"/>
		<rect x="312.772" y="385.393" fill="#B1AEC1" width="15.618" height="192.874"/>
		<path fill="#D26552" d="M236.71,386.41h217.846v-11.261c0-3.409-2.763-6.172-6.17-6.172H242.882c-3.408,0-6.171,2.763-6.171,6.172
			V386.41z"/>
		<g>
			<path fill="#FC9F7B" d="M732,375.146v11.267H300.206v-11.267c0-3.408,2.766-6.164,6.174-6.164h419.447
				C729.234,368.981,732,371.737,732,375.146z"/>
			<path fill="#D26552" d="M687.527,368.981v17.431H569.658c-2.072-4.541-5.418-11.961-7.797-17.431H687.527z"/>
		</g>
		<g>
			<path fill="#DDDDDD" d="M582.252,369.574h-88.709c-0.494-0.71-0.885-1.511-1.119-2.375l-19.848-71.647
				c-0.957-3.412,1.613-6.794,5.16-6.794h78.051c2.404,0,4.512,1.613,5.16,3.926L582.252,369.574z"/>
			<path fill="#2D2D3A" d="M503.248,370.219h83.23l-22.191-80.091c-0.645-2.316-2.752-3.918-5.156-3.918h-77.979
				c-3.538,0-6.104,3.373-5.156,6.782l19.834,71.584C496.752,367.91,499.788,370.219,503.248,370.219z"/>
			<path fill="#2F558C" d="M480.38,296.147l16.208,58.367l3.402,12.225h82.572l-3.391-12.225l-16.953-61.023
				c-0.594-2.146-2.555-3.625-4.779-3.625h-72.28C481.882,289.866,479.502,292.991,480.38,296.147z"/>
			<g>
				<g>
					<polygon fill="#ECEEF0" points="529.02,297.805 554.436,297.805 553.869,296.018 528.455,296.018 					"/>
					<polygon fill="#EA5444" points="505.967,297.805 518.001,297.805 517.436,296.018 505.4,296.018 					"/>
					<polygon fill="#A29FB0" points="488.594,297.805 500.627,297.805 500.062,296.018 488.028,296.018 					"/>
					<polygon fill="#6E89C4" points="502.049,297.805 504.896,297.805 504.33,296.018 501.484,296.018 					"/>
					<polygon fill="#A29FB0" points="519.395,297.805 527.83,297.805 527.264,296.018 518.829,296.018 					"/>
				</g>
				<g>
					<polygon fill="#DDDDDD" points="546.719,328.3 534.686,328.3 534.119,326.513 546.152,326.513 					"/>
					<polygon fill="#FFC543" points="564.092,328.3 552.059,328.3 551.492,326.513 563.525,326.513 					"/>
					<polygon fill="#6E89C4" points="550.637,328.3 547.789,328.3 547.223,326.513 550.07,326.513 					"/>
				</g>
				<g>
					<polygon fill="#EA5444" points="547.318,305.429 556.85,305.429 556.283,303.642 546.754,303.642 					"/>
					<polygon fill="#6E89C4" points="524.266,305.429 528.355,305.429 527.791,303.642 523.7,303.642 					"/>
					<polygon fill="#EA5444" points="491.008,305.429 510.984,305.429 510.418,303.642 490.442,303.642 					"/>
					<polygon fill="#6E89C4" points="512.406,305.429 523.195,305.429 522.629,303.642 511.841,303.642 					"/>
					<polygon fill="#6E89C4" points="529.75,305.429 546.127,305.429 545.561,303.642 529.184,303.642 					"/>
				</g>
				<g>
					<polygon fill="#313D6E" points="561.803,351.171 571.334,351.171 570.768,349.384 561.238,349.384 					"/>
				</g>
				<g>
					<polygon fill="#DDDDDD" points="549.732,313.053 559.264,313.053 558.699,311.266 549.166,311.266 					"/>
					<polygon fill="#DDDDDD" points="534.18,313.053 543.709,313.053 543.145,311.266 533.611,311.266 					"/>
					<polygon fill="#6E89C4" points="496.066,313.053 512.445,313.053 511.879,311.266 495.501,311.266 					"/>
				</g>
				<g>
					<polygon fill="#6E89C4" points="561.678,320.677 545.301,320.677 544.734,318.889 561.111,318.889 					"/>
				</g>
			</g>
			<polygon fill="#2D2D3A" points="496.588,354.515 499.99,366.739 582.563,366.739 579.172,354.515 			"/>
			<g>
				<path fill="#85818E" d="M541.094,370.409H642.49c2.371,0,4.311-1.939,4.311-4.311l0,0c0-2.37-1.939-4.309-4.311-4.309H541.094
					c-2.369,0-4.309,1.938-4.309,4.309l0,0C536.785,368.47,538.725,370.409,541.094,370.409z"/>
			</g>
			<polygon opacity="0.55" fill="#C5CBED" points="490.42,286.21 542.615,361.59 574.5,361.59 522.305,286.21 			"/>
			<g>
				<g>
					<path fill="#DDDDDD" d="M502.762,370.355H562.9c2.43,0,4.416-1.987,4.416-4.417l0,0c0-2.429-1.986-4.416-4.416-4.416h-60.139
						c-2.428,0-4.416,1.987-4.416,4.416l0,0C498.346,368.368,500.334,370.355,502.762,370.355z"/>
				</g>
				<g>
					<rect x="523.746" y="364.38" fill="#081344" width="8.381" height="2.514"/>
					<rect x="534.641" y="364.38" fill="#081344" width="6.078" height="2.514"/>
				</g>
			</g>
		</g>
		<g>
			<g>
				<path fill="#F14747" d="M411.621,346.915v22.947h19.169v-22.947c0-1.01-0.822-1.833-1.833-1.833h-15.504
					C412.444,345.082,411.621,345.905,411.621,346.915z"/>
				<g>
					<path fill="#F14747" d="M430.554,365.936c0.25-0.144,6.135-3.591,6.66-9.628c0.2-2.302-0.671-3.728-1.437-4.519
						c-2.106-2.176-5.606-2.05-5.999-2.029l0.153,2.801c0.71-0.033,2.802,0.112,3.835,1.186c0.527,0.547,0.74,1.306,0.652,2.318
						c-0.399,4.594-5.214,7.41-5.262,7.438L430.554,365.936z"/>
				</g>
			</g>
			<path fill="#F14747" d="M420.579,369.862h10.211v-22.947c0-1.01-0.822-1.833-1.833-1.833h-0.617
				c-0.028,1.196-0.356,10.352-2.927,16.943C423.179,367.767,421.187,369.46,420.579,369.862z"/>
			<g>
				<path opacity="0.37" fill="#6C1A48" d="M435.774,351.787c-1.496-1.543-3.693-1.926-4.984-2.02v-2.853
					c0-1.01-0.822-1.832-1.833-1.832h-0.617c-0.028,1.196-0.356,10.352-2.927,16.943c-2.234,5.742-4.227,7.435-4.834,7.836h10.211
					v-4.076c1.141-0.711,5.957-4.05,6.425-9.481C437.41,354.003,436.541,352.582,435.774,351.787z M434.418,356.062
					c-0.253,2.842-2.179,5.002-3.629,6.236v-9.706c0.926,0.084,2.226,0.383,2.974,1.15
					C434.297,354.293,434.502,355.051,434.418,356.062z"/>
			</g>
		</g>
		<g>
			<g>
				<g>
					<path fill="#DDDDDD" d="M432.75,370.634h-68.607c-4.488,0-7.454-4.666-5.549-8.729l23.928-51.047
						c2.086-4.451,6.557-7.295,11.474-7.295h63.164c3.273,0,5.435,3.403,4.047,6.366L432.75,370.634z"/>
					<g>
						<g>
							<path fill="#DADAE0" d="M364.396,370.809h-48.92c-1.976,0-3.592-1.616-3.592-3.593l0,0c0-1.975,1.617-3.592,3.592-3.592
								h48.92c1.976,0,3.593,1.617,3.593,3.592l0,0C367.989,369.192,366.373,370.809,364.396,370.809z"/>
						</g>
						<g>
							<rect x="339.831" y="366.005" fill="#FFFFFF" width="6.986" height="2.096"/>
							<rect x="332.669" y="366.005" fill="#FFFFFF" width="5.065" height="2.096"/>
						</g>
					</g>
					<path fill="#A29FB0" d="M431.718,370.634h-68.769c-2.469,0-4.1-2.565-3.053-4.801l25.771-54.976
						c2.086-4.451,6.559-7.295,11.474-7.295h63.164c3.272,0,5.435,3.403,4.046,6.366l-26.683,56.924
						C436.585,369.159,434.267,370.634,431.718,370.634z"/>
				</g>
				
					<ellipse transform="matrix(0.9195 0.393 -0.393 0.9195 166.578 -134.9336)" fill="#FFFFFF" cx="412.839" cy="339.369" rx="4.192" ry="7.511"/>
			</g>
			<g>
				<g>
					<g>
						<path fill="#FFC7B0" d="M306.931,357.026l14.457-2.241c1.056-0.163,1.786-1.161,1.622-2.216l0,0
							c-0.164-1.057-1.162-1.786-2.217-1.623l-14.458,2.242c-1.055,0.163-1.786,1.16-1.622,2.217l0,0
							C304.877,356.461,305.875,357.19,306.931,357.026z"/>
						<path fill="#FFC7B0" d="M311.512,360.954l11.608-1.8c1.056-0.163,1.786-1.161,1.622-2.216l0,0
							c-0.164-1.057-1.162-1.786-2.217-1.623l-11.608,1.8c-1.056,0.164-1.786,1.161-1.622,2.218l0,0
							C309.458,360.389,310.457,361.118,311.512,360.954z"/>
						<path fill="#FFC7B0" d="M308.807,366.007l13.739-2.13c1.055-0.163,1.785-1.161,1.622-2.217l0,0
							c-0.163-1.056-1.161-1.786-2.217-1.623l-13.739,2.131c-1.056,0.164-1.786,1.161-1.622,2.217l0,0
							C306.753,365.441,307.75,366.171,308.807,366.007z"/>
					</g>
					<path fill="#FFC7B0" d="M313.184,353.321c-0.155,0.018-1.927-0.015-3.847-0.057c-3.315-0.07-6.6,0.65-9.583,2.099l-5.711,2.775
						c0,0,3.218,9.699,3.667,9.783c10.976,2.036,14.768-2.933,14.768-2.933L313.184,353.321z"/>
				</g>
				<g>
					<path fill="#FFC7B0" d="M222.435,304.978c0,0,4.253,18.172,8.993,33.106c1.321,4.146,2.676,8.04,3.982,11.232
						c0.383,0.924,0.777,1.827,1.203,2.698c5.23,11.008,13.268,17.806,25.863,17.864c0.116,0.001,37.305-1.521,37.305-1.521
						l-0.473-12.894l-38.066-1.572c-4.15,0.033-9.444-6.437-11.562-10.649c-0.167-0.326-0.312-0.641-0.436-0.935
						c-0.964-2.289-1.978-5.093-3.021-8.21c-6.232-18.725-13.215-48.982-13.215-48.982L222.435,304.978z"/>
				</g>
			</g>
			<path fill="#FFBD48" d="M236.17,273.555l8.353,37.206l-23.917,7.213c0,0-1.329-4.688-2.339-10.13
				c-1.011-5.443-2.154-19.427,0.463-25.85C221.219,275.881,229.23,274.801,236.17,273.555z"/>
		</g>
		<g>
			<g>
				<g>
					<path fill="#884C2E" d="M680.838,590.308l-50.336-1.042c-3.002-0.063-5.385-2.546-5.322-5.548l0,0
						c0.047-2.312,1.553-4.34,3.752-5.057l25.084-8.171l27.209,1.228L680.838,590.308z"/>
					<path fill="#0A194D" d="M629.465,590.643l50.947,1.434l0.104-3.65l-54.6-1.537l0,0
						C625.859,588.905,627.449,590.586,629.465,590.643z"/>
				</g>
				<g>
					
						<line fill="none" stroke="#0A194D" stroke-width="1.1846" stroke-linecap="round" stroke-miterlimit="10" x1="654.424" y1="577.867" x2="648.691" y2="571.384"/>
					
						<line fill="none" stroke="#0A194D" stroke-width="1.1846" stroke-linecap="round" stroke-miterlimit="10" x1="650.043" y1="579.572" x2="644.311" y2="573.088"/>
					
						<line fill="none" stroke="#0A194D" stroke-width="1.1846" stroke-linecap="round" stroke-miterlimit="10" x1="645.828" y1="581.899" x2="639.375" y2="574.549"/>
				</g>
				<g>
					<path fill="#0A0A2C" d="M683.189,572.935c-2.922-49.109-2.133-94.513,1.691-103.708c3.924-5.71,34.508-18.084,65.076-19.419
						l-14.305-31.229c-40.094,2.015-68.754,17.058-78.777,34.25c-4.23,7.258-7.906,21.895-5.924,71.971
						c1.039,26.229,2.318,46.774,2.318,46.774L683.189,572.935z"/>
				</g>
				<g>
					<path fill="#A36440" d="M636.623,590.696l-50.348,0.378c-3.002,0.023-5.453-2.393-5.475-5.395l0,0
						c-0.018-2.312,1.43-4.382,3.605-5.16l24.846-8.876l27.232,0.459L636.623,590.696z"/>
					<path fill="#0A194D" d="M585.279,592.48l50.967-0.005v-3.652l-54.621,0.005l0,0C581.625,590.845,583.262,592.48,585.279,592.48
						z"/>
				</g>
				<g>
					
						<line fill="none" stroke="#0A194D" stroke-width="1.1846" stroke-linecap="round" stroke-miterlimit="10" x1="609.867" y1="579.006" x2="603.955" y2="572.687"/>
					
						<line fill="none" stroke="#0A194D" stroke-width="1.1846" stroke-linecap="round" stroke-miterlimit="10" x1="605.537" y1="580.834" x2="599.623" y2="574.515"/>
					
						<line fill="none" stroke="#0A194D" stroke-width="1.1846" stroke-linecap="round" stroke-miterlimit="10" x1="601.389" y1="583.279" x2="594.732" y2="576.114"/>
				</g>
				<g>
					<path fill="#25253A" d="M638.461,572.935c-2.922-49.109-2.133-94.513,1.691-103.708c3.926-5.71,34.508-18.084,65.078-19.419
						l-14.305-31.229c-40.094,2.015-68.754,17.058-78.777,34.25c-4.232,7.258-7.908,21.895-5.926,71.971
						c1.039,26.229,2.318,46.774,2.318,46.774L638.461,572.935z"/>
				</g>
				<path fill="#25253A" d="M681.545,427.564c0,5.5,1.957,10.54,5.211,14.469c4.156,5.041,10.467,8.257,17.527,8.257h38.213
					c1.135,0,2.246-0.085,3.334-0.253c2.805-0.399,5.441-1.331,7.811-2.672c0.422-0.229,0.834-0.483,1.232-0.749
					c6.225-4.05,10.348-11.074,10.348-19.052l-0.699-12.126l-82.313-0.713L681.545,427.564z"/>
				<g>
					<g>
						<g>
							<path fill="#FFC7B0" d="M655.293,362.805l-19.695-3.147c-1.438-0.23-2.426-1.595-2.197-3.034l0,0
								c0.23-1.438,1.594-2.427,3.033-2.196l19.697,3.148c1.436,0.229,2.426,1.595,2.195,3.032l0,0
								C658.098,362.047,656.732,363.035,655.293,362.805z"/>
							<path fill="#FFC7B0" d="M649.023,368.131l-15.816-2.528c-1.438-0.23-2.426-1.595-2.197-3.033l0,0
								c0.23-1.438,1.596-2.427,3.035-2.197l15.814,2.527c1.438,0.23,2.426,1.596,2.197,3.034l0,0
								C651.824,367.371,650.461,368.36,649.023,368.131z"/>
							<path fill="#FFC7B0" d="M652.678,375.036l-18.717-2.992c-1.439-0.229-2.428-1.595-2.197-3.033l0,0
								c0.229-1.438,1.594-2.427,3.033-2.197l18.719,2.992c1.438,0.229,2.426,1.595,2.195,3.033l0,0
								C655.482,374.277,654.117,375.267,652.678,375.036z"/>
						</g>
						<path fill="#FFC7B0" d="M646.793,357.713c0.211,0.024,2.627-0.009,5.244-0.052c4.52-0.076,8.994,0.928,13.051,2.923l7.77,3.82
							c0,0-4.451,13.203-5.063,13.313c-14.979,2.707-20.115-4.093-20.115-4.093L646.793,357.713z"/>
					</g>
					<rect x="658.387" y="357.661" fill="#FFFFFF" width="6.648" height="21.607"/>
				</g>
				<g>
					<path fill="#6C1A48" d="M708.604,381.613c15.678,0,30.008-9.149,36.594-23.399l0.324-0.705l20.518-62.652l-25.273-8.277
						l-19.994,61.056c-2.371,4.556-7.143,7.438-12.301,7.382l-43.586-0.432l-0.262,26.594l43.582,0.432
						C708.338,381.612,708.473,381.613,708.604,381.613z"/>
				</g>
				<g>
					<g>
						<path fill="#FFC7B0" d="M566.736,353.909c1.629-2.903,4.076-5.281,7.063-6.754c0.023-0.012,0.047-0.023,0.072-0.034
							c4.061-1.984,8.537-2.974,13.059-2.886l8.654,0.169c0,0,1.74,20.52,1.629,19.906c-0.225-1.219-8.336-2.438-30.303-2.438
							c-2.078,0-3.414-2.187-2.398-4L566.736,353.909z"/>
					</g>
					<rect x="591.883" y="343.84" fill="#FFFFFF" width="8.26" height="22.132"/>
				</g>
				<path fill="#F14747" d="M767.953,434.212c0,0-8.521,0.939-20.043,1.43c-2.092,0.102-4.297,0.173-6.553,0.224
					c-13.307,0.337-28.891-0.112-39.963-2.979c-6.725-1.755-11.826-3.571-15.635-5.225c-1.561-0.684-2.896-1.327-4.051-1.939
					c-4.225-2.225-5.855-3.868-6.072-4.092c-0.01-0.021-0.02-0.031-0.02-0.031l-0.633-71.077l-0.479-55.822
					c0-22.001,17.838-39.84,39.84-39.84h13.471c2.357,0,4.674,0.203,6.918,0.592c2.328,0.408,4.582,1.021,6.756,1.815
					c0.01,0,0.01,0.011,0.021,0.011c15.256,5.592,26.145,20.247,26.145,37.421L767.953,434.212z"/>
				<path opacity="0.33" fill="#6C1A48" d="M767.953,434.212c0,0-8.521,0.939-20.043,1.43c-2.092,0.102-4.297,0.173-6.553,0.224
					c-7.102,0.184-14.869,0.133-22.236-0.388l-0.326-150.238c0-11.409-4.234-21.85-11.236-29.798
					c2.205-0.389,4.471-0.582,6.787-0.582h13.471c2.357,0,4.674,0.203,6.918,0.592c2.328,0.408,4.582,1.021,6.756,1.815
					c0.01,0,0.01,0.011,0.021,0.011c15.256,5.592,26.145,20.247,26.145,37.421L767.953,434.212z"/>
				<path opacity="0.48" fill="#6C1A48" d="M700.457,295.261c-1.563,6.766-10.889,48.791-15.186,68.149l-0.256-32.993
					c0,0-1.428,5.613-5.357,12.776l-2-17.317C677.658,325.876,702.498,286.413,700.457,295.261z"/>
				<g>
					<g>
						<rect x="723.197" y="477.882" fill="#394679" width="13.449" height="74.772"/>
						<path fill="#0A194D" d="M723.197,482.233v16.898l13.449-4.905v-11.44C733.279,482.636,726.803,482.382,723.197,482.233z"/>
					</g>
					<path fill="#394679" d="M698.418,483.927h60.783c3.115,0,5.666-2.548,5.666-5.664l0,0c0-3.116-2.551-5.665-5.666-5.665h-60.783
						c-3.115,0-5.666,2.549-5.666,5.665l0,0C692.752,481.379,695.303,483.927,698.418,483.927z"/>
					<g>
						<g>
							<path fill="#0A194D" d="M673.459,580.267h8.412c0-9.475,8.18-17.182,18.229-17.182h61.297
								c10.053,0,18.229,7.707,18.229,17.182h8.416c0-13.847-11.953-25.113-26.645-25.113H700.1
								C685.41,555.153,673.459,566.42,673.459,580.267z"/>
						</g>
						<rect x="720.197" y="540.572" fill="#0A194D" width="19.631" height="16.382"/>
					</g>
					<g>
						<ellipse fill="#0A194D" cx="784.153" cy="587.936" rx="6.987" ry="6.587"/>
						<path fill="#394679" d="M774.076,587.354h19.125v-1.742c0-4.932-3.998-8.929-8.928-8.929h-1.27
							c-4.932,0-8.928,3.997-8.928,8.929V587.354z"/>
						<ellipse fill="#0A194D" cx="677.271" cy="587.936" rx="6.989" ry="6.587"/>
						<path fill="#394679" d="M667.193,587.354h19.125v-1.742c0-4.932-3.996-8.929-8.928-8.929h-1.27
							c-4.93,0-8.928,3.997-8.928,8.929V587.354z"/>
					</g>
					<rect x="724.584" y="557.609" fill="#0A194D" width="11.137" height="23.79"/>
					<g>
						<ellipse fill="#0A194D" cx="729.919" cy="587.936" rx="6.989" ry="6.587"/>
						<path fill="#394679" d="M719.84,587.354h19.127v-1.742c0-4.932-3.998-8.929-8.93-8.929h-1.268c-4.932,0-8.93,3.997-8.93,8.929
							V587.354z"/>
					</g>
				</g>
				<path fill="#6C1A48" d="M837.006,332.618l-18.012,130.016c-1.094,7.907-7.732,13.871-15.711,14.121l-41.021,0.753
					l25.053-163.486l33.445-0.026C830.707,313.98,838.369,322.765,837.006,332.618z"/>
				<g>
					<path fill="#F14747" d="M640.908,369.525c15.676,0,30.008-9.15,36.594-23.4l29.543-63.932l-24.141-11.156l-29.545,63.931
						c-2.26,4.889-7.148,8.026-12.584,7.96l-43.586-0.43l-0.262,26.593l43.584,0.431
						C640.643,369.524,640.777,369.525,640.908,369.525z"/>
				</g>
				<path fill="#F14747" d="M659.939,477.508h105.133c7.791,0,14.164-6.374,14.164-14.164l0,0c0-7.791-6.373-14.164-14.164-14.164
					H659.939c-7.789,0-14.164,6.373-14.164,14.164l0,0C645.775,471.134,652.15,477.508,659.939,477.508z"/>
				<rect x="700.314" y="245.79" fill="#FFFFFF" width="41.1" height="11.484"/>
				<path fill="#F14747" d="M780.947,459.616l19.09-133.337c0.852-5.939-3.609-11.456-9.912-12.258l0,0
					c-6.301-0.802-12.152,3.402-13.004,9.343l-19.092,133.337c-0.85,5.939,3.609,11.456,9.912,12.258l0,0
					C774.244,469.761,777.504,474.215,780.947,459.616z"/>
				<path opacity="0.48" fill="#6C1A48" d="M685.76,427.661c-1.561-0.684-2.896-1.327-4.051-1.939
					c-4.225-2.225-5.855-3.868-6.072-4.092c-0.01-0.021-0.02-0.031-0.02-0.031l-0.633-71.077
					c7.521-10.246,10.031-20.104,10.031-20.104L685.76,427.661z"/>
			</g>
		</g>
		<g>
			<g>
				<path fill="#6075B0" d="M150.001,516.365v19.123h81.679c5.278,0,9.562-4.283,9.562-9.562c0-2.634-1.071-5.026-2.797-6.764
					c-1.738-1.727-4.13-2.798-6.764-2.798H150.001z"/>
				<path fill="#0A194D" d="M127.568,516.365v19.123h81.679c5.278,0,9.562-4.283,9.562-9.562c0-2.634-1.071-5.026-2.797-6.764
					c-1.738-1.727-4.13-2.798-6.764-2.798H127.568z"/>
				<path fill="#FFFFFF" d="M127.568,519.644v12.26h79.101c3.387,0,6.13-2.742,6.13-6.129c0-1.694-0.689-3.224-1.792-4.338
					c-1.115-1.104-2.645-1.793-4.338-1.793H127.568z"/>
			</g>
		</g>
		<g>
			<rect x="157.631" y="514.522" fill="#BF7847" width="127.453" height="81.735"/>
			<rect x="104.301" y="514.526" fill="#DD9762" width="127.45" height="81.731"/>
			<path fill="#2D2D3A" d="M180.489,537.38h-24.936c-3.239,0-5.888-2.649-5.888-5.887l0,0c0-3.239,2.649-5.889,5.888-5.889h24.936
				c3.239,0,5.888,2.649,5.888,5.889l0,0C186.376,534.73,183.728,537.38,180.489,537.38z"/>
			<path opacity="0.64" fill="#4F1B0A" d="M155.6,542.886c0-2.419-0.979-4.623-2.571-6.215c-1.603-1.593-3.796-2.582-6.226-2.582
				h-4.123c1.766-0.766,3-2.531,3-4.582v-12.604c0-0.867-0.214-1.674-0.602-2.377H104.3v24.971v12.185v44.179h38.115
				c2.755,0,5-2.246,5-5.011v-12.604c0-2.766-2.245-5.01-5-5.01h-1.562c1.092-0.919,1.796-2.275,1.796-3.816v-12.604
				c0-2.766-2.235-5.011-5-5.011l-0.333-0.123h9.486C151.661,551.682,155.6,547.743,155.6,542.886z"/>
		</g>
		<g opacity="0.84">
			<g>
				<path fill="#AB7340" d="M100.855,575.699H39.352v-21.277h61.503c2.6,0,4.707,2.107,4.707,4.707v11.862
					C105.562,573.592,103.455,575.699,100.855,575.699z"/>
				<path fill="#AB7340" d="M98.59,574.333H39.352v-18.568H98.59c2.227,0,4.032,1.806,4.032,4.033V570.3
					C102.622,572.527,100.817,574.333,98.59,574.333z"/>
			</g>
			<g>
				<path fill="#AB7340" d="M101.949,535.512H42.712v-18.567h59.237c2.227,0,4.033,1.805,4.033,4.032v10.503
					C105.982,533.707,104.176,535.512,101.949,535.512z"/>
			</g>
			<g>
				<path fill="#AB7340" d="M105.333,595.856H43.832v-21.277h61.502c2.6,0,4.708,2.106,4.708,4.707v11.862
					C110.042,593.748,107.934,595.856,105.333,595.856z"/>
				<path fill="#AB7340" d="M103.069,594.489H43.832v-18.568h59.238c2.227,0,4.032,1.807,4.032,4.033v10.502
					C107.102,592.684,105.296,594.489,103.069,594.489z"/>
			</g>
			<g>
				<path fill="#AB7340" d="M53.49,537.503v16.546h59.477c4.567,0,8.272-3.707,8.272-8.273c0-2.278-0.926-4.349-2.419-5.853
					c-1.504-1.494-3.574-2.42-5.853-2.42H53.49z"/>
				<path fill="#AB7340" d="M53.49,540.339v10.608h57.245c2.931,0,5.304-2.373,5.304-5.304c0-1.465-0.595-2.79-1.55-3.754
					c-0.964-0.955-2.288-1.551-3.753-1.551H53.49z"/>
			</g>
			<g>
				<line fill="#AB7340" x1="42.105" y1="521.388" x2="103.695" y2="521.388"/>
				<line fill="#AB7340" x1="42.105" y1="524.934" x2="103.695" y2="524.934"/>
				<line fill="#AB7340" x1="42.105" y1="528.479" x2="103.695" y2="528.479"/>
				<line fill="#AB7340" x1="42.105" y1="532.024" x2="103.695" y2="532.024"/>
			</g>
			<g>
				<line fill="#AB7340" x1="39.306" y1="559.648" x2="100.896" y2="559.648"/>
				<line fill="#AB7340" x1="39.306" y1="563.194" x2="100.896" y2="563.194"/>
				<line fill="#AB7340" x1="39.306" y1="566.74" x2="100.896" y2="566.74"/>
				<line fill="#AB7340" x1="39.306" y1="570.286" x2="100.896" y2="570.286"/>
			</g>
			<g>
				<line fill="#AB7340" x1="43.971" y1="579.991" x2="105.562" y2="579.991"/>
				<line fill="#AB7340" x1="43.971" y1="583.537" x2="105.562" y2="583.537"/>
				<line fill="#AB7340" x1="43.971" y1="587.083" x2="105.562" y2="587.083"/>
				<line fill="#AB7340" x1="43.971" y1="590.63" x2="105.562" y2="590.63"/>
			</g>
		</g>
		<g>
			<g>
				<path fill="#6C1A48" d="M117.709,572.554H46.612v-24.596h71.097c3.006,0,5.442,2.436,5.442,5.441v13.713
					C123.151,570.117,120.715,572.554,117.709,572.554z"/>
				<path fill="#6C1A48" d="M91.819,572.554H20.667v-24.596h71.151c3.005,0,5.441,2.436,5.441,5.441v13.713
					C97.26,570.117,94.824,572.554,91.819,572.554z"/>
				<path fill="#FFFFFF" d="M89.201,570.976H20.667V549.51h68.533c2.574,0,4.662,2.088,4.662,4.662v12.142
					C93.862,568.888,91.775,570.976,89.201,570.976z"/>
				<rect x="100.672" y="555.725" fill="#FFFFFF" width="19.795" height="8.738"/>
				<rect x="102.601" y="557.667" fill="#0A194D" width="16.181" height="1.78"/>
				<rect x="102.601" y="560.579" fill="#0A194D" width="16.181" height="1.781"/>
			</g>
			<g>
				<path fill="#6C1A48" d="M121.003,529.151H49.906v-24.597h71.097c3.005,0,5.442,2.437,5.442,5.441v13.714
					C126.445,526.715,124.008,529.151,121.003,529.151z"/>
				<path fill="#6C1A48" d="M95.113,529.151H23.313v-24.597h71.799c3.004,0,5.441,2.437,5.441,5.441v13.714
					C100.554,526.715,98.117,529.151,95.113,529.151z"/>
				<path fill="#FFFFFF" d="M92.494,527.572H23.313v-21.465h69.181c2.575,0,4.662,2.087,4.662,4.662v12.141
					C97.156,525.485,95.069,527.572,92.494,527.572z"/>
				<rect x="103.966" y="512.322" fill="#FFFFFF" width="19.794" height="8.738"/>
				<rect x="105.893" y="514.264" fill="#0A194D" width="16.182" height="1.78"/>
				<rect x="105.893" y="517.177" fill="#0A194D" width="16.182" height="1.78"/>
			</g>
			<g>
				<path fill="#0A194D" d="M122.887,595.856H51.79V571.26h71.098c3.006,0,5.442,2.437,5.442,5.441v13.713
					C128.329,593.419,125.893,595.856,122.887,595.856z"/>
				<path fill="#0A194D" d="M96.997,595.856H25.899V571.26h71.098c3.005,0,5.442,2.437,5.442,5.441v13.713
					C102.438,593.419,100.002,595.856,96.997,595.856z"/>
				<path fill="#FFFFFF" d="M94.378,594.276H25.899v-21.464h68.479c2.575,0,4.662,2.087,4.662,4.661v12.141
					C99.04,592.189,96.953,594.276,94.378,594.276z"/>
				<rect x="105.851" y="579.026" fill="#FFFFFF" width="19.794" height="8.738"/>
				<rect x="107.779" y="580.968" fill="#0A194D" width="16.181" height="1.78"/>
				<rect x="107.779" y="583.881" fill="#0A194D" width="16.181" height="1.78"/>
			</g>
			<g>
				<path fill="#D26552" d="M45.968,528.693v19.128h81.701c5.279,0,9.563-4.285,9.563-9.563c0-2.634-1.071-5.028-2.798-6.767
					c-1.737-1.727-4.131-2.798-6.765-2.798H45.968z"/>
				<path fill="#FC9F7B" d="M36.475,528.693v19.128h68.755c5.279,0,9.564-4.285,9.564-9.563c0-2.634-1.071-5.028-2.798-6.767
					c-1.737-1.727-4.131-2.798-6.766-2.798H36.475z"/>
				<path fill="#FFFFFF" d="M36.475,531.974v12.263h66.176c3.388,0,6.131-2.744,6.131-6.132c0-1.694-0.688-3.225-1.792-4.34
					c-1.115-1.104-2.645-1.791-4.339-1.791H36.475z"/>
			</g>
			<g>
				
					<line fill="none" stroke="#B0ACBF" stroke-width="1.2685" stroke-miterlimit="10" x1="23.313" y1="511.244" x2="94.513" y2="511.244"/>
				
					<line fill="none" stroke="#B0ACBF" stroke-width="1.2685" stroke-miterlimit="10" x1="23.313" y1="515.343" x2="94.513" y2="515.343"/>
				
					<line fill="none" stroke="#B0ACBF" stroke-width="1.2685" stroke-miterlimit="10" x1="23.313" y1="519.442" x2="94.513" y2="519.442"/>
				
					<line fill="none" stroke="#B0ACBF" stroke-width="1.2685" stroke-miterlimit="10" x1="23.313" y1="523.542" x2="94.513" y2="523.542"/>
			</g>
			<g>
				
					<line fill="none" stroke="#B0ACBF" stroke-width="1.2685" stroke-miterlimit="10" x1="20.667" y1="553.999" x2="91.867" y2="553.999"/>
				
					<line fill="none" stroke="#B0ACBF" stroke-width="1.2685" stroke-miterlimit="10" x1="20.667" y1="558.099" x2="91.867" y2="558.099"/>
				
					<line fill="none" stroke="#B0ACBF" stroke-width="1.2685" stroke-miterlimit="10" x1="20.667" y1="562.197" x2="91.867" y2="562.197"/>
				
					<line fill="none" stroke="#B0ACBF" stroke-width="1.2685" stroke-miterlimit="10" x1="20.667" y1="566.298" x2="91.867" y2="566.298"/>
			</g>
			<g>
				
					<line fill="none" stroke="#B0ACBF" stroke-width="1.2685" stroke-miterlimit="10" x1="26.061" y1="577.516" x2="97.26" y2="577.516"/>
				
					<line fill="none" stroke="#B0ACBF" stroke-width="1.2685" stroke-miterlimit="10" x1="26.061" y1="581.616" x2="97.26" y2="581.616"/>
				
					<line fill="none" stroke="#B0ACBF" stroke-width="1.2685" stroke-miterlimit="10" x1="26.061" y1="585.715" x2="97.26" y2="585.715"/>
				
					<line fill="none" stroke="#B0ACBF" stroke-width="1.2685" stroke-miterlimit="10" x1="26.061" y1="589.814" x2="97.26" y2="589.814"/>
			</g>
		</g>
		<rect x="561.111" y="87.435" fill="#D26552" width="215.393" height="16.569"/>
		<rect x="576.943" y="73.81" fill="#6C1A48" width="109.037" height="14.562"/>
		<rect x="542.334" y="73.81" fill="#F14747" width="109.037" height="14.562"/>
		<path fill="none" stroke="#0A194D" stroke-width="1.7821" stroke-miterlimit="10" d="M403.731,532.174v-23.991
			c0-4.944,4.007-8.951,8.951-8.951l0,0c4.944,0,8.952,4.007,8.952,8.951v29.72h15.397v-18.798c0-6.626-5.371-11.996-11.995-11.996
			l0,0c-6.625,0-11.995,5.37-11.995,11.996v18.798"/>
		<path fill="#6075B0" d="M506.854,519.999h-10.76v-7.351c0-2.971,2.408-5.381,5.381-5.381l0,0c2.971,0,5.379,2.41,5.379,5.381
			V519.999z"/>
		<path fill="#FFBE62" d="M492.002,519.999H478.25v-9.395c0-3.797,3.078-6.876,6.875-6.876l0,0c3.799,0,6.877,3.079,6.877,6.876
			V519.999z"/>
		<g>
			<path fill="#868498" d="M520.904,566.059h-48.195c-6.002,0-10.912-4.91-10.912-10.912v-27.279c0-6.003,4.91-10.913,10.912-10.913
				h48.195c6,0,10.912,4.91,10.912,10.913v27.279C531.816,561.148,526.904,566.059,520.904,566.059z"/>
			<path fill="#B0ACBF" d="M509.432,566.059h-48.195c-6.002,0-10.912-4.91-10.912-10.912v-27.279c0-6.003,4.91-10.913,10.912-10.913
				h48.195c6.001,0,10.911,4.91,10.911,10.913v27.279C520.343,561.148,515.433,566.059,509.432,566.059z"/>
		</g>
		<rect x="462.902" y="527.729" fill="#0A194D" width="42.74" height="26.825"/>
		<path fill="#6075B0" d="M418.233,558.67h-53.71v-24.751c0-8.281,6.713-14.994,14.994-14.994h23.723
			c8.281,0,14.994,6.713,14.994,14.994V558.67z"/>
		<path fill="#2B3563" d="M437.031,558.67h-53.71v-24.751c0-8.281,6.713-14.994,14.994-14.994h23.723
			c8.281,0,14.994,6.713,14.994,14.994V558.67z"/>
		<g>
			<rect x="382.646" y="528.593" fill="#BF7847" width="76.943" height="71.407"/>
			<rect x="350.446" y="528.593" fill="#DD9762" width="76.943" height="71.407"/>
			<path fill="#2D2D3A" d="M395.723,548.563h-13.611c-2.352,0-4.275-1.925-4.275-4.275v-1.736c0-2.352,1.923-4.276,4.275-4.276
				h13.611c2.352,0,4.276,1.925,4.276,4.276v1.736C400,546.638,398.075,548.563,395.723,548.563z"/>
		</g>
		<g>
			<rect x="475.026" y="528.593" fill="#BF7847" width="76.942" height="71.407"/>
			<rect x="442.826" y="528.593" fill="#DD9762" width="76.944" height="71.407"/>
			<path fill="#2D2D3A" d="M488.104,548.563h-13.611c-2.353,0-4.275-1.925-4.275-4.275v-1.736c0-2.352,1.923-4.276,4.275-4.276
				h13.611c2.352,0,4.276,1.925,4.276,4.276v1.736C492.381,546.638,490.456,548.563,488.104,548.563z"/>
		</g>
		<g>
			<g>
				<rect x="436.431" y="358.276" fill="#0A194D" width="40.042" height="11.942"/>
				<rect x="425.19" y="358.276" fill="#6075B0" width="40.042" height="11.942"/>
			</g>
			<path fill="none" stroke="#FFFFFF" stroke-width="2.0651" stroke-linecap="round" stroke-miterlimit="10" d="M441.167,365.982
				L441.167,365.982c-3.96,0.609-6.908,3.978-6.99,7.982l-0.104,5.146c-0.158,7.81-6.478,14.09-14.289,14.197l-13.366,0.185
				c-6.069,0.084-11.145-4.596-11.554-10.652l-0.098-1.452c-0.436-6.447-5.49-11.624-11.924-12.21l0,0l-35.634-0.082
				c-1.175-0.003-2.286-0.54-3.018-1.46l-0.447-0.562"/>
			<path fill="none" stroke="#FFFFFF" stroke-width="2.0651" stroke-linecap="round" stroke-miterlimit="10" d="M448.367,367.036
				L448.367,367.036c-3.52,0.195-6.243,3.157-6.146,6.681l1.062,38.002c0.281,10.062-7.961,18.286-18.022,17.985l0,0
				c-9.299-0.279-16.755-7.785-16.974-17.086l-0.87-36.946c-0.081-3.462-2.858-6.255-6.32-6.354l-17.02-0.065"/>
			<path fill="#FFFFFF" d="M454.162,368.792h-7.727c-0.873,0-1.581-0.707-1.581-1.58l0,0c0-0.873,0.708-1.58,1.581-1.58h7.727
				c0.873,0,1.581,0.707,1.581,1.58l0,0C455.743,368.085,455.035,368.792,454.162,368.792z"/>
			<path fill="#FFFFFF" d="M441.523,368.013h-7.728c-0.872,0-1.581-0.708-1.581-1.581l0,0c0-0.873,0.708-1.581,1.581-1.581h7.728
				c0.873,0,1.58,0.708,1.58,1.581l0,0C443.104,367.305,442.396,368.013,441.523,368.013z"/>
		</g>
	</g>
	<rect x="529.078" y="87.435" fill="#FC9F7B" width="215.393" height="16.569"/>
	<path fill="#F4A891" d="M252.013,268.989h-3.436c-4.463,0-8.116-3.652-8.116-8.115v-25.707c0-4.463,3.652-8.116,8.116-8.116h3.436
		c4.463,0,8.116,3.652,8.116,8.116v25.707C260.129,265.337,256.477,268.989,252.013,268.989z"/>
	<g>
		<path fill="#FFFFFF" d="M250.711,169.178l-2.896-3.172c0,0-14.549,2.378-20.445,15.03l2.138,3.138L250.711,169.178z"/>
		<g>
			<path fill="#F3885E" d="M297.059,205.166c-0.038,0.529-0.085,1.056-0.144,1.583c-0.297,2.537-0.85,5-1.643,7.339
				c-3.379,10.014-37.75-20.038-47.403-16.23c-4.792,1.896-7.799,42.487-8.568,41.79c-16.325-14.806-15.486-33.01-15.011-39.781
				c1.342-19.097,19.155-33.316,38.097-32.841c0.54,0.017,1.08,0.044,1.619,0.082c11.969,0.84,22.132,7.493,27.943,17.014
				c0.01,0.012,0.01,0.012,0.01,0.012c1.7,2.796,3.025,5.847,3.915,9.063C296.918,196.985,297.349,201.025,297.059,205.166z"/>
			<g>
				<path fill="#FFDCD4" d="M249.591,212.482c-0.042,0.774-0.22,1.519-0.535,2.199c-0.356,0.818-0.901,1.688-1.572,2.295
					c-1.216,1.09-2.84,1.855-4.601,1.761l-3.783-0.2l-2.902-0.146l0.43-8.615h0.01l0.073-1.592l0.063-1.237l0.063-1.132l0.011-0.293
					h0.01l6.675,0.345c1.688,0.083,3.186,0.818,4.276,1.939c0.66,0.681,1.163,1.52,1.467,2.432
					C249.528,210.952,249.633,211.695,249.591,212.482z"/>
				<path fill="#FFC7B0" d="M235.997,223.216c-0.01,0.335,0,0.659,0.01,0.994c0,0.106,0.011,0.21,0.022,0.315
					c0.167,4.17,1.257,8.142,3.06,11.716c0.083,0.179,0.178,0.356,0.272,0.534c2.956,5.555,7.661,10.082,13.436,12.818
					c0.011,0.01,0.021,0.01,0.021,0.01c2.232,1.058,4.632,1.844,7.146,2.306c0.923,0.167,1.845,0.304,2.788,0.397
					c0.377,0.031,0.754,0.053,1.143,0.073c1.383,0.063,2.735,0.054,4.076-0.083c0.378-0.021,0.766-0.053,1.144-0.115
					c12.523-1.552,22.73-10.994,25.12-23.298c0.251-1.309,0.429-2.67,0.492-4.044l0.105-2.086l0.712-13.927
					c0.116-2.097,0.084-4.14-0.157-6.121c-0.178-1.54-0.503-3.049-1.006-4.517c-1.299-3.846-3.082-7.325-5.795-10.291
					c-5.062-5.554-12.324-9.19-20.425-9.609c-6.057-0.315-11.8,1.226-16.694,4.097c-0.702,0.419-1.393,0.87-2.064,1.342
					c-3.354,2.358-6.193,5.407-8.3,8.928c0,0-0.01,0.011-0.01,0.021c-0.556,0.922-1.069,1.897-1.51,2.882
					c-0.083,0.178-0.156,0.345-0.23,0.545c-0.534,1.194-1.017,2.441-1.404,3.72c-0.577,1.824-0.975,3.731-1.09,5.701l-0.021,0.294
					l-0.063,1.131l-0.063,1.237l-0.083,1.583v0.01l-0.01,0.085l-0.011,0.272l-0.042,0.733l-0.367,7.525l-0.136,2.483l-0.042,0.944
					v0.209C235.997,222.43,235.976,222.828,235.997,223.216z"/>
				<path fill="#FFDCD4" d="M231.647,216.036c-0.136,2.747,1.75,5.282,4.37,5.964c0.241,0.063,0.492,0.115,0.754,0.146
					c0.116,0.031,0.252,0.031,0.388,0.042l1.792,0.095l0.199-3.741l0.042-0.839l0.347-6.79l-1.802-0.094
					c-0.168-0.011-0.314-0.011-0.473,0h-0.01c-0.23,0-0.461,0.02-0.681,0.052c0,0-0.011-0.01-0.011,0
					c-1.142,0.136-2.19,0.587-3.007,1.32C232.455,213.176,231.731,214.476,231.647,216.036z"/>
			</g>
			<path fill="#FFC7B0" d="M236.018,222v0.032c-0.021,0.398-0.042,0.796-0.021,1.184c-0.01,0.335,0,0.659,0.01,0.994
				c0,0.106,0.011,0.21,0.022,0.315c0.052,0.021,0.105,0.021,0.158,0.031c0.135,4.16,1.152,8.11,2.902,11.685
				c0.083,0.179,0.178,0.356,0.272,0.534c2.935,5.712,7.714,10.376,13.614,13.164c0.01,0.01,0.021,0.01,0.021,0.01
				c5.03,3.019,5.355,2.578,5.355,2.578s2.42-0.314,2.096-0.524c-2.043-1.319-7.325-6.372-10.626-15.102
				c-1.802-4.746-2.222-12.576-2.159-19.576v-0.524c0.031-3.207,0.178-6.225,0.325-8.646c0-0.042,0-0.095,0.011-0.137
				c0.198-3.343,0.418-5.523,0.418-5.523c-2.294-4.957-6.329-4.538-10.292-2.326c-0.544,1.718-0.932,3.51-1.068,5.365
				c-0.011,0.115-0.011,0.22-0.021,0.335h-0.01l-0.01,0.293l-0.063,1.131l-0.063,1.238l-0.084,1.582v0.01
				c-0.063,0-0.136,0-0.199,0.01l-0.042,0.733c-1.142,0.136-2.19,0.587-3.007,1.32c-1.101,0.985-1.824,2.285-1.908,3.846
				C231.512,218.783,233.397,221.318,236.018,222z"/>
			<path fill="#F3885E" d="M286.022,193.209c0.461,2.541-0.426,4.949-2.058,6.581c-1.342,1.342-3.207,2.181-5.24,2.181
				c0,0-29.107,2.175-33.304,11.187l-3.115,5.729c-0.458,0.842-1.374,1.342-2.33,1.271c-0.018-0.002-0.036-0.003-0.054-0.004
				c-1.158-0.09-2.091-0.967-2.239-2.119c-0.722-5.606-3.96-21.713-3.96-22.97c0-2.043,1.91-4.411,3.251-5.763
				c1.341-1.342,3.207-2.18,5.24-2.18h36.206C282.065,187.12,285.371,189.621,286.022,193.209z"/>
			<path fill="#F14747" d="M273.021,235.934h4.628c0.625,0,1.135-0.51,1.135-1.135l0,0c0-0.625-0.511-1.135-1.135-1.135h-4.628
				c-0.625,0-1.135,0.51-1.135,1.135l0,0C271.886,235.424,272.397,235.934,273.021,235.934z"/>
			<path fill="#F14747" d="M273.163,237.921h3.248c0.814,0,1.48-0.666,1.48-1.479l0,0c0-0.813-0.666-1.479-1.48-1.479h-3.248
				c-0.813,0-1.479,0.666-1.479,1.479l0,0C271.684,237.255,272.35,237.921,273.163,237.921z"/>
			<path fill="#FFC7B0" d="M280.27,227.026c0,0-0.339,2.108-3.319,2.009c-2.62-0.087-2.882-1.921-2.882-1.921L280.27,227.026z"/>
			<circle fill="#394679" cx="235.12" cy="223.708" r="3.144"/>
			<path fill="#F3885E" d="M284.025,192.007c0,0,8.839-0.351,12.411,10.173c0,0,2-10.697-12.673-21.701
				c-14.671-11.003-40.608-1.834-42.705,2.881c-2.096,4.717-1.833,8.384-1.833,8.384L284.025,192.007z"/>
			<g>
				<path fill="none" stroke="#F3885E" stroke-width="2.0538" stroke-linecap="round" stroke-miterlimit="10" d="M270.664,210.609
					c0,0-4.978-2.358-10.218,0.785"/>
				<path fill="none" stroke="#F3885E" stroke-width="2.0538" stroke-linecap="round" stroke-miterlimit="10" d="M291.361,209.953
					c0,0-4.978-2.358-10.218,0.786"/>
			</g>
			<path fill="#0A194D" d="M265.862,220.025L265.862,220.025c-0.721,0-1.311-0.589-1.311-1.311v-2.423c0-0.72,0.59-1.31,1.311-1.31
				l0,0c0.72,0,1.31,0.59,1.31,1.31v2.423C267.172,219.437,266.582,220.025,265.862,220.025z"/>
			<path fill="#0A194D" d="M286.123,220.025L286.123,220.025c-0.72,0-1.311-0.589-1.311-1.311v-2.423c0-0.72,0.59-1.31,1.311-1.31
				l0,0c0.721,0,1.31,0.59,1.31,1.31v2.423C287.433,219.437,286.843,220.025,286.123,220.025z"/>
		</g>
	</g>
</g>
</svg>
