<?xml version="1.0" encoding="utf-8"?>
<!-- Generator: Adobe Illustrator 16.0.0, SVG Export Plug-In . SVG Version: 6.00 Build 0)  -->
<!DOCTYPE svg PUBLIC "-//W3C//DTD SVG 1.1//EN" "http://www.w3.org/Graphics/SVG/1.1/DTD/svg11.dtd">
<svg version="1.1" id="Layer_1" xmlns="http://www.w3.org/2000/svg" xmlns:xlink="http://www.w3.org/1999/xlink" x="0px" y="0px"
	 width="222.805px" height="205.084px" viewBox="0 26.816 222.805 205.084" enable-background="new 0 26.816 222.805 205.084"
	 xml:space="preserve">
<g>
	<g>
		<path opacity="0.4" fill="#70578E" enable-background="new    " d="M78.909,163.168c0.095-1.31,0.26-2.779,0.477-4.3h143.418
			l-3.731-14.271h-5.58V30.337H10.512v114.26H4.466l3.732,14.271h41.771c0.884,2.677,2.506,6.864,2.852,8.948
			c0.281,1.693,0.033,5.073-0.233,7.68c-0.081,0.79,1.316,1.658,3.506,2.35c-0.277,1.678-0.563,3.702-0.527,4.691
			c0.247,6.938,4.422,18.23,4.764,25.167c0.085,1.714-0.222,10.084-0.539,12.64l-11.066,0.803v10.453l1.965,0.358l4.707-4.555
			l9.177-0.422c3.457-0.074,8.018-1.425,7.206-4.674c-4.29-17.156,2.64-43.288,2.984-44.724c4.14-1.406,5.268-3.125,5.268-3.125
			S78.706,165.982,78.909,163.168z"/>
		<g>
			<path fill="#EF9A6A" d="M210.028,142.571c0,0.973-0.796,1.77-1.771,1.77H8.816c-0.973,0-1.77-0.797-1.77-1.77V28.585
				c0-0.973,0.797-1.769,1.77-1.769h199.442c0.975,0,1.771,0.796,1.771,1.769V142.571z"/>
		</g>
		
			<radialGradient id="SVGID_1_" cx="2730.3816" cy="2402.3621" r="139.8919" gradientTransform="matrix(1.7398 0 0 -1.7398 -4739.8545 4211.6689)" gradientUnits="userSpaceOnUse">
			<stop  offset="0" style="stop-color:#5A8447"/>
			<stop  offset="1" style="stop-color:#385A3F"/>
		</radialGradient>
		<rect x="13.056" y="32.825" fill="url(#SVGID_1_)" width="190.961" height="105.505"/>
		<path opacity="0.5" fill="#4C7F60" enable-background="new    " d="M201.911,32.825H13.056v103.228v2.277h2.105h188.855V35.103
			v-2.277H201.911z M201.911,136.053H15.163V35.103h186.749L201.911,136.053L201.911,136.053z"/>
		<g>
			<path opacity="0.4" fill="#70578E" enable-background="new    " d="M216.645,144.55l-18.156-31.963l2.973,1.173l-0.934-3.487
				l-65.527,34.142L216.645,144.55z M163.799,137.379l30.716-17.449l9.951,17.519L163.799,137.379z"/>
			<g>
				<path fill="#F9C470" d="M220.008,144.55l-19.471-34.276l-60.104,34.142L220.008,144.55z M197.877,119.929l9.951,17.519H167.16
					L197.877,119.929z"/>
				<polygon fill="#F6F2E7" points="140.433,144.416 200.537,110.275 201.85,112.587 198.606,114.43 199.691,116.342 
					198.906,116.787 197.821,114.876 194.996,116.481 196.081,118.391 195.297,118.839 194.211,116.927 191.385,118.532 
					192.471,120.443 191.686,120.888 190.6,118.979 187.776,120.582 188.861,122.494 188.076,122.939 186.991,121.028 
					184.166,122.634 185.251,124.545 184.466,124.989 183.381,123.079 180.556,124.684 181.641,126.594 180.857,127.04 
					179.771,125.131 176.946,126.734 178.032,128.644 177.247,129.091 176.162,127.18 173.336,128.785 174.421,130.696 
					173.637,131.141 172.552,129.231 169.725,130.835 170.811,132.747 170.026,133.192 168.941,131.281 166.116,132.885 
					167.201,134.798 166.416,135.243 165.331,133.333 162.507,134.936 163.592,136.847 162.807,137.295 161.72,135.384 
					158.896,136.987 159.982,138.898 159.197,139.344 158.111,137.432 155.286,139.038 156.372,140.95 155.587,141.394 
					154.503,139.484 151.676,141.088 152.761,143 151.976,143.445 150.891,141.534 145.803,144.425 				"/>
			</g>
		</g>
		<g>
			<polygon opacity="0.6" fill="#4C7F60" enable-background="new    " points="132.538,141.067 130.682,140.433 120.506,140.433 
				119.102,141.584 119.495,143.318 120.506,144.358 130.682,144.358 132.749,144.358 			"/>
			<g>
				<polygon fill="#FFFFFF" points="127.319,144.358 117.142,144.358 116.134,143.318 115.74,141.584 117.142,140.433 
					127.319,140.433 				"/>
				<polygon fill="#BCBEC0" points="129.385,144.358 127.319,144.358 127.319,140.433 129.175,141.067 				"/>
			</g>
		</g>
		<rect x="1" y="144.341" fill="#BA652F" width="215.074" height="7.275"/>
		<g>
			<path fill="#FFFFFF" d="M76.072,62.729c-0.267,5.016-1.584,9.918-2.147,14.906c-0.206,1.82-0.412,3.641-0.631,5.458
				c-0.025,0.206-0.051,0.41-0.076,0.616c-0.248-0.509-0.496-0.994-0.676-1.429c-1.203-2.907-1.483-6.174-2.129-9.232
				c-0.188-0.897-1.36-0.712-1.632,0.001c-1.301,3.415-2.063,7.021-3.338,10.44c-0.211-1.012-0.482-2.01-0.672-3.042
				c-0.395-2.15-0.726-4.313-1.028-6.477c-0.615-4.414-1.036-8.854-1.406-13.292c-0.088-1.081-1.783-1.088-1.693,0.001
				c0.361,4.334,0.789,8.662,1.362,12.975c0.275,2.063,0.59,4.119,0.941,6.17c0.348,2.019,1.061,4.005,1.119,6.06
				c0.006,0.231,0.091,0.41,0.214,0.543c0.018,0.778,1.145,1.288,1.553,0.445c1.589-3.279,2.449-6.809,3.524-10.27
				c0.318,1.821,0.659,3.646,1.259,5.377c0.29,0.831,0.664,1.637,1.01,2.445c0.229,0.536,0.984,2.016,0.938,2.349
				c-0.103,0.716,0.598,1.155,1.116,1.043c0.01-0.001,0.02-0.003,0.029-0.005c0.004-0.001,0.009-0.002,0.014-0.003
				c0.151-0.023,0.305-0.088,0.444-0.215c0.613-0.549,0.53-2.203,0.624-2.922c0.256-1.989,0.48-3.982,0.707-5.974
				c0.607-5.341,1.984-10.607,2.269-15.975C77.823,61.635,76.13,61.643,76.072,62.729z"/>
			<path fill="#FFFFFF" d="M85.073,81.738c1.802-0.34,3.659-1.383,4.138-3.273c0.47-1.851-1.395-3.622-2.979-4.169
				c-1.801-0.62-3.619-0.219-5.19,0.795c-3.202,2.068-4.278,6.463-1.98,9.587c2.213,3.009,6.477,3.327,9.606,1.714
				c0.97-0.501,0.111-1.961-0.858-1.461c-2.174,1.121-4.867,1.042-6.774-0.587c-0.826-0.706-1.29-1.593-1.454-2.532
				C81.35,82.196,83.347,82.065,85.073,81.738z M80.996,77.335c0.859-0.948,2.067-1.577,3.343-1.662
				c1.284-0.086,3.802,1.132,3.12,2.747c-0.573,1.356-2.427,1.642-3.688,1.778c-1.369,0.148-2.812,0.221-4.157-0.126
				C79.807,79.077,80.288,78.114,80.996,77.335z"/>
			<path fill="#FFFFFF" d="M93.949,87.122c-1.341-3.566-1.487-7.278-1.383-11.047c0.102-3.682-0.149-7.452,0.252-11.114
				c0.119-1.084-1.575-1.069-1.693,0.002c-0.417,3.829-0.16,7.782-0.266,11.634c-0.105,3.727,0.136,7.458,1.458,10.977
				C92.697,88.587,94.333,88.147,93.949,87.122z"/>
			<path fill="#FFFFFF" d="M104.743,85.66c-2.233,1.225-4.376,1.556-6.607,0.144c-1.883-1.19-2.834-3.657-2.414-5.792
				c0.705-3.583,5.873-5.775,8.461-2.804c0.718,0.826,1.908-0.379,1.195-1.198c-3.558-4.087-10.052-1.055-11.29,3.556
				c-0.724,2.698,0.606,5.465,2.583,7.249c2.609,2.353,6.09,1.865,8.926,0.307C106.556,86.595,105.7,85.134,104.743,85.66z"/>
			<path fill="#FFFFFF" d="M118.406,75.924c0.316-0.375,0.35-0.951-0.22-1.195c-0.592-0.253-1.192-0.415-1.791-0.497
				c-0.031-0.021-0.061-0.044-0.093-0.064c-0.316-0.212-0.623-0.17-0.854-0.002c-2.471-0.004-4.841,1.299-6.449,3.326
				c-2.284,2.875-2.383,7.25,0.748,9.58c3.54,2.635,8.334,1.384,10.604-2.243C122.295,81.723,120.74,78.316,118.406,75.924z
				 M119.081,83.614c-1.407,3.17-5.417,4.018-8.184,2.213c-4.88-3.182,0.053-10.21,4.846-9.994
				C118.163,77.566,120.441,80.552,119.081,83.614z"/>
			<path fill="#FFFFFF" d="M140.197,87.058c-0.573-0.474-0.163-2.252-0.093-2.896c0.095-0.875,0.151-1.641,0.028-2.515
				c-0.272-1.936-0.688-4.073-2.079-5.542c-1.406-1.484-3.563-0.845-4.855,0.388c-0.278,0.266-0.519,0.566-0.732,0.888
				c-0.17-0.34-0.379-0.663-0.647-0.954c-2.159-2.332-5.046-1.348-7.192,0.314c-0.004-0.477,0.038-0.957,0.158-1.441
				c0.262-1.061-1.373-1.508-1.633-0.45c-0.525,2.126,0.032,4.269,0.311,6.39c0.304,2.318-0.345,4.57,0.46,6.854
				c0.361,1.022,1.996,0.58,1.631-0.453c-0.682-1.933-0.377-3.976-0.354-5.982c0.011-0.973-0.183-1.924-0.35-2.875
				c1.604-1.545,4.64-3.37,6.084-0.629c0.25,0.474,0.387,1.005,0.46,1.567c-0.062,0.241-0.11,0.488-0.143,0.737
				c-0.103,0.763,0.293,1.532-0.104,2.271c-0.235,0.438-0.058,0.852,0.253,1.084c0.002,0.094,0.004,0.19,0.01,0.282
				c0.06,1.086,1.753,1.089,1.692-0.002c-0.071-1.284,0.081-2.816-0.033-4.267c0.207-0.563,0.57-1.125,0.834-1.536
				c0.54-0.839,1.408-1.532,2.443-1.286c0.92,0.217,1.331,1.575,1.578,2.339c0.475,1.468,0.693,2.977,0.521,4.505
				c-0.146,1.277-0.61,3.446,0.554,4.408C139.836,88.947,141.04,87.753,140.197,87.058z"/>
			<path fill="#FFFFFF" d="M153.841,84.083c-2.292,1.244-4.938,2.078-7.504,1.212c-1.965-0.664-3.169-2.564-3.167-4.511
				c3.304-0.012,6.605-0.148,9.908-0.188c0.224,0.734,1.445,0.685,1.631-0.136c0.517-0.319,0.511-1.181-0.097-1.488
				c-0.521-2.204-2.626-3.57-4.888-4.043c-2.848-0.599-5.863,0.286-7.448,2.821c-1.834,2.935-0.487,6.44,2.059,8.375
				c3.031,2.305,7.359,1.047,10.364-0.582C155.657,85.023,154.801,83.563,153.841,84.083z M152.825,78.908
				c-3.106,0.042-6.212,0.16-9.321,0.18c0.026-0.063,0.047-0.128,0.076-0.191C145.083,75.616,151.559,75.629,152.825,78.908z"/>
			<path fill="#FFFFFF" d="M162.424,65.238c-0.084-1.083-1.777-1.088-1.692,0.002c0.222,2.856-0.162,5.682-0.569,8.504
				c-0.181,1.262-0.355,2.524-0.494,3.792c-0.146,1.364-0.005,2.695-0.389,4.037c-0.301,1.051,1.334,1.495,1.634,0.447
				c0.299-1.042,0.374-2.107,0.398-3.188c0.033-1.562,0.263-3.097,0.485-4.64C162.224,71.221,162.658,68.243,162.424,65.238z"/>
			<path fill="#FFFFFF" d="M158.785,86.03c-0.461,0-0.846,0.386-0.845,0.848l0.001,0.94c0,0.462,0.387,0.846,0.847,0.846
				c0.462,0,0.848-0.386,0.847-0.848l-0.003-0.941C159.632,86.413,159.247,86.03,158.785,86.03z"/>
		</g>
	</g>
	<path opacity="0.4" fill="#70578E" enable-background="new    " d="M39.018,139.067l-0.466,0.137l4.197,11.386l0.545-0.231
		c0.047,0.403,0.107,0.848,0.181,1.194h26.46c0.297-1.482,1.56-7.215,1.702-7.201c0.144,0.014,4.365-0.052,4.365-0.052
		s1.608-9.718-0.726-15.833c0.368-0.254,2.341-1.784,3.252-5.773c0.447-1.952-0.326-2.164-0.558-3.553
		c-0.176-1.043,0.253-2.431-0.193-3.106c-0.089-0.136-0.249-0.255-0.445-0.367c-0.037-0.646-0.218-1.661-0.002-1.661
		c0.263,0,1.623-1.273,1.623-1.273s2.378-2.417,2.457-3.465c0.02-0.27-0.57-0.921-0.57-0.921s0.294-0.606,0.218-0.789
		c-0.087-0.216-0.613-0.965-0.613-0.965s0.026-0.846-0.087-1.097c-0.191-0.421-1.031-1.053-1.031-1.053s0.124-1.522-0.13-2.275
		c0-0.002-0.017-0.05-0.046-0.116c-0.013-0.028-0.026-0.052-0.042-0.076c-0.012-0.023-0.027-0.048-0.044-0.074c0,0,0,0,0-0.001
		s-0.001-0.001-0.001-0.001c-0.03-0.043-0.067-0.087-0.108-0.129l2.28-5.162l-0.643-0.257l-2.4,5.047
		c0.006-0.201-0.014-0.383-0.093-0.462c-0.118-0.119-0.51-0.21-0.658-0.131c-0.304,0.161-0.684,0.978-0.887,1.461
		c-0.521,0.303-1.033,0.684-1.418,1.083c0.195-2.648,0.321-5.109-0.076-6.681c-0.226-0.886-1.217-2.164-1.22-2.167
		c-0.246-0.376-0.582-0.713-0.977-1.019l-0.325-22.528c-0.247-9.604-1.301-17.925-13.595-17.671
		c-11.814,0.243-12.593,7.389-13.556,17.663c-0.002,0.018-0.923,12.343-1.522,20.35c-0.331,0.164-0.632,0.326-0.894,0.486
		c-1.048,0.638-3.161,2.285-3.472,3.471c-2.412,9.194-3.874,25.361-3.015,33.802C36.71,131.291,37.801,135.202,39.018,139.067z
		 M75.001,105.113L75.001,105.113L75.001,105.113C75.001,105.114,75.001,105.114,75.001,105.113z M44.426,125.711
		c-0.002-3.918,1.896-15.042,1.896-15.042l3.042,9.798l-1.416,2.759c-1.175,2.246-2.67,5.283-3.01,6.798
		c-0.014,0.061-0.027,0.125-0.041,0.185c-0.075-0.532-0.153-1.117-0.225-1.694C44.554,127.499,44.469,126.553,44.426,125.711
		C44.426,125.712,44.426,125.712,44.426,125.711z"/>
	<g>
		<path fill="#44270F" d="M39.611,177.27c0.044-0.67,0.938-0.713,2.994-0.535c2.056,0.179,2.905-3.038,2.413-3.842
			c-0.491-0.805-2.68-3.709-3.395-2.949c-0.714,0.76-1.608,2.057-1.652,3.083C39.923,174.054,39.611,177.27,39.611,177.27z"/>
		<path fill="#BC2B37" d="M51.893,220.809c0,0,2.145,1.324,3.35,2.35c1,0.85,3.217,2.922,3.79,3.354
			c1.679,1.269,6.009,1.227,7.717,0c0.562-0.404,1.307-2.074,0.67-2.349c-2.348-1.007-6.04-3.021-6.04-3.021l-10.828-6.374
			L51.893,220.809z"/>
		<path fill="#BC2B37" d="M45.513,215.284c0,0-1.999,9.613-1.671,11.229c0.464,2.286,2.703,5.965,5.033,5.884
			c2.115-0.074,4.348-3.795,4.699-5.884c0.271-1.625-2.356-11.229-2.356-11.229H45.513z"/>
		<path fill="#FF8A54" d="M60.307,177.864c0,0-5.458,22.616-4.629,30.867c0.257,2.561,1.775,7.361,3.355,9.73
			c2.012,3.021,4.165,3.413,3.691,4.362c-0.336,0.67-3.454-0.157-5.804-2.17c-1.401-1.2-6.367-5.547-6.367-5.547l-0.311-16.44
			l4.026-21.139L60.307,177.864z"/>
		<path opacity="0.4" fill="#CC8569" enable-background="new    " d="M58.294,187.068c1.053-5.228,2.013-9.204,2.013-9.204
			l-6.04-0.337l-3.844,29.053c0.982-10.634,4.778-20.615,4.778-20.615S57.271,186.78,58.294,187.068z"/>
		<path fill="#FFA969" d="M42.096,175.515c0,0-0.967,3.498-1.006,7.38c-0.07,6.942,4.423,18.229,4.764,25.164
			c0.191,3.878-1.617,11.603-1.006,15.435c0.224,1.412,2.261,2.891,3.69,2.864c1.494-0.026,3.494-1.718,3.69-3.199
			c0.513-3.857-1.709-11.542-1.677-15.434c0.066-8.054,4.63-29.861,4.63-29.861L42.096,175.515z"/>
		<path opacity="0.5" fill="#CC8569" enable-background="new    " d="M42.096,175.515c0,0-0.36,1.847-0.648,3.763
			c2.683,1.421,8.675,4.71,12.563,4.458c0.671-3.485,1.171-5.872,1.171-5.872L42.096,175.515z"/>
		<path fill="#683529" d="M64.51,68.528C64.248,58.295,63.124,49.431,50.025,49.7c-12.588,0.259-13.418,7.872-14.445,18.82
			c-0.002,0.026-2.153,28.823-2.153,28.823l31.467-2.083L64.51,68.528z"/>
		<path fill="#54281F" d="M64.538,70.499l-3.661-3.138L39.61,67.026l-2.279,4.155c-0.535,6.031,1.892,8.305,1.743,13.135
			c-0.204,6.665-0.357,11.639-0.357,11.639l3.144,0.83l23.036-1.525L64.538,70.499z"/>
		<g>
			<g>
				<path fill="#FFA969" d="M63.436,74.149c-0.599,2.155-1.824,2.94-2.919,2.42c-1.1-0.518-1.654-2.143-1.054-4.298
					c0.601-2.152,1.495-4.314,3.222-3.498C64.281,69.525,64.033,71.996,63.436,74.149z"/>
			</g>
			<g>
				<path fill="#FF8A54" d="M62.162,73.822c-0.311,1.125-0.952,1.535-1.527,1.265c-0.573-0.271,0.23-4.503,1.133-4.076
					C62.605,71.405,62.476,72.695,62.162,73.822z"/>
			</g>
		</g>
		<g>
			<g>
				<path fill="#FFA969" d="M37.771,74.149c0.599,2.155,1.824,2.94,2.919,2.42c1.101-0.518,1.654-2.143,1.054-4.298
					c-0.601-2.152-1.495-4.314-3.222-3.498C36.925,69.525,37.172,71.996,37.771,74.149z"/>
			</g>
			<g>
				<path fill="#FF8A54" d="M39.044,73.822c0.31,1.125,0.952,1.535,1.526,1.265c0.573-0.271-0.23-4.503-1.132-4.076
					C38.602,71.405,38.73,72.695,39.044,73.822z"/>
			</g>
		</g>
		<path fill="#FF8A54" d="M68.635,102.27c0,0,0.634-1.693,1.099-1.938c0.158-0.085,0.574,0.014,0.701,0.141
			c0.24,0.239-0.023,1.331-0.023,1.331L68.635,102.27z"/>
		<path fill="#BC2B37" d="M65.897,93.616c0,0,1.059,1.363,1.298,2.309c1.107,4.364-1.593,15.175,0.561,19.128
			c0.333,0.61,1.953,0.925,2.337,1.505c0.476,0.72,0.019,2.199,0.205,3.312c0.249,1.479,1.071,1.705,0.596,3.782
			c-1.074,4.697-3.527,6.196-3.527,6.196l-5.894-8.445v-20.365L65.897,93.616z"/>
		<path fill="#603814" d="M39.899,121.282c0,0-4.179,7.438-4.792,10.182c-1.446,6.471-2.801,16.391,0,26.514
			c0.662,2.392,2.83,7.748,3.237,10.196c0.281,1.692,0.034,5.074-0.233,7.679c-0.063,0.62,1.054,1.732,2.208,1.882
			c0.08,0.011,1.09-4.796,1.09-4.796s0.028,5.279,0.48,5.405c3.619,1.006,8.601,1.472,12.706,0.893
			c8.886-1.247,10.96-4.42,10.96-4.42s-1.325-8.475-1.123-11.291c0.293-4.047,1.257-9.625,2.337-13.537
			c2.847-10.319,1.435-17.86-0.036-22.807c-1.399-4.708-2.872-7.067-2.872-7.067L39.899,121.282z"/>
		<path opacity="0.4" fill="#70578E" enable-background="new    " d="M65.556,174.816c0,0-1.325-8.475-1.123-11.291
			c0.293-4.047,1.257-9.625,2.337-13.537c2.847-10.319,1.435-17.86-0.036-22.807c-0.371-1.249-0.747-2.328-1.099-3.245
			c-9.483-0.225-26.762-0.748-26.762-0.748l-0.023,0.019c-0.618,1.156-1.413,2.685-2.118,4.167c0.399-0.197,1.256-0.443,2.677-0.03
			c2.079,0.603,7.78,2.526,17.827,1.206c9.182-1.206,9.412,3.28,9.651,5.495c0.535,4.959,0.051,10.047-2.525,20.083
			c-2.591,10.098-0.625,19.482,0.496,21.415C65.365,175.104,65.556,174.816,65.556,174.816z"/>
		<path opacity="0.4" fill="#70578E" enable-background="new    " d="M39.409,150.732c0,0-0.468-0.47-1.475-8.713
			c-1.005-8.243,2.079-13.672,2.839-15.101l-1.901-3.731H38.86c-1.28,2.394-3.336,6.415-3.752,8.276
			c-1.023,4.575-1.998,10.877-1.492,17.754l2.912,7.076c0,0,9.249,0,8.177-1.608C43.632,153.078,39.409,150.732,39.409,150.732z"/>
		<path fill="#E54046" d="M37.515,125.774c0,0,7.418,2.851,15.886,2.339c10.444-0.632,12.856-2.458,12.856-2.458l-1.083-2.868
			l-1.312-2.674l-24.04,1.168L37.515,125.774z"/>
		<path fill="#FF8A54" d="M44.964,155.201l3.428,0.386c0,0,0,1.119-0.77,1.503c-0.453,0.226-2.029,0-2.029,0L44.964,155.201z"/>
		<path fill="#E54046" d="M29.31,94.417c0.331-1.266,2.582-3.019,3.699-3.699c2.465-1.501,8.119-3.312,10.999-3.504
			c3.771-0.252,11.37,1.254,14.891,2.628c2.315,0.904,6.254,1.956,7.25,4.232c0.555,1.268-0.277,5.195-0.412,6.572
			c-0.121,1.211,0.781,3.692,0.462,4.867c-0.431,1.587-2.876,4.131-3.212,5.743c-0.455,2.177,0.875,8.856,0.875,8.856
			s-1.167,2.239-12.07,2.433c-3.008,0.055-11.97-1.265-11.97-1.265l-3.31-10.998c0,0-1.933,11.876-1.983,15.188
			c-0.104,6.905,4.221,24.913,4.221,24.913l-5.841,2.727c0,0-6.214-16.791-6.813-22.68C25.181,121.438,26.739,104.214,29.31,94.417z
			"/>
		<g>
			<path fill="#FFFFFF" d="M55.032,105.813c-0.406,0-0.755-0.307-0.798-0.719c-0.219-2.062-0.773-4.983-2.157-5.364
				c-0.428-0.118,1.058-1.254,1.472-1.411c0.417-0.157,2.438,0.736,2.058,0.964c-0.559,0.335,0.006,3.555,0.227,5.64
				c0.046,0.442-0.275,0.838-0.715,0.884C55.089,105.812,55.06,105.813,55.032,105.813z"/>
		</g>
		<path fill="#BC2B37" d="M34.785,97.654c-0.527-1.486,2.656,5.309,4.269,7.163c0.917,1.055,3.138,2.922,4.462,3.366
			c3.33,1.114,10.146,0.655,13.656,0.655c5.402,0,8.619-2.517,8.619-2.517s-0.725,1.985-1.966,4.467
			c-0.537,1.073-2.77,1.609-8.307,2.225c-2.985,0.331-6.829,0.065-11.138-0.157c-2.247-0.117-0.4,8.993-0.4,8.993l-4.16-0.566
			l-3.241-10.439c0,0-2.022,11.852-2.02,16.028c0,1.767,0.833,7.016,0.833,7.016s-1.781-4.635-1.996-6.265
			c-0.733-5.59,1.669-16.825,1.744-22.462C35.171,102.94,35.104,98.552,34.785,97.654z"/>
		<path fill="#FFA969" d="M44.919,81.498l-0.421,5.689l-0.981,2.864c0,0,7.01,6.239,10.584,10.095c0,0,5.435-5.516,5.468-7.921
			c0.022-1.648-2.703-4.156-3.785-5.398c-0.22-0.251-0.831-0.613-0.981-0.911c-0.466-0.912-0.391-5.525-0.391-5.525L44.919,81.498z"
			/>
		<path opacity="0.6" fill="#CC8569" enable-background="new    " d="M57.895,89.138c-0.766-0.901-1.613-1.741-2.11-2.313
			c-0.22-0.252-0.83-0.613-0.981-0.911c-0.358-0.702-0.396-3.588-0.396-4.886c-0.847-0.182-1.634-0.311-2.249-0.376l-5.709,0.667
			c-0.941,0.368-1.611,0.915-1.611,1.723c0,2.086,6.391,6.702,8.504,6.702C54.552,89.746,56.319,90.055,57.895,89.138z"/>
		<path fill="#FFFFFF" d="M44.69,84.587c0,0-2.576,2.25-3.467,3.532c-1.682,2.423-1.682,6.348-1.682,6.348l3.977-1.542
			c0,0-0.464,2.588,0,3.257c1.61,2.322,10.584,3.963,10.584,3.963s-3.433-3.721-4.796-5.021c-1.284-1.223-4.225-3.356-4.666-5.073
			c-0.189-0.733-0.141-2.863-0.141-2.863L44.69,84.587z"/>
		<path fill="#E8E6ED" d="M54.445,84.249l5.545,2.437l-1.192,1.472c0,0,3.111,0.967,3.436,1.893
			c1.735,4.954-8.131,10.095-8.131,10.095s4.334-6.161,4.208-8.652c-0.091-1.829-2.67-3.949-3.506-5.578
			C54.582,85.485,54.445,84.249,54.445,84.249z"/>
		<path opacity="0.6" fill="#CC8569" enable-background="new    " d="M58.798,88.157l1.192-1.472l-5.545-2.437
			c0,0,0.137,1.235,0.358,1.667c0.548,1.069,1.844,2.349,2.699,3.621c1.179,0.188,3.222,0.837,4.895,1.954
			c0.009,0.005,0.021,0.011,0.03,0.017c0.033-0.483-0.025-0.97-0.195-1.455C61.908,89.125,58.798,88.157,58.798,88.157z"/>
		<path fill="#FFA969" d="M68.682,117.901c0.402-0.073,0.879-0.938,0.935-1.344c0.072-0.536-0.281-2.161,0-2.161
			c0.279,0,1.729-1.355,1.729-1.355s2.534-2.575,2.617-3.691c0.021-0.288-0.608-0.981-0.608-0.981s0.313-0.646,0.234-0.841
			c-0.094-0.229-0.654-1.029-0.654-1.029s0.028-0.901-0.094-1.167c-0.204-0.447-1.098-1.122-1.098-1.122s0.171-2.115-0.281-2.711
			c-0.157-0.207-0.746-0.318-1.004-0.28c-1.207,0.179-3.614,1.698-3.839,2.896c-0.062,0.332,0.517,0.809,0.517,0.809
			s-2.19,2.308-2.473,3.299c-0.218,0.768,0.281,3.183,0.281,3.183s-0.082,3.014,0.281,3.925
			C65.643,116.385,67.565,118.106,68.682,117.901z"/>
		<path fill="#FFA969" d="M61.488,66.471c0.037,0.749-0.032,2.796-0.015,3.518c0.105,4.267,0.425,7.073-1.601,10.432
			c-1.909,3.168-6.624,5.992-8.965,6.108c-2.057,0.102-6.721-2.635-9.028-6.108c-1.996-3.005-1.645-5.257-1.97-9.238
			c-0.067-0.808-0.352-3.41-0.25-4.209c0.271-2.139,0.864-4.404,1.268-6.078c1.327-5.516,3.851-8.014,8.862-8.262
			c4.368-0.217,7.36,1.86,9.372,6.063C60.155,60.776,61.334,63.372,61.488,66.471z"/>
		<g>
			<polygon fill="#B06940" points="73.09,95.587 73.776,95.861 53.388,142.018 51.457,141.076 			"/>
			<polygon fill="#914823" points="43.634,157.662 51.457,141.076 53.388,142.018 45.878,158.756 			"/>
		</g>
		<path fill="#FFA969" d="M33.246,152.018c0,0,0.166,2.164,0.422,2.833c0.385,1.009,2.377,3.604,2.377,3.604
			s2.351,2.939,3.357,3.671c0.268,0.195,0.989,0.449,1.294,0.314c0.182-0.08,0.385-0.699,0.385-0.699s0.589,0.329,0.804,0.314
			c0.238-0.016,0.839-0.454,0.839-0.454s1.097,0.265,1.434,0.14c0.225-0.085,0.369-0.5,0.384-0.7
			c0.026-0.351-0.139-1.398-0.139-1.398l-1.329-2.414l0.384-0.385c0,0,1.569,1.465,1.852,2.238c0.164,0.443-0.074,1.858,0.281,2.169
			c0.249,0.216,0.797,0.061,1.027-0.176c0.441-0.454,0.652-1.894,0.548-2.518c-0.14-0.837-0.925-2.397-1.435-3.077
			c-0.684-0.913-3.708-3.008-3.708-3.008l-3.427-1.435l-0.559-1.049L33.246,152.018z"/>
		<g>
			<path fill="#FF8A54" d="M43.037,160.37c-0.622-0.525-1.636-2.633-1.636-2.633h-0.479c0,0,1.535,2.525,1.306,3.351
				c-0.053,0.192-0.402,0.333-0.598,0.299c-0.921-0.155-2.454-3.081-2.454-3.081l-0.417,0.418c0,0,1.184,1.701,1.454,2.334
				c0.062,0.146,0.104,0.49,0.004,0.628c-0.406,0.565-0.954,0.333-0.954,0.333v0.001c0.046,0.038,0.092,0.074,0.135,0.106
				c0.27,0.195,0.99,0.449,1.294,0.314c0.183-0.08,0.386-0.699,0.386-0.699s0.589,0.329,0.804,0.314
				c0.239-0.016,0.839-0.454,0.839-0.454s1.097,0.265,1.434,0.14c0.226-0.085,0.369-0.5,0.385-0.7
				c0.013-0.173-0.02-0.513-0.057-0.814c-0.271,0.226-0.591,0.456-0.787,0.473C43.511,160.713,43.178,160.489,43.037,160.37z"/>
		</g>
		<g>
			<path fill="#FF8A54" d="M46.62,161.076c0.388-0.401,0.599-1.572,0.57-2.271c-0.018,0.149-0.153,0.945-0.98,0.834
				c-0.372-0.05-0.866-0.425-0.866-0.425l0,0c0.095,0.542-0.077,1.752,0.248,2.038C45.841,161.468,46.39,161.313,46.62,161.076z"/>
		</g>
		<g>
			<path fill="#FFFFFF" stroke="#E83749" stroke-linecap="round" stroke-linejoin="round" stroke-miterlimit="10" d="M56.242,77.592
				c0,2.095-2.804,3.611-5.523,3.536c-2.52-0.07-4.966-1.582-5.018-3.536H56.242z"/>
		</g>
		<g>
			<path fill="#FF8A54" d="M51.127,83.506c0.922-0.09,1.359-0.464,1.252-0.958c-0.045-0.211-0.951,0.12-1.674,0.127
				c-1.055,0.012-1.783-0.415-1.686,0.025C49.175,83.419,50.065,83.607,51.127,83.506z"/>
		</g>
		<g>
			<path fill="#FF8A54" d="M41.237,68.156c0.414-0.858,1.722-1.181,2.582-1.197c1.283-0.02,3.549-0.454,4.446,0.724
				c0.786,1.031,0.365,2.367,0.016,2.839c-1.144,1.547-4.438,0.683-5.532,0.846C42.376,71.426,40.113,70.475,41.237,68.156z"/>
		</g>
		<g>
			<path fill="#FFFFFF" d="M47.084,70.183c-1.713-1.458-4.798-0.083-5.163,0.834c-0.154,0.395,0.915,2.321,3.543,1.601
				c1.045-0.287,0.927-0.676,2.028-1.048C48.04,71.385,47.801,70.792,47.084,70.183z"/>
		</g>
		<g>
			<path fill="#FFA969" d="M46.868,70.293c0.547,0.262,0.75,0.573,0.832,0.889c0.438-0.449,0.091-1.98-0.678-2.525
				c-1.714-1.214-4.357-0.013-4.84,0.683c-0.266,0.384-0.509,1.351-0.295,1.676C42.748,70.302,44.628,69.223,46.868,70.293z"/>
		</g>
		<g>
			<path fill="#4B6360" d="M46.062,71.182c0,0.659-0.556,1.192-1.244,1.192c-0.683,0-1.242-0.533-1.242-1.192
				s0.559-1.194,1.242-1.194C45.506,69.989,46.062,70.523,46.062,71.182z"/>
		</g>
		<g>
			<ellipse fill="#211F1F" cx="44.82" cy="71.182" rx="0.541" ry="0.518"/>
		</g>
		<g>
			<path fill="#993426" d="M47.7,71.432c0.06,0,0.118-0.021,0.167-0.064c0.104-0.093,0.113-0.251,0.019-0.354
				c-2.629-2.958-6.197-0.299-6.232-0.272c-0.109,0.083-0.13,0.242-0.048,0.352c0.083,0.11,0.24,0.13,0.352,0.048
				c0.13-0.099,3.237-2.403,5.554,0.205C47.564,71.403,47.631,71.432,47.7,71.432z"/>
		</g>
		<path fill="#993426" d="M44.972,67.111c1.951,0,3.155,0.751,3.123,0.596c-0.186-0.89-1.254-1.557-3.123-1.557
			c-1.289,0-3.58,0.807-3.58,2.085C41.392,68.394,42.667,67.111,44.972,67.111z"/>
		<path fill="#FF8A54" d="M49.122,73.962c0,0.385,0.162,1.189,0.411,1.334C50.346,75.77,52,75.572,52,74.653
			c0-0.699-0.006-2.079,0-3.159c0.005-0.896,0.285-2.526,0.898-3.18c1.265-1.343,3.43-1.343,3.43-1.343s-0.663,0.912-0.961,1.133
			c-0.418,0.31-1.541,0.458-1.907,0.825c-1.65,1.644-0.339,6.173-0.636,6.458c-0.763,0.733-2.56,1.113-3.91,0.297
			C47.888,75.065,49.122,73.506,49.122,73.962z"/>
		<circle fill="#FFFFFF" cx="45.299" cy="70.924" r="0.22"/>
		<g>
			<path fill="#FF8A54" d="M60.106,68.156c-0.415-0.858-1.721-1.181-2.581-1.197c-1.283-0.02-3.548-0.454-4.446,0.724
				c-0.785,1.031-0.365,2.367-0.017,2.839c1.144,1.547,4.44,0.683,5.533,0.846C58.969,71.426,61.229,70.475,60.106,68.156z"/>
		</g>
		<g>
			<path fill="#FFFFFF" d="M54.259,70.183c1.713-1.458,4.798-0.083,5.163,0.834c0.153,0.395-0.915,2.321-3.543,1.601
				c-1.045-0.287-0.926-0.676-2.027-1.048C53.302,71.385,53.542,70.792,54.259,70.183z"/>
		</g>
		<g>
			<path fill="#FFA969" d="M54.475,70.293c-0.547,0.262-0.75,0.573-0.833,0.889c-0.436-0.449-0.09-1.98,0.679-2.525
				c1.712-1.214,4.356-0.013,4.839,0.683c0.266,0.384,0.51,1.351,0.296,1.676C58.595,70.302,56.715,69.223,54.475,70.293z"/>
		</g>
		<g>
			<ellipse fill="#4B6360" cx="56.524" cy="71.182" rx="1.243" ry="1.192"/>
		</g>
		<g>
			<ellipse fill="#211F1F" cx="56.524" cy="71.182" rx="0.54" ry="0.518"/>
		</g>
		<g>
			<path fill="#993426" d="M53.642,71.432c-0.058,0-0.118-0.021-0.165-0.064c-0.104-0.093-0.115-0.251-0.021-0.354
				c2.63-2.958,6.198-0.299,6.234-0.272c0.107,0.083,0.13,0.242,0.046,0.352c-0.083,0.11-0.24,0.13-0.351,0.048
				c-0.13-0.099-3.237-2.403-5.554,0.205C53.781,71.403,53.712,71.432,53.642,71.432z"/>
		</g>
		<path fill="#993426" d="M56.372,67.111c-1.951,0-3.156,0.751-3.122,0.596c0.184-0.89,1.253-1.557,3.122-1.557
			c1.287,0,3.581,0.807,3.581,2.085C59.952,68.394,58.676,67.111,56.372,67.111z"/>
		<circle fill="#FFFFFF" cx="57.064" cy="70.924" r="0.221"/>
		<path fill="#683529" d="M63.244,67.688c3.182-2.098-5.124-16.743-13.236-16.743c-9.245,0-16.382,21.33-10.349,16.028
			c5.124-4.502,12.729-3.097,15.409-5.958C55.069,61.015,61.343,68.941,63.244,67.688z"/>
		<path fill="#FFA969" d="M68.452,109.284l-0.726,0.77l-0.683-0.385l0.158-0.497l-0.048-1.319l-0.553-0.468l0.773-2.283l1.911-3.478
			c0,0,1.215-0.604,1.681-0.488c0.485,0.12,0.638,0.649,0.638,0.649l-0.115,2.833l1.188,3.786L68.452,109.284z"/>
		<path fill="#FF8A54" d="M70.692,107.621l1.518,0.234l-1.508-0.76l-2.16,1.53c0,0-0.431,1.063-0.821,1.167
			c-0.218,0.058-0.629-0.229-0.629-0.229l0.332-1.182l1.032-1.279l2.028-1.56l1.843,0.885l-1.191-1.448l-0.793-0.21l-2.102,1.566
			c0,0-0.598,1.16-1.085,1.299c-0.235,0.067-0.553-0.252-0.553-0.252l0.794-1.705l2.337-2.194l1.401,0.468
			c0,0-0.19-0.933-0.443-1.075c-0.31-0.174-1.379,0.327-1.687,0.504c-0.609,0.354-1.868,1.542-1.868,1.542l-0.799,2.613l0.795,0.662
			l-0.288,1.499c0.799,0.755,1.506,0.38,1.506,0.38s-0.421,0.751,0.811,0.811c0.453,0.024,1.876-0.345,1.876-0.345
			s1.087-0.633,1.055-0.979c-0.032-0.338-1.308-0.378-1.308-0.378l-0.841,0.378c0,0-0.421,0.836-0.742,0.922
			c-0.184,0.05-0.753-0.155-0.753-0.155l0.351-1.308L70.692,107.621z"/>
		<polygon fill="#FFFFFF" points="39.016,150.723 32.774,153.377 28.303,141.247 36.512,138.827 		"/>
		<path fill="#FFA969" d="M53.014,64.412c0,0-0.76-1.742,0.223-2.189c0.983-0.447,1.967-1.519,1.832-4.513
			c0,0,0.179,3.842,0.939,4.691c0.76,0.849-1.608,0.982-1.608,0.982L53.014,64.412z"/>
	</g>
	<path fill="#BC2B37" d="M39.779,121.023l-2.291,4.768c0,0,1.248,0.479,3.304,1.009c0.458-1.518,1.734-3.655,3.187-4.945
		L39.779,121.023z"/>
	<g opacity="0.4">
		<path fill="#70578E" d="M195.094,142.019c0,0.626-0.796,1.14-1.77,1.14h-11.741c-0.974,0-1.769-0.514-1.769-1.14
			c0-0.627,0.795-1.139,1.769-1.139h11.741C194.297,140.881,195.094,141.392,195.094,142.019z"/>
	</g>
	<g>
		<path fill="#FFDC97" d="M194.423,141.148c0,0.626-0.795,1.14-1.769,1.14h-11.742c-0.973,0-1.769-0.514-1.769-1.14
			s0.796-1.14,1.769-1.14h11.741C193.628,140.009,194.423,140.522,194.423,141.148z"/>
	</g>
</g>
</svg>
