<?xml version="1.0" encoding="utf-8"?>
<!-- Generator: Adobe Illustrator 16.0.0, SVG Export Plug-In . SVG Version: 6.00 Build 0)  -->
<!DOCTYPE svg PUBLIC "-//W3C//DTD SVG 1.1//EN" "http://www.w3.org/Graphics/SVG/1.1/DTD/svg11.dtd">
<svg version="1.1" id="Layer_1" xmlns="http://www.w3.org/2000/svg" xmlns:xlink="http://www.w3.org/1999/xlink" x="0px" y="0px"
	 width="285.654px" height="231.9px" viewBox="0 0 285.654 231.9" enable-background="new 0 0 285.654 231.9" xml:space="preserve">
<g>
	<g>
		<path opacity="0.4" fill="#70578E" enable-background="new    " d="M111.418,161.67c0.095-1.31,0.26-2.778,0.477-4.3h143.418
			l-3.731-14.271h-5.579V28.839H43.021v114.26h-6.046l3.731,14.271h41.771c0.884,2.677,2.506,6.863,2.852,8.947
			c0.281,1.693,0.033,5.074-0.232,7.681c-0.081,0.79,1.315,1.657,3.506,2.351c-0.277,1.678-0.563,3.701-0.527,4.69
			c0.247,6.938,4.422,18.229,4.765,25.167c0.085,1.714-0.223,10.084-0.539,12.64l-11.066,0.804v10.453l1.965,0.357l4.707-4.555
			l9.178-0.422c3.457-0.074,8.018-1.426,7.205-4.674c-4.289-17.156,2.641-43.289,2.984-44.725c4.14-1.406,5.269-3.125,5.269-3.125
			S111.215,164.483,111.418,161.67z"/>
		<g>
			<path fill="#EF9A6A" d="M242.536,141.073c0,0.973-0.796,1.77-1.771,1.77H41.324c-0.973,0-1.77-0.797-1.77-1.77V27.087
				c0-0.973,0.797-1.769,1.77-1.769h199.442c0.975,0,1.771,0.796,1.771,1.769L242.536,141.073L242.536,141.073z"/>
		</g>
		
			<radialGradient id="SVGID_1_" cx="2965.0686" cy="-2095.7302" r="139.89" gradientTransform="matrix(1.7398 0 0 1.7398 -5115.6514 3676.6921)" gradientUnits="userSpaceOnUse">
			<stop  offset="0" style="stop-color:#5A8447"/>
			<stop  offset="1" style="stop-color:#385A3F"/>
		</radialGradient>
		<rect x="45.565" y="31.327" fill="url(#SVGID_1_)" width="190.961" height="105.505"/>
		<path opacity="0.5" fill="#4C7F60" enable-background="new    " d="M234.42,31.327H45.565v103.228v2.277h2.105h188.854V33.605
			v-2.277L234.42,31.327L234.42,31.327z M234.42,134.554H47.672V33.605h186.749L234.42,134.554L234.42,134.554z"/>
		<g>
			<path opacity="0.4" fill="#70578E" enable-background="new    " d="M249.154,143.052l-18.156-31.963l2.974,1.173l-0.935-3.487
				l-65.526,34.143L249.154,143.052z M196.308,135.881l30.716-17.448l9.951,17.519L196.308,135.881z"/>
			<g>
				<path fill="#F9C470" d="M252.517,143.052l-19.471-34.275l-60.104,34.142L252.517,143.052z M230.386,118.43l9.951,17.52h-40.668
					L230.386,118.43z"/>
				<polygon fill="#F6F2E7" points="172.942,142.918 233.046,108.776 234.359,111.089 231.115,112.932 232.199,114.844 
					231.414,115.289 230.329,113.378 227.505,114.983 228.59,116.893 227.806,117.341 226.72,115.428 223.894,117.034 
					224.98,118.944 224.195,119.389 223.109,117.481 220.284,119.084 221.369,120.996 220.585,121.44 219.5,119.53 216.675,121.135 
					217.76,123.047 216.975,123.491 215.89,121.581 213.065,123.186 214.15,125.095 213.365,125.542 212.28,123.633 
					209.454,125.235 210.541,127.145 209.756,127.593 208.671,125.682 205.845,127.287 206.93,129.198 206.146,129.643 
					205.061,127.733 202.234,129.337 203.32,131.249 202.534,131.694 201.449,129.783 198.625,131.386 199.71,133.3 
					198.925,133.745 197.84,131.835 195.016,133.438 196.101,135.348 195.316,135.797 194.229,133.885 191.405,135.489 
					192.49,137.399 191.705,137.845 190.619,135.934 187.795,137.54 188.881,139.452 188.096,139.895 187.012,137.985 
					184.185,139.59 185.27,141.502 184.485,141.946 183.4,140.036 178.312,142.927 				"/>
			</g>
		</g>
		<g>
			<polygon opacity="0.6" fill="#4C7F60" enable-background="new    " points="165.047,139.569 163.191,138.934 153.015,138.934 
				151.611,140.086 152.004,141.819 153.015,142.86 163.191,142.86 165.258,142.86 			"/>
			<g>
				<polygon fill="#FFFFFF" points="159.827,142.86 149.651,142.86 148.643,141.819 148.248,140.086 149.651,138.934 
					159.827,138.934 				"/>
				<polygon fill="#BCBEC0" points="161.894,142.86 159.827,142.86 159.827,138.934 161.684,139.569 				"/>
			</g>
		</g>
		<rect x="33.509" y="142.843" fill="#BA652F" width="215.074" height="7.275"/>
		<g>
			<path fill="#FFFFFF" d="M108.58,61.231c-0.267,5.016-1.584,9.918-2.146,14.906c-0.206,1.82-0.412,3.641-0.631,5.458
				c-0.025,0.206-0.051,0.41-0.076,0.616c-0.248-0.509-0.496-0.994-0.676-1.429c-1.203-2.907-1.483-6.174-2.129-9.232
				c-0.188-0.897-1.36-0.712-1.633,0.001c-1.301,3.415-2.063,7.021-3.338,10.44c-0.211-1.012-0.481-2.01-0.672-3.042
				c-0.395-2.15-0.726-4.313-1.027-6.477c-0.615-4.414-1.036-8.854-1.406-13.292c-0.088-1.081-1.783-1.088-1.693,0.001
				c0.361,4.334,0.789,8.662,1.362,12.975c0.274,2.063,0.59,4.119,0.94,6.17c0.349,2.019,1.062,4.005,1.119,6.06
				c0.006,0.231,0.092,0.41,0.214,0.543c0.019,0.778,1.146,1.288,1.554,0.445c1.589-3.279,2.449-6.809,3.523-10.27
				c0.318,1.821,0.659,3.646,1.26,5.377c0.29,0.831,0.663,1.637,1.01,2.445c0.229,0.536,0.983,2.016,0.938,2.349
				c-0.103,0.716,0.599,1.155,1.116,1.043c0.01-0.001,0.021-0.003,0.029-0.005c0.004-0.001,0.009-0.002,0.014-0.003
				c0.151-0.023,0.305-0.088,0.444-0.215c0.612-0.549,0.529-2.203,0.624-2.922c0.256-1.989,0.479-3.982,0.707-5.974
				c0.606-5.341,1.983-10.607,2.269-15.975C110.331,60.136,108.639,60.145,108.58,61.231z"/>
			<path fill="#FFFFFF" d="M117.581,80.24c1.803-0.34,3.659-1.383,4.139-3.273c0.47-1.851-1.396-3.622-2.979-4.169
				c-1.801-0.62-3.619-0.219-5.189,0.795c-3.202,2.068-4.278,6.463-1.98,9.587c2.213,3.009,6.478,3.327,9.606,1.714
				c0.97-0.501,0.11-1.961-0.858-1.461c-2.174,1.121-4.867,1.042-6.773-0.587c-0.826-0.706-1.29-1.593-1.454-2.532
				C113.859,80.698,115.856,80.567,117.581,80.24z M113.505,75.837c0.858-0.948,2.066-1.577,3.343-1.662
				c1.284-0.086,3.802,1.132,3.12,2.747c-0.573,1.356-2.427,1.642-3.688,1.778c-1.369,0.148-2.812,0.221-4.157-0.126
				C112.316,77.579,112.797,76.616,113.505,75.837z"/>
			<path fill="#FFFFFF" d="M126.458,85.624c-1.342-3.566-1.487-7.278-1.384-11.047c0.103-3.682-0.148-7.452,0.252-11.114
				c0.119-1.084-1.574-1.069-1.692,0.002c-0.417,3.829-0.16,7.782-0.267,11.634c-0.104,3.727,0.137,7.458,1.458,10.977
				C125.205,87.089,126.842,86.649,126.458,85.624z"/>
			<path fill="#FFFFFF" d="M137.252,84.162c-2.233,1.225-4.376,1.556-6.607,0.144c-1.883-1.19-2.834-3.657-2.414-5.792
				c0.705-3.583,5.873-5.775,8.461-2.804c0.718,0.826,1.908-0.379,1.195-1.198c-3.559-4.087-10.052-1.055-11.29,3.556
				c-0.725,2.698,0.605,5.465,2.583,7.249c2.608,2.353,6.09,1.865,8.926,0.307C139.065,85.097,138.209,83.635,137.252,84.162z"/>
			<path fill="#FFFFFF" d="M150.914,74.426c0.316-0.375,0.351-0.951-0.22-1.195c-0.592-0.253-1.191-0.415-1.791-0.497
				c-0.031-0.021-0.061-0.044-0.093-0.064c-0.316-0.212-0.623-0.17-0.854-0.002c-2.471-0.004-4.841,1.299-6.448,3.326
				c-2.284,2.875-2.383,7.25,0.748,9.58c3.54,2.635,8.334,1.384,10.604-2.243C154.804,80.225,153.248,76.818,150.914,74.426z
				 M151.59,82.116c-1.407,3.17-5.417,4.018-8.185,2.213c-4.88-3.182,0.054-10.21,4.847-9.994
				C150.672,76.068,152.949,79.053,151.59,82.116z"/>
			<path fill="#FFFFFF" d="M172.705,85.56c-0.572-0.474-0.162-2.252-0.093-2.896c0.096-0.875,0.151-1.641,0.028-2.515
				c-0.272-1.936-0.688-4.073-2.079-5.542c-1.406-1.484-3.563-0.845-4.854,0.388c-0.278,0.266-0.52,0.566-0.732,0.888
				c-0.17-0.34-0.379-0.663-0.647-0.954c-2.158-2.332-5.046-1.348-7.191,0.314c-0.004-0.477,0.038-0.957,0.158-1.441
				c0.262-1.061-1.373-1.508-1.634-0.45c-0.524,2.126,0.032,4.269,0.312,6.39c0.304,2.318-0.345,4.57,0.46,6.854
				c0.361,1.022,1.996,0.58,1.631-0.453c-0.682-1.933-0.377-3.976-0.354-5.982c0.011-0.973-0.184-1.924-0.351-2.875
				c1.604-1.545,4.641-3.37,6.084-0.629c0.25,0.474,0.387,1.005,0.46,1.567c-0.062,0.241-0.109,0.488-0.143,0.737
				c-0.104,0.763,0.293,1.532-0.104,2.271c-0.234,0.438-0.058,0.852,0.253,1.084c0.002,0.094,0.004,0.19,0.011,0.282
				c0.06,1.086,1.753,1.089,1.691-0.002c-0.071-1.284,0.081-2.816-0.033-4.267c0.207-0.563,0.57-1.125,0.834-1.536
				c0.54-0.839,1.408-1.532,2.443-1.286c0.92,0.217,1.331,1.575,1.578,2.339c0.475,1.468,0.693,2.977,0.521,4.505
				c-0.146,1.277-0.609,3.446,0.555,4.408C172.345,87.448,173.549,86.255,172.705,85.56z"/>
			<path fill="#FFFFFF" d="M186.35,82.585c-2.292,1.244-4.938,2.078-7.504,1.212c-1.965-0.664-3.169-2.564-3.167-4.511
				c3.304-0.012,6.604-0.148,9.908-0.188c0.224,0.734,1.444,0.685,1.631-0.136c0.517-0.319,0.511-1.181-0.098-1.488
				c-0.521-2.204-2.626-3.57-4.888-4.043c-2.848-0.599-5.863,0.286-7.448,2.821c-1.834,2.935-0.486,6.44,2.06,8.375
				c3.031,2.305,7.358,1.047,10.364-0.582C188.166,83.525,187.31,82.065,186.35,82.585z M185.334,77.41
				c-3.106,0.042-6.213,0.16-9.321,0.18c0.025-0.063,0.047-0.128,0.076-0.191C177.592,74.118,184.068,74.131,185.334,77.41z"/>
			<path fill="#FFFFFF" d="M194.933,63.74c-0.084-1.083-1.777-1.088-1.692,0.002c0.223,2.856-0.162,5.682-0.568,8.504
				c-0.182,1.262-0.355,2.524-0.494,3.792c-0.146,1.364-0.005,2.695-0.39,4.037c-0.301,1.051,1.334,1.495,1.635,0.447
				c0.299-1.042,0.374-2.107,0.397-3.188c0.033-1.562,0.264-3.097,0.485-4.64C194.733,69.723,195.167,66.745,194.933,63.74z"/>
			<path fill="#FFFFFF" d="M191.294,84.531c-0.461,0-0.847,0.386-0.846,0.848l0.001,0.94c0,0.462,0.388,0.846,0.848,0.846
				c0.462,0,0.848-0.386,0.847-0.848l-0.003-0.941C192.141,84.915,191.756,84.531,191.294,84.531z"/>
		</g>
	</g>
	<path opacity="0.4" fill="#70578E" enable-background="new    " d="M71.527,137.569l-0.466,0.137l4.197,11.386l0.545-0.231
		c0.047,0.404,0.106,0.849,0.181,1.194h26.46c0.297-1.481,1.561-7.215,1.702-7.2c0.144,0.014,4.365-0.053,4.365-0.053
		s1.607-9.718-0.727-15.833c0.368-0.254,2.342-1.784,3.252-5.772c0.447-1.952-0.325-2.164-0.558-3.553
		c-0.176-1.043,0.253-2.432-0.193-3.106c-0.089-0.136-0.249-0.255-0.444-0.367c-0.037-0.646-0.219-1.661-0.002-1.661
		c0.263,0,1.623-1.273,1.623-1.273s2.378-2.416,2.457-3.465c0.02-0.27-0.57-0.92-0.57-0.92s0.294-0.606,0.218-0.789
		c-0.087-0.217-0.613-0.966-0.613-0.966s0.026-0.846-0.087-1.097c-0.19-0.421-1.03-1.053-1.03-1.053s0.124-1.522-0.131-2.275
		c0-0.002-0.017-0.05-0.046-0.116c-0.013-0.028-0.025-0.052-0.042-0.076c-0.012-0.023-0.026-0.048-0.044-0.074c0,0,0,0,0-0.001
		s-0.001-0.001-0.001-0.001c-0.029-0.043-0.066-0.087-0.107-0.129l2.279-5.162l-0.643-0.257l-2.4,5.047
		c0.007-0.201-0.014-0.383-0.093-0.462c-0.118-0.119-0.51-0.21-0.658-0.131c-0.304,0.161-0.684,0.978-0.887,1.461
		c-0.521,0.303-1.033,0.684-1.418,1.083c0.195-2.647,0.321-5.108-0.076-6.681c-0.226-0.886-1.217-2.164-1.22-2.167
		c-0.246-0.376-0.582-0.713-0.978-1.019l-0.324-22.528c-0.247-9.604-1.302-17.925-13.596-17.671
		C79.639,52.03,78.86,59.176,77.897,69.45c-0.002,0.018-0.923,12.343-1.521,20.35c-0.331,0.164-0.633,0.326-0.895,0.486
		c-1.048,0.638-3.161,2.285-3.472,3.471c-2.412,9.194-3.874,25.361-3.016,33.803C69.219,129.793,70.31,133.704,71.527,137.569z
		 M107.51,103.614L107.51,103.614L107.51,103.614C107.51,103.616,107.51,103.616,107.51,103.614z M76.935,124.213
		c-0.002-3.918,1.896-15.042,1.896-15.042l3.042,9.798l-1.416,2.759c-1.175,2.246-2.67,5.283-3.01,6.799
		c-0.014,0.061-0.026,0.125-0.041,0.185c-0.075-0.532-0.152-1.117-0.225-1.694C77.063,126.001,76.978,125.055,76.935,124.213
		C76.935,124.214,76.935,124.214,76.935,124.213z"/>
	<g>
		<path fill="#44270F" d="M72.119,175.772c0.044-0.67,0.938-0.713,2.994-0.535c2.057,0.179,2.905-3.038,2.413-3.842
			c-0.491-0.806-2.68-3.709-3.395-2.949c-0.714,0.76-1.608,2.057-1.652,3.082C72.432,172.555,72.119,175.772,72.119,175.772z"/>
		<path fill="#BC2B37" d="M84.402,219.311c0,0,2.146,1.323,3.351,2.35c1,0.85,3.217,2.922,3.79,3.354
			c1.679,1.27,6.009,1.228,7.717,0c0.562-0.404,1.307-2.074,0.67-2.349c-2.349-1.007-6.04-3.021-6.04-3.021l-10.828-6.375
			L84.402,219.311z"/>
		<path fill="#BC2B37" d="M78.022,213.786c0,0-1.999,9.613-1.671,11.229c0.464,2.286,2.703,5.965,5.033,5.885
			c2.115-0.074,4.348-3.795,4.699-5.885c0.271-1.625-2.356-11.229-2.356-11.229H78.022z"/>
		<path fill="#FF8A54" d="M92.816,176.366c0,0-5.458,22.615-4.629,30.867c0.257,2.561,1.775,7.36,3.355,9.729
			c2.012,3.021,4.164,3.413,3.69,4.362c-0.336,0.67-3.454-0.157-5.804-2.17c-1.401-1.2-6.367-5.547-6.367-5.547l-0.311-16.44
			l4.025-21.14L92.816,176.366z"/>
		<path opacity="0.4" fill="#CC8569" enable-background="new    " d="M90.803,185.569c1.053-5.228,2.013-9.203,2.013-9.203
			l-6.04-0.338l-3.844,29.054c0.981-10.634,4.778-20.615,4.778-20.615S89.78,185.282,90.803,185.569z"/>
		<path fill="#FFA969" d="M74.605,174.016c0,0-0.967,3.498-1.006,7.381c-0.07,6.941,4.423,18.229,4.764,25.164
			c0.191,3.877-1.617,11.603-1.006,15.435c0.224,1.412,2.261,2.891,3.69,2.864c1.494-0.026,3.494-1.719,3.689-3.199
			c0.514-3.857-1.709-11.542-1.677-15.434c0.066-8.055,4.63-29.861,4.63-29.861L74.605,174.016z"/>
		<path opacity="0.5" fill="#CC8569" enable-background="new    " d="M74.605,174.016c0,0-0.36,1.848-0.648,3.764
			c2.684,1.421,8.676,4.709,12.563,4.457c0.671-3.484,1.171-5.871,1.171-5.871L74.605,174.016z"/>
		<path fill="#683529" d="M97.019,67.03c-0.262-10.233-1.386-19.097-14.485-18.828c-12.588,0.259-13.418,7.872-14.444,18.82
			c-0.002,0.026-2.153,28.823-2.153,28.823l31.467-2.083L97.019,67.03z"/>
		<path fill="#54281F" d="M97.047,69.001l-3.661-3.138l-21.268-0.335l-2.278,4.155c-0.535,6.031,1.892,8.305,1.743,13.135
			c-0.204,6.665-0.357,11.639-0.357,11.639l3.144,0.83l23.036-1.525L97.047,69.001z"/>
		<g>
			<g>
				<path fill="#FFA969" d="M95.945,72.651c-0.599,2.155-1.824,2.94-2.919,2.42c-1.1-0.518-1.654-2.143-1.054-4.298
					c0.601-2.152,1.495-4.314,3.222-3.498C96.789,68.027,96.542,70.498,95.945,72.651z"/>
			</g>
			<g>
				<path fill="#FF8A54" d="M94.671,72.323c-0.312,1.125-0.952,1.535-1.527,1.265c-0.573-0.271,0.229-4.503,1.133-4.076
					C95.114,69.906,94.985,71.197,94.671,72.323z"/>
			</g>
		</g>
		<g>
			<g>
				<path fill="#FFA969" d="M70.28,72.651c0.6,2.155,1.824,2.94,2.919,2.42c1.102-0.518,1.654-2.143,1.055-4.298
					c-0.602-2.152-1.495-4.314-3.223-3.498C69.434,68.027,69.681,70.498,70.28,72.651z"/>
			</g>
			<g>
				<path fill="#FF8A54" d="M71.553,72.323c0.31,1.125,0.952,1.535,1.525,1.265c0.573-0.271-0.229-4.503-1.132-4.076
					C71.111,69.906,71.239,71.197,71.553,72.323z"/>
			</g>
		</g>
		<path fill="#FF8A54" d="M101.144,100.772c0,0,0.634-1.693,1.099-1.938c0.158-0.085,0.574,0.014,0.701,0.141
			c0.24,0.239-0.022,1.331-0.022,1.331L101.144,100.772z"/>
		<path fill="#BC2B37" d="M98.406,92.118c0,0,1.06,1.363,1.298,2.309c1.107,4.364-1.593,15.176,0.562,19.128
			c0.333,0.61,1.953,0.925,2.337,1.505c0.476,0.721,0.019,2.199,0.205,3.313c0.249,1.479,1.071,1.705,0.596,3.781
			c-1.074,4.697-3.526,6.197-3.526,6.197l-5.895-8.445V99.54L98.406,92.118z"/>
		<path fill="#603814" d="M72.407,119.784c0,0-4.179,7.438-4.792,10.182c-1.445,6.471-2.801,16.391,0,26.514
			c0.662,2.393,2.83,7.748,3.237,10.196c0.281,1.692,0.034,5.074-0.233,7.679c-0.063,0.621,1.055,1.732,2.208,1.883
			c0.08,0.011,1.091-4.797,1.091-4.797s0.027,5.279,0.479,5.405c3.619,1.007,8.601,1.472,12.706,0.894
			c8.886-1.247,10.96-4.42,10.96-4.42s-1.325-8.476-1.123-11.291c0.293-4.047,1.257-9.625,2.337-13.537
			c2.848-10.319,1.436-17.86-0.036-22.807c-1.398-4.709-2.872-7.067-2.872-7.067L72.407,119.784z"/>
		<path opacity="0.4" fill="#70578E" enable-background="new    " d="M98.065,173.317c0,0-1.325-8.475-1.123-11.291
			c0.293-4.047,1.257-9.625,2.337-13.537c2.848-10.318,1.436-17.859-0.036-22.807c-0.371-1.248-0.747-2.328-1.099-3.244
			c-9.483-0.226-26.762-0.748-26.762-0.748l-0.023,0.019c-0.618,1.155-1.413,2.685-2.118,4.167c0.399-0.197,1.256-0.443,2.678-0.03
			c2.078,0.603,7.779,2.526,17.826,1.206c9.183-1.206,9.412,3.28,9.651,5.495c0.535,4.959,0.051,10.047-2.525,20.083
			c-2.591,10.098-0.625,19.482,0.496,21.415C97.873,173.606,98.065,173.317,98.065,173.317z"/>
		<path opacity="0.4" fill="#70578E" enable-background="new    " d="M71.918,149.233c0,0-0.469-0.469-1.476-8.713
			c-1.005-8.242,2.079-13.672,2.839-15.101l-1.9-3.731h-0.013c-1.279,2.395-3.336,6.416-3.752,8.276
			c-1.022,4.575-1.998,10.877-1.491,17.754l2.911,7.076c0,0,9.249,0,8.178-1.608C76.141,151.58,71.918,149.233,71.918,149.233z"/>
		<path fill="#E54046" d="M70.024,124.276c0,0,7.418,2.851,15.886,2.338c10.444-0.631,12.856-2.457,12.856-2.457l-1.083-2.868
			l-1.313-2.675l-24.04,1.169L70.024,124.276z"/>
		<path fill="#FF8A54" d="M77.473,153.703l3.428,0.386c0,0,0,1.119-0.77,1.503c-0.453,0.226-2.029,0-2.029,0L77.473,153.703z"/>
		<path fill="#E54046" d="M61.819,92.919c0.331-1.266,2.582-3.019,3.699-3.699c2.465-1.501,8.119-3.312,10.999-3.504
			c3.771-0.252,11.37,1.254,14.891,2.628c2.315,0.904,6.254,1.956,7.25,4.232c0.556,1.268-0.276,5.195-0.412,6.572
			c-0.12,1.211,0.781,3.692,0.463,4.867c-0.432,1.588-2.877,4.131-3.213,5.743c-0.454,2.177,0.875,8.856,0.875,8.856
			s-1.167,2.238-12.069,2.433c-3.008,0.056-11.971-1.265-11.971-1.265l-3.31-10.998c0,0-1.933,11.876-1.983,15.188
			c-0.104,6.905,4.222,24.913,4.222,24.913l-5.841,2.728c0,0-6.215-16.791-6.813-22.68C57.69,119.94,59.247,102.716,61.819,92.919z"
			/>
		<g>
			<path fill="#FFFFFF" d="M87.541,104.315c-0.406,0-0.756-0.308-0.799-0.72c-0.219-2.062-0.772-4.983-2.156-5.364
				c-0.429-0.118,1.058-1.254,1.472-1.411c0.417-0.157,2.438,0.736,2.058,0.964c-0.559,0.335,0.006,3.555,0.228,5.64
				c0.046,0.442-0.275,0.838-0.715,0.885C87.598,104.313,87.569,104.315,87.541,104.315z"/>
		</g>
		<path fill="#BC2B37" d="M67.294,96.156c-0.527-1.486,2.655,5.309,4.269,7.164c0.917,1.055,3.138,2.922,4.462,3.365
			c3.33,1.114,10.146,0.655,13.656,0.655c5.402,0,8.619-2.517,8.619-2.517s-0.726,1.984-1.966,4.467
			c-0.537,1.072-2.771,1.609-8.308,2.225c-2.984,0.331-6.829,0.065-11.138-0.156c-2.247-0.117-0.4,8.992-0.4,8.992l-4.16-0.565
			l-3.24-10.439c0,0-2.022,11.853-2.021,16.028c0,1.768,0.833,7.016,0.833,7.016s-1.781-4.635-1.996-6.265
			c-0.732-5.59,1.669-16.825,1.744-22.462C67.68,101.442,67.613,97.053,67.294,96.156z"/>
		<path fill="#FFA969" d="M77.428,80l-0.421,5.689l-0.981,2.864c0,0,7.01,6.239,10.584,10.095c0,0,5.436-5.516,5.468-7.921
			c0.022-1.648-2.702-4.156-3.784-5.398c-0.221-0.251-0.831-0.613-0.981-0.911c-0.466-0.912-0.391-5.525-0.391-5.525L77.428,80z"/>
		<path opacity="0.6" fill="#CC8569" enable-background="new    " d="M90.404,87.64c-0.766-0.901-1.612-1.741-2.109-2.313
			c-0.221-0.252-0.83-0.613-0.981-0.911c-0.358-0.702-0.396-3.588-0.396-4.886c-0.848-0.182-1.635-0.311-2.249-0.376l-5.709,0.667
			c-0.941,0.368-1.611,0.915-1.611,1.723c0,2.086,6.391,6.702,8.504,6.702C87.061,88.248,88.827,88.557,90.404,87.64z"/>
		<path fill="#FFFFFF" d="M77.198,83.089c0,0-2.576,2.25-3.467,3.532c-1.682,2.423-1.682,6.348-1.682,6.348l3.977-1.542
			c0,0-0.464,2.588,0,3.257c1.61,2.322,10.584,3.963,10.584,3.963s-3.433-3.721-4.796-5.021c-1.284-1.223-4.225-3.356-4.666-5.073
			c-0.188-0.733-0.141-2.863-0.141-2.863L77.198,83.089z"/>
		<path fill="#E8E6ED" d="M86.953,82.751l5.545,2.437l-1.191,1.472c0,0,3.111,0.967,3.436,1.893
			c1.735,4.954-8.131,10.095-8.131,10.095s4.334-6.161,4.208-8.652c-0.091-1.829-2.67-3.949-3.506-5.578
			C87.091,83.987,86.953,82.751,86.953,82.751z"/>
		<path opacity="0.6" fill="#CC8569" enable-background="new    " d="M91.307,86.659l1.192-1.472l-5.546-2.437
			c0,0,0.138,1.235,0.358,1.667c0.548,1.069,1.844,2.349,2.699,3.621c1.179,0.188,3.222,0.837,4.895,1.954
			c0.009,0.005,0.021,0.011,0.03,0.017c0.033-0.483-0.025-0.97-0.195-1.455C94.417,87.627,91.307,86.659,91.307,86.659z"/>
		<path fill="#FFA969" d="M101.191,116.403c0.402-0.073,0.879-0.938,0.936-1.344c0.071-0.537-0.281-2.162,0-2.162
			c0.278,0,1.729-1.354,1.729-1.354s2.534-2.575,2.617-3.69c0.021-0.289-0.608-0.981-0.608-0.981s0.313-0.646,0.234-0.841
			c-0.094-0.229-0.654-1.029-0.654-1.029s0.028-0.9-0.094-1.167c-0.204-0.447-1.098-1.122-1.098-1.122s0.171-2.115-0.281-2.711
			c-0.157-0.207-0.746-0.318-1.004-0.28c-1.207,0.179-3.614,1.698-3.839,2.896c-0.063,0.331,0.517,0.809,0.517,0.809
			s-2.19,2.308-2.473,3.3c-0.219,0.768,0.28,3.183,0.28,3.183s-0.082,3.014,0.281,3.925
			C98.152,114.886,100.073,116.608,101.191,116.403z"/>
		<path fill="#FFA969" d="M93.996,64.973c0.037,0.749-0.031,2.796-0.015,3.518c0.105,4.267,0.425,7.073-1.601,10.432
			c-1.909,3.168-6.624,5.992-8.965,6.108c-2.058,0.102-6.722-2.635-9.028-6.108c-1.996-3.005-1.646-5.257-1.97-9.238
			c-0.067-0.808-0.353-3.41-0.25-4.209c0.271-2.139,0.863-4.404,1.268-6.078c1.327-5.516,3.851-8.014,8.862-8.262
			c4.368-0.217,7.359,1.86,9.372,6.063C92.663,59.278,93.843,61.874,93.996,64.973z"/>
		<g>
			<polygon fill="#B06940" points="105.599,94.089 106.284,94.363 85.897,140.52 83.966,139.578 			"/>
			<polygon fill="#914823" points="76.143,156.164 83.966,139.578 85.897,140.52 78.387,157.258 			"/>
		</g>
		<path fill="#FFA969" d="M65.755,150.52c0,0,0.166,2.164,0.422,2.832c0.385,1.01,2.377,3.604,2.377,3.604s2.351,2.938,3.356,3.671
			c0.269,0.195,0.989,0.449,1.294,0.314c0.183-0.08,0.386-0.699,0.386-0.699s0.589,0.328,0.804,0.314
			c0.238-0.017,0.839-0.455,0.839-0.455s1.097,0.266,1.435,0.141c0.225-0.085,0.368-0.5,0.384-0.7
			c0.025-0.351-0.14-1.397-0.14-1.397l-1.328-2.414l0.384-0.386c0,0,1.568,1.466,1.852,2.238c0.164,0.442-0.074,1.858,0.281,2.169
			c0.249,0.216,0.797,0.061,1.027-0.176c0.44-0.454,0.651-1.895,0.548-2.518c-0.141-0.838-0.925-2.397-1.436-3.078
			c-0.684-0.912-3.708-3.008-3.708-3.008l-3.427-1.435l-0.559-1.049L65.755,150.52z"/>
		<g>
			<path fill="#FF8A54" d="M75.546,158.872c-0.622-0.525-1.637-2.633-1.637-2.633h-0.479c0,0,1.535,2.525,1.306,3.351
				c-0.053,0.192-0.401,0.333-0.598,0.3c-0.921-0.156-2.454-3.082-2.454-3.082l-0.417,0.418c0,0,1.184,1.701,1.454,2.334
				c0.062,0.146,0.104,0.49,0.004,0.629c-0.406,0.564-0.954,0.332-0.954,0.332v0.002c0.046,0.037,0.092,0.073,0.135,0.105
				c0.271,0.195,0.99,0.449,1.294,0.314c0.184-0.08,0.387-0.699,0.387-0.699s0.589,0.328,0.804,0.314
				c0.239-0.017,0.839-0.455,0.839-0.455s1.097,0.266,1.434,0.141c0.227-0.085,0.369-0.5,0.386-0.7
				c0.013-0.173-0.021-0.513-0.058-0.813c-0.271,0.226-0.591,0.455-0.787,0.473C76.02,159.215,75.687,158.991,75.546,158.872z"/>
		</g>
		<g>
			<path fill="#FF8A54" d="M79.129,159.578c0.388-0.401,0.599-1.572,0.569-2.271c-0.018,0.148-0.152,0.944-0.979,0.834
				c-0.372-0.051-0.866-0.426-0.866-0.426l0,0c0.095,0.542-0.077,1.752,0.248,2.038C78.35,159.969,78.899,159.815,79.129,159.578z"
				/>
		</g>
		<g>
			<path fill="#FFFFFF" stroke="#E83749" stroke-linecap="round" stroke-linejoin="round" stroke-miterlimit="10" d="M88.751,76.094
				c0,2.095-2.805,3.611-5.523,3.536c-2.52-0.07-4.966-1.582-5.018-3.536H88.751z"/>
		</g>
		<g>
			<path fill="#FF8A54" d="M83.636,82.008c0.922-0.09,1.358-0.464,1.252-0.958c-0.045-0.211-0.951,0.12-1.674,0.127
				c-1.056,0.012-1.783-0.415-1.687,0.025C81.684,81.921,82.573,82.109,83.636,82.008z"/>
		</g>
		<g>
			<path fill="#FF8A54" d="M73.745,66.658c0.414-0.858,1.723-1.181,2.582-1.197c1.283-0.02,3.55-0.454,4.446,0.724
				c0.786,1.031,0.365,2.367,0.016,2.839c-1.144,1.547-4.438,0.683-5.531,0.846C74.885,69.927,72.621,68.977,73.745,66.658z"/>
		</g>
		<g>
			<path fill="#FFFFFF" d="M79.593,68.685c-1.713-1.458-4.798-0.083-5.163,0.834c-0.154,0.395,0.915,2.321,3.543,1.601
				c1.045-0.287,0.927-0.676,2.028-1.048C80.549,69.886,80.31,69.294,79.593,68.685z"/>
		</g>
		<g>
			<path fill="#FFA969" d="M79.377,68.795c0.547,0.262,0.75,0.573,0.832,0.889c0.438-0.449,0.091-1.98-0.679-2.525
				c-1.714-1.214-4.356-0.013-4.84,0.683c-0.266,0.384-0.509,1.351-0.295,1.676C75.257,68.803,77.137,67.725,79.377,68.795z"/>
		</g>
		<g>
			<path fill="#4B6360" d="M78.571,69.684c0,0.659-0.556,1.192-1.244,1.192c-0.683,0-1.241-0.533-1.241-1.192
				c0-0.659,0.559-1.194,1.241-1.194C78.015,68.491,78.571,69.025,78.571,69.684z"/>
		</g>
		<g>
			<ellipse fill="#211F1F" cx="77.328" cy="69.684" rx="0.541" ry="0.518"/>
		</g>
		<g>
			<path fill="#993426" d="M80.209,69.934c0.06,0,0.117-0.021,0.167-0.064c0.104-0.093,0.112-0.251,0.019-0.354
				c-2.629-2.958-6.197-0.299-6.232-0.272c-0.108,0.083-0.13,0.242-0.048,0.352c0.083,0.11,0.24,0.13,0.353,0.048
				c0.13-0.099,3.236-2.403,5.554,0.205C80.073,69.905,80.14,69.934,80.209,69.934z"/>
		</g>
		<path fill="#993426" d="M77.481,65.613c1.951,0,3.155,0.751,3.123,0.596c-0.186-0.89-1.254-1.557-3.123-1.557
			c-1.289,0-3.58,0.807-3.58,2.085C73.901,66.896,75.176,65.613,77.481,65.613z"/>
		<path fill="#FF8A54" d="M81.631,72.464c0,0.385,0.162,1.189,0.411,1.334c0.813,0.474,2.467,0.276,2.467-0.643
			c0-0.699-0.006-2.079,0-3.159c0.005-0.896,0.285-2.526,0.897-3.18c1.266-1.343,3.431-1.343,3.431-1.343s-0.663,0.912-0.961,1.133
			c-0.418,0.31-1.541,0.458-1.907,0.825c-1.65,1.644-0.339,6.173-0.636,6.458c-0.764,0.733-2.561,1.113-3.91,0.297
			C80.397,73.567,81.631,72.008,81.631,72.464z"/>
		<circle fill="#FFFFFF" cx="77.808" cy="69.426" r="0.22"/>
		<g>
			<path fill="#FF8A54" d="M92.615,66.658c-0.415-0.858-1.721-1.181-2.581-1.197c-1.282-0.02-3.548-0.454-4.445,0.724
				c-0.785,1.031-0.365,2.367-0.018,2.839c1.145,1.547,4.44,0.683,5.533,0.846C91.478,69.927,93.738,68.977,92.615,66.658z"/>
		</g>
		<g>
			<path fill="#FFFFFF" d="M86.768,68.685c1.713-1.458,4.798-0.083,5.163,0.834c0.153,0.395-0.915,2.321-3.543,1.601
				c-1.045-0.287-0.926-0.676-2.027-1.048C85.811,69.886,86.051,69.294,86.768,68.685z"/>
		</g>
		<g>
			<path fill="#FFA969" d="M86.984,68.795c-0.547,0.262-0.75,0.573-0.833,0.889c-0.436-0.449-0.09-1.98,0.679-2.525
				c1.713-1.214,4.356-0.013,4.84,0.683c0.266,0.384,0.51,1.351,0.296,1.676C91.104,68.803,89.224,67.725,86.984,68.795z"/>
		</g>
		<g>
			<ellipse fill="#4B6360" cx="89.032" cy="69.684" rx="1.243" ry="1.192"/>
		</g>
		<g>
			<ellipse fill="#211F1F" cx="89.032" cy="69.684" rx="0.54" ry="0.518"/>
		</g>
		<g>
			<path fill="#993426" d="M86.151,69.934c-0.058,0-0.118-0.021-0.165-0.064c-0.104-0.093-0.115-0.251-0.021-0.354
				c2.63-2.958,6.197-0.299,6.233-0.272c0.107,0.083,0.13,0.242,0.046,0.352c-0.083,0.11-0.239,0.13-0.351,0.048
				c-0.13-0.099-3.237-2.403-5.554,0.205C86.289,69.905,86.221,69.934,86.151,69.934z"/>
		</g>
		<path fill="#993426" d="M88.881,65.613c-1.951,0-3.156,0.751-3.122,0.596c0.184-0.89,1.253-1.557,3.122-1.557
			c1.287,0,3.581,0.807,3.581,2.085C92.461,66.896,91.185,65.613,88.881,65.613z"/>
		<circle fill="#FFFFFF" cx="89.573" cy="69.426" r="0.221"/>
		<path fill="#683529" d="M95.753,66.19c3.182-2.098-5.124-16.743-13.236-16.743c-9.245,0-16.382,21.33-10.349,16.028
			c5.124-4.502,12.729-3.097,15.408-5.958C87.577,59.517,93.852,67.443,95.753,66.19z"/>
		<path fill="#FFA969" d="M100.961,107.786l-0.727,0.77l-0.683-0.385l0.158-0.497l-0.049-1.319l-0.553-0.468l0.773-2.282
			l1.911-3.479c0,0,1.215-0.604,1.681-0.488c0.485,0.12,0.638,0.649,0.638,0.649l-0.115,2.833l1.188,3.785L100.961,107.786z"/>
		<path fill="#FF8A54" d="M103.2,106.123l1.519,0.233l-1.508-0.76l-2.16,1.53c0,0-0.432,1.063-0.821,1.167
			c-0.218,0.059-0.629-0.229-0.629-0.229l0.332-1.183l1.032-1.278l2.027-1.561l1.844,0.885l-1.191-1.447l-0.793-0.211l-2.102,1.566
			c0,0-0.599,1.16-1.086,1.299c-0.234,0.067-0.553-0.252-0.553-0.252l0.794-1.705l2.337-2.193l1.401,0.468
			c0,0-0.19-0.933-0.443-1.075c-0.31-0.174-1.379,0.327-1.687,0.504c-0.609,0.354-1.868,1.542-1.868,1.542l-0.799,2.613l0.795,0.662
			l-0.288,1.499c0.799,0.755,1.506,0.38,1.506,0.38s-0.421,0.751,0.812,0.812c0.452,0.023,1.876-0.346,1.876-0.346
			s1.087-0.633,1.055-0.979c-0.032-0.338-1.308-0.379-1.308-0.379l-0.842,0.379c0,0-0.421,0.836-0.741,0.922
			c-0.185,0.05-0.754-0.155-0.754-0.155l0.352-1.308L103.2,106.123z"/>
		<polygon fill="#FFFFFF" points="71.525,149.225 65.282,151.879 60.812,139.749 69.021,137.329 		"/>
		<path fill="#FFA969" d="M85.523,62.914c0,0-0.76-1.742,0.223-2.189c0.983-0.447,1.968-1.519,1.832-4.513
			c0,0,0.18,3.842,0.939,4.691s-1.608,0.982-1.608,0.982L85.523,62.914z"/>
	</g>
	<path fill="#BC2B37" d="M72.287,119.524l-2.291,4.769c0,0,1.248,0.479,3.305,1.009c0.458-1.518,1.733-3.654,3.187-4.945
		L72.287,119.524z"/>
	<g opacity="0.4">
		<path fill="#70578E" d="M227.603,140.52c0,0.627-0.796,1.141-1.77,1.141h-11.741c-0.975,0-1.77-0.514-1.77-1.141
			s0.795-1.139,1.77-1.139h11.741C226.806,139.383,227.603,139.893,227.603,140.52z"/>
	</g>
	<g>
		<path fill="#FFDC97" d="M226.932,139.649c0,0.627-0.795,1.141-1.77,1.141h-11.741c-0.974,0-1.77-0.514-1.77-1.141
			c0-0.625,0.796-1.14,1.77-1.14h11.74C226.137,138.51,226.932,139.024,226.932,139.649z"/>
	</g>
</g>
</svg>
